<?xml version="1.0" encoding="UTF-8" standalone="no"?>
<!DOCTYPE svg PUBLIC "-//W3C//DTD SVG 1.1//EN"
 "http://www.w3.org/Graphics/SVG/1.1/DTD/svg11.dtd">
<!-- Generated by graphviz version 2.36.0 (20140111.2315)
 -->
<!-- Title: controllers_diagram Pages: 1 -->
<svg width="745pt" height="703pt"
 viewBox="0.00 0.00 745.38 702.56" xmlns="http://www.w3.org/2000/svg" xmlns:xlink="http://www.w3.org/1999/xlink">
<g id="graph0" class="graph" transform="scale(1 1) rotate(0) translate(4 698.557)">
<title>controllers_diagram</title>
<polygon fill="white" stroke="none" points="-4,4 -4,-698.557 741.375,-698.557 741.375,4 -4,4"/>
<!-- _diagram_info -->
<g id="node1" class="node"><title>_diagram_info</title>
<text text-anchor="start" x="538" y="-376.6" font-family="Times,serif" font-size="13.00">Controllers diagram</text>
<text text-anchor="start" x="538" y="-363.6" font-family="Times,serif" font-size="13.00">Date: Feb 19 2014 &#45; 13:13</text>
<text text-anchor="start" x="538" y="-350.6" font-family="Times,serif" font-size="13.00">Migration version: 20140219023530</text>
<text text-anchor="start" x="538" y="-337.6" font-family="Times,serif" font-size="13.00">Generated by RailRoady 1.1.1</text>
<text text-anchor="start" x="538" y="-324.6" font-family="Times,serif" font-size="13.00">http://railroady.prestonlee.com</text>
</g>
<!-- ApplicationController -->
<g id="node2" class="node"><title>ApplicationController</title>
<path fill="none" stroke="black" d="M220.989,-302.279C220.989,-302.279 392.624,-302.279 392.624,-302.279 398.624,-302.279 404.624,-308.279 404.624,-314.279 404.624,-314.279 404.624,-380.279 404.624,-380.279 404.624,-386.279 398.624,-392.279 392.624,-392.279 392.624,-392.279 220.989,-392.279 220.989,-392.279 214.989,-392.279 208.989,-386.279 208.989,-380.279 208.989,-380.279 208.989,-314.279 208.989,-314.279 208.989,-308.279 214.989,-302.279 220.989,-302.279"/>
<text text-anchor="middle" x="306.806" y="-377.079" font-family="Times,serif" font-size="14.00">ApplicationController</text>
<polyline fill="none" stroke="black" points="208.989,-370.279 404.624,-370.279 "/>
<text text-anchor="start" x="216.989" y="-355.079" font-family="Times,serif" font-size="14.00">_one_time_conditions_valid_8?</text>
<polyline fill="none" stroke="black" points="208.989,-348.279 404.624,-348.279 "/>
<polyline fill="none" stroke="black" points="208.989,-324.279 404.624,-324.279 "/>
<text text-anchor="start" x="216.989" y="-309.079" font-family="Times,serif" font-size="14.00">_layout</text>
</g>
<!-- ClientsController -->
<g id="node3" class="node"><title>ClientsController</title>
<path fill="none" stroke="black" d="M495.961,-77.3031C495.961,-77.3031 585.175,-77.3031 585.175,-77.3031 591.175,-77.3031 597.175,-83.3031 597.175,-89.3031 597.175,-89.3031 597.175,-239.303 597.175,-239.303 597.175,-245.303 591.175,-251.303 585.175,-251.303 585.175,-251.303 495.961,-251.303 495.961,-251.303 489.961,-251.303 483.961,-245.303 483.961,-239.303 483.961,-239.303 483.961,-89.3031 483.961,-89.3031 483.961,-83.3031 489.961,-77.3031 495.961,-77.3031"/>
<text text-anchor="middle" x="540.568" y="-236.103" font-family="Times,serif" font-size="14.00">ClientsController</text>
<polyline fill="none" stroke="black" points="483.961,-229.303 597.175,-229.303 "/>
<text text-anchor="start" x="491.961" y="-214.103" font-family="Times,serif" font-size="14.00">create</text>
<text text-anchor="start" x="491.961" y="-200.103" font-family="Times,serif" font-size="14.00">destroy</text>
<text text-anchor="start" x="491.961" y="-186.103" font-family="Times,serif" font-size="14.00">edit</text>
<text text-anchor="start" x="491.961" y="-172.103" font-family="Times,serif" font-size="14.00">index</text>
<text text-anchor="start" x="491.961" y="-158.103" font-family="Times,serif" font-size="14.00">new</text>
<text text-anchor="start" x="491.961" y="-144.103" font-family="Times,serif" font-size="14.00">show</text>
<text text-anchor="start" x="491.961" y="-130.103" font-family="Times,serif" font-size="14.00">update</text>
<polyline fill="none" stroke="black" points="483.961,-123.303 597.175,-123.303 "/>
<polyline fill="none" stroke="black" points="483.961,-99.3031 597.175,-99.3031 "/>
<text text-anchor="start" x="491.961" y="-84.1031" font-family="Times,serif" font-size="14.00">_layout</text>
</g>
<!-- ApplicationController&#45;&gt;ClientsController -->
<g id="edge1" class="edge"><title>ApplicationController&#45;&gt;ClientsController</title>
<path fill="none" stroke="black" d="M364.59,-302.049C400.96,-273.581 447.689,-237.004 483.853,-208.697"/>
</g>
<!-- ProjectsController -->
<g id="node4" class="node"><title>ProjectsController</title>
<path fill="none" stroke="black" d="M258.892,-0.5C258.892,-0.5 353.54,-0.5 353.54,-0.5 359.54,-0.5 365.54,-6.5 365.54,-12.5 365.54,-12.5 365.54,-162.5 365.54,-162.5 365.54,-168.5 359.54,-174.5 353.54,-174.5 353.54,-174.5 258.892,-174.5 258.892,-174.5 252.892,-174.5 246.892,-168.5 246.892,-162.5 246.892,-162.5 246.892,-12.5 246.892,-12.5 246.892,-6.5 252.892,-0.5 258.892,-0.5"/>
<text text-anchor="middle" x="306.216" y="-159.3" font-family="Times,serif" font-size="14.00">ProjectsController</text>
<polyline fill="none" stroke="black" points="246.892,-152.5 365.54,-152.5 "/>
<text text-anchor="start" x="254.892" y="-137.3" font-family="Times,serif" font-size="14.00">create</text>
<text text-anchor="start" x="254.892" y="-123.3" font-family="Times,serif" font-size="14.00">destroy</text>
<text text-anchor="start" x="254.892" y="-109.3" font-family="Times,serif" font-size="14.00">edit</text>
<text text-anchor="start" x="254.892" y="-95.3" font-family="Times,serif" font-size="14.00">index</text>
<text text-anchor="start" x="254.892" y="-81.3" font-family="Times,serif" font-size="14.00">new</text>
<text text-anchor="start" x="254.892" y="-67.3" font-family="Times,serif" font-size="14.00">show</text>
<text text-anchor="start" x="254.892" y="-53.3" font-family="Times,serif" font-size="14.00">update</text>
<polyline fill="none" stroke="black" points="246.892,-46.5 365.54,-46.5 "/>
<polyline fill="none" stroke="black" points="246.892,-22.5 365.54,-22.5 "/>
<text text-anchor="start" x="254.892" y="-7.3" font-family="Times,serif" font-size="14.00">_layout</text>
</g>
<!-- ApplicationController&#45;&gt;ProjectsController -->
<g id="edge2" class="edge"><title>ApplicationController&#45;&gt;ProjectsController</title>
<path fill="none" stroke="black" d="M306.704,-302.029C306.624,-266.995 306.511,-217.411 306.414,-174.737"/>
</g>
<!-- SitesController -->
<g id="node5" class="node"><title>SitesController</title>
<path fill="none" stroke="black" d="M34.8968,-443.225C34.8968,-443.225 111.669,-443.225 111.669,-443.225 117.669,-443.225 123.669,-449.225 123.669,-455.225 123.669,-455.225 123.669,-605.225 123.669,-605.225 123.669,-611.225 117.669,-617.225 111.669,-617.225 111.669,-617.225 34.8968,-617.225 34.8968,-617.225 28.8968,-617.225 22.8968,-611.225 22.8968,-605.225 22.8968,-605.225 22.8968,-455.225 22.8968,-455.225 22.8968,-449.225 28.8968,-443.225 34.8968,-443.225"/>
<text text-anchor="middle" x="73.283" y="-602.025" font-family="Times,serif" font-size="14.00">SitesController</text>
<polyline fill="none" stroke="black" points="22.8968,-595.225 123.669,-595.225 "/>
<text text-anchor="start" x="30.8968" y="-580.025" font-family="Times,serif" font-size="14.00">create</text>
<text text-anchor="start" x="30.8968" y="-566.025" font-family="Times,serif" font-size="14.00">destroy</text>
<text text-anchor="start" x="30.8968" y="-552.025" font-family="Times,serif" font-size="14.00">edit</text>
<text text-anchor="start" x="30.8968" y="-538.025" font-family="Times,serif" font-size="14.00">index</text>
<text text-anchor="start" x="30.8968" y="-524.025" font-family="Times,serif" font-size="14.00">new</text>
<text text-anchor="start" x="30.8968" y="-510.025" font-family="Times,serif" font-size="14.00">show</text>
<text text-anchor="start" x="30.8968" y="-496.025" font-family="Times,serif" font-size="14.00">update</text>
<polyline fill="none" stroke="black" points="22.8968,-489.225 123.669,-489.225 "/>
<polyline fill="none" stroke="black" points="22.8968,-465.225 123.669,-465.225 "/>
<text text-anchor="start" x="30.8968" y="-450.025" font-family="Times,serif" font-size="14.00">_layout</text>
</g>
<!-- ApplicationController&#45;&gt;SitesController -->
<g id="edge3" class="edge"><title>ApplicationController&#45;&gt;SitesController</title>
<path fill="none" stroke="black" d="M249.082,-392.501C210.723,-422.552 160.829,-461.64 123.999,-490.493"/>
</g>
<!-- StakeholderCompaniesController -->
<g id="node6" class="node"><title>StakeholderCompaniesController</title>
<path fill="none" stroke="black" d="M451.215,-442.74C451.215,-442.74 630.622,-442.74 630.622,-442.74 636.622,-442.74 642.622,-448.74 642.622,-454.74 642.622,-454.74 642.622,-604.74 642.622,-604.74 642.622,-610.74 636.622,-616.74 630.622,-616.74 630.622,-616.74 451.215,-616.74 451.215,-616.74 445.215,-616.74 439.215,-610.74 439.215,-604.74 439.215,-604.74 439.215,-454.74 439.215,-454.74 439.215,-448.74 445.215,-442.74 451.215,-442.74"/>
<text text-anchor="middle" x="540.918" y="-601.54" font-family="Times,serif" font-size="14.00">StakeholderCompaniesController</text>
<polyline fill="none" stroke="black" points="439.215,-594.74 642.622,-594.74 "/>
<text text-anchor="start" x="447.215" y="-579.54" font-family="Times,serif" font-size="14.00">create</text>
<text text-anchor="start" x="447.215" y="-565.54" font-family="Times,serif" font-size="14.00">destroy</text>
<text text-anchor="start" x="447.215" y="-551.54" font-family="Times,serif" font-size="14.00">edit</text>
<text text-anchor="start" x="447.215" y="-537.54" font-family="Times,serif" font-size="14.00">index</text>
<text text-anchor="start" x="447.215" y="-523.54" font-family="Times,serif" font-size="14.00">new</text>
<text text-anchor="start" x="447.215" y="-509.54" font-family="Times,serif" font-size="14.00">show</text>
<text text-anchor="start" x="447.215" y="-495.54" font-family="Times,serif" font-size="14.00">update</text>
<polyline fill="none" stroke="black" points="439.215,-488.74 642.622,-488.74 "/>
<polyline fill="none" stroke="black" points="439.215,-464.74 642.622,-464.74 "/>
<text text-anchor="start" x="447.215" y="-449.54" font-family="Times,serif" font-size="14.00">_layout</text>
</g>
<!-- ApplicationController&#45;&gt;StakeholderCompaniesController -->
<g id="edge4" class="edge"><title>ApplicationController&#45;&gt;StakeholderCompaniesController</title>
<path fill="none" stroke="black" d="M364.677,-392.382C387.154,-409.9 413.582,-430.497 439.037,-450.336"/>
</g>
<!-- StakeholderCompanyTypesController -->
<g id="node7" class="node"><title>StakeholderCompanyTypesController</title>
<path fill="none" stroke="black" d="M205.239,-520.057C205.239,-520.057 409.331,-520.057 409.331,-520.057 415.331,-520.057 421.331,-526.057 421.331,-532.057 421.331,-532.057 421.331,-682.057 421.331,-682.057 421.331,-688.057 415.331,-694.057 409.331,-694.057 409.331,-694.057 205.239,-694.057 205.239,-694.057 199.239,-694.057 193.239,-688.057 193.239,-682.057 193.239,-682.057 193.239,-532.057 193.239,-532.057 193.239,-526.057 199.239,-520.057 205.239,-520.057"/>
<text text-anchor="middle" x="307.285" y="-678.857" font-family="Times,serif" font-size="14.00">StakeholderCompanyTypesController</text>
<polyline fill="none" stroke="black" points="193.239,-672.057 421.331,-672.057 "/>
<text text-anchor="start" x="201.239" y="-656.857" font-family="Times,serif" font-size="14.00">create</text>
<text text-anchor="start" x="201.239" y="-642.857" font-family="Times,serif" font-size="14.00">destroy</text>
<text text-anchor="start" x="201.239" y="-628.857" font-family="Times,serif" font-size="14.00">edit</text>
<text text-anchor="start" x="201.239" y="-614.857" font-family="Times,serif" font-size="14.00">index</text>
<text text-anchor="start" x="201.239" y="-600.857" font-family="Times,serif" font-size="14.00">new</text>
<text text-anchor="start" x="201.239" y="-586.857" font-family="Times,serif" font-size="14.00">show</text>
<text text-anchor="start" x="201.239" y="-572.857" font-family="Times,serif" font-size="14.00">update</text>
<polyline fill="none" stroke="black" points="193.239,-566.057 421.331,-566.057 "/>
<polyline fill="none" stroke="black" points="193.239,-542.057 421.331,-542.057 "/>
<text text-anchor="start" x="201.239" y="-526.857" font-family="Times,serif" font-size="14.00">_layout</text>
</g>
<!-- ApplicationController&#45;&gt;StakeholderCompanyTypesController -->
<g id="edge5" class="edge"><title>ApplicationController&#45;&gt;StakeholderCompanyTypesController</title>
<path fill="none" stroke="black" d="M306.89,-392.529C306.954,-427.562 307.046,-477.146 307.125,-519.821"/>
</g>
<!-- StakeholdersController -->
<g id="node8" class="node"><title>StakeholdersController</title>
<path fill="none" stroke="black" d="M12,-77.8644C12,-77.8644 133.862,-77.8644 133.862,-77.8644 139.862,-77.8644 145.862,-83.8644 145.862,-89.8644 145.862,-89.8644 145.862,-239.864 145.862,-239.864 145.862,-245.864 139.862,-251.864 133.862,-251.864 133.862,-251.864 12,-251.864 12,-251.864 6,-251.864 5.68434e-14,-245.864 5.68434e-14,-239.864 5.68434e-14,-239.864 5.68434e-14,-89.8644 5.68434e-14,-89.8644 5.68434e-14,-83.8644 6,-77.8644 12,-77.8644"/>
<text text-anchor="middle" x="72.9312" y="-236.664" font-family="Times,serif" font-size="14.00">StakeholdersController</text>
<polyline fill="none" stroke="black" points="5.68434e-14,-229.864 145.862,-229.864 "/>
<text text-anchor="start" x="8" y="-214.664" font-family="Times,serif" font-size="14.00">create</text>
<text text-anchor="start" x="8" y="-200.664" font-family="Times,serif" font-size="14.00">destroy</text>
<text text-anchor="start" x="8" y="-186.664" font-family="Times,serif" font-size="14.00">edit</text>
<text text-anchor="start" x="8" y="-172.664" font-family="Times,serif" font-size="14.00">index</text>
<text text-anchor="start" x="8" y="-158.664" font-family="Times,serif" font-size="14.00">new</text>
<text text-anchor="start" x="8" y="-144.664" font-family="Times,serif" font-size="14.00">show</text>
<text text-anchor="start" x="8" y="-130.664" font-family="Times,serif" font-size="14.00">update</text>
<polyline fill="none" stroke="black" points="5.68434e-14,-123.864 145.862,-123.864 "/>
<polyline fill="none" stroke="black" points="5.68434e-14,-99.8644 145.862,-99.8644 "/>
<text text-anchor="start" x="8" y="-84.6644" font-family="Times,serif" font-size="14.00">_layout</text>
</g>
<!-- ApplicationController&#45;&gt;StakeholdersController -->
<g id="edge6" class="edge"><title>ApplicationController&#45;&gt;StakeholdersController</title>
<path fill="none" stroke="black" d="M248.995,-302.188C217.883,-277.922 179.194,-247.746 146.014,-221.866"/>
</g>
</g>
</svg>
