<?xml version="1.0" encoding="UTF-8" standalone="no"?>
<!DOCTYPE svg PUBLIC "-//W3C//DTD SVG 1.1//EN"
 "http://www.w3.org/Graphics/SVG/1.1/DTD/svg11.dtd">
<!-- Generated by graphviz version 2.36.0 (20140111.2315)
 -->
<!-- Title: controllers_diagram Pages: 1 -->
<svg width="891pt" height="665pt"
 viewBox="0.00 0.00 891.38 665.21" xmlns="http://www.w3.org/2000/svg" xmlns:xlink="http://www.w3.org/1999/xlink">
<g id="graph0" class="graph" transform="scale(1 1) rotate(0) translate(4 661.21)">
<title>controllers_diagram</title>
<polygon fill="white" stroke="none" points="-4,4 -4,-661.21 887.375,-661.21 887.375,4 -4,4"/>
<!-- _diagram_info -->
<g id="node1" class="node"><title>_diagram_info</title>
<text text-anchor="start" x="684" y="-318.6" font-family="Times,serif" font-size="13.00">Controllers diagram</text>
<text text-anchor="start" x="684" y="-305.6" font-family="Times,serif" font-size="13.00">Date: Feb 19 2014 &#45; 18:06</text>
<text text-anchor="start" x="684" y="-292.6" font-family="Times,serif" font-size="13.00">Migration version: 20140220012509</text>
<text text-anchor="start" x="684" y="-279.6" font-family="Times,serif" font-size="13.00">Generated by RailRoady 1.1.1</text>
<text text-anchor="start" x="684" y="-266.6" font-family="Times,serif" font-size="13.00">http://railroady.prestonlee.com</text>
</g>
<!-- ApplicationController -->
<g id="node2" class="node"><title>ApplicationController</title>
<path fill="none" stroke="black" d="M239.761,-283.764C239.761,-283.764 411.396,-283.764 411.396,-283.764 417.396,-283.764 423.396,-289.764 423.396,-295.764 423.396,-295.764 423.396,-361.764 423.396,-361.764 423.396,-367.764 417.396,-373.764 411.396,-373.764 411.396,-373.764 239.761,-373.764 239.761,-373.764 233.761,-373.764 227.761,-367.764 227.761,-361.764 227.761,-361.764 227.761,-295.764 227.761,-295.764 227.761,-289.764 233.761,-283.764 239.761,-283.764"/>
<text text-anchor="middle" x="325.578" y="-358.564" font-family="Times,serif" font-size="14.00">ApplicationController</text>
<polyline fill="none" stroke="black" points="227.761,-351.764 423.396,-351.764 "/>
<text text-anchor="start" x="235.761" y="-336.564" font-family="Times,serif" font-size="14.00">_one_time_conditions_valid_8?</text>
<polyline fill="none" stroke="black" points="227.761,-329.764 423.396,-329.764 "/>
<polyline fill="none" stroke="black" points="227.761,-305.764 423.396,-305.764 "/>
<text text-anchor="start" x="235.761" y="-290.564" font-family="Times,serif" font-size="14.00">_layout</text>
</g>
<!-- ClientTypesController -->
<g id="node3" class="node"><title>ClientTypesController</title>
<path fill="none" stroke="black" d="M504.299,-479.99C504.299,-479.99 621.301,-479.99 621.301,-479.99 627.301,-479.99 633.301,-485.99 633.301,-491.99 633.301,-491.99 633.301,-641.99 633.301,-641.99 633.301,-647.99 627.301,-653.99 621.301,-653.99 621.301,-653.99 504.299,-653.99 504.299,-653.99 498.299,-653.99 492.299,-647.99 492.299,-641.99 492.299,-641.99 492.299,-491.99 492.299,-491.99 492.299,-485.99 498.299,-479.99 504.299,-479.99"/>
<text text-anchor="middle" x="562.8" y="-638.79" font-family="Times,serif" font-size="14.00">ClientTypesController</text>
<polyline fill="none" stroke="black" points="492.299,-631.99 633.301,-631.99 "/>
<text text-anchor="start" x="500.299" y="-616.79" font-family="Times,serif" font-size="14.00">create</text>
<text text-anchor="start" x="500.299" y="-602.79" font-family="Times,serif" font-size="14.00">destroy</text>
<text text-anchor="start" x="500.299" y="-588.79" font-family="Times,serif" font-size="14.00">edit</text>
<text text-anchor="start" x="500.299" y="-574.79" font-family="Times,serif" font-size="14.00">index</text>
<text text-anchor="start" x="500.299" y="-560.79" font-family="Times,serif" font-size="14.00">new</text>
<text text-anchor="start" x="500.299" y="-546.79" font-family="Times,serif" font-size="14.00">show</text>
<text text-anchor="start" x="500.299" y="-532.79" font-family="Times,serif" font-size="14.00">update</text>
<polyline fill="none" stroke="black" points="492.299,-525.99 633.301,-525.99 "/>
<polyline fill="none" stroke="black" points="492.299,-501.99 633.301,-501.99 "/>
<text text-anchor="start" x="500.299" y="-486.79" font-family="Times,serif" font-size="14.00">_layout</text>
</g>
<!-- ApplicationController&#45;&gt;ClientTypesController -->
<g id="edge1" class="edge"><title>ApplicationController&#45;&gt;ClientTypesController</title>
<path fill="none" stroke="black" d="M370.477,-373.852C404.729,-408.249 452.569,-456.292 491.965,-495.855"/>
</g>
<!-- CompaniesController -->
<g id="node4" class="node"><title>CompaniesController</title>
<path fill="none" stroke="black" d="M193.846,-6.29161C193.846,-6.29161 306.384,-6.29161 306.384,-6.29161 312.384,-6.29161 318.384,-12.2916 318.384,-18.2916 318.384,-18.2916 318.384,-168.292 318.384,-168.292 318.384,-174.292 312.384,-180.292 306.384,-180.292 306.384,-180.292 193.846,-180.292 193.846,-180.292 187.846,-180.292 181.846,-174.292 181.846,-168.292 181.846,-168.292 181.846,-18.2916 181.846,-18.2916 181.846,-12.2916 187.846,-6.29161 193.846,-6.29161"/>
<text text-anchor="middle" x="250.115" y="-165.092" font-family="Times,serif" font-size="14.00">CompaniesController</text>
<polyline fill="none" stroke="black" points="181.846,-158.292 318.384,-158.292 "/>
<text text-anchor="start" x="189.846" y="-143.092" font-family="Times,serif" font-size="14.00">create</text>
<text text-anchor="start" x="189.846" y="-129.092" font-family="Times,serif" font-size="14.00">destroy</text>
<text text-anchor="start" x="189.846" y="-115.092" font-family="Times,serif" font-size="14.00">edit</text>
<text text-anchor="start" x="189.846" y="-101.092" font-family="Times,serif" font-size="14.00">index</text>
<text text-anchor="start" x="189.846" y="-87.0916" font-family="Times,serif" font-size="14.00">new</text>
<text text-anchor="start" x="189.846" y="-73.0916" font-family="Times,serif" font-size="14.00">show</text>
<text text-anchor="start" x="189.846" y="-59.0916" font-family="Times,serif" font-size="14.00">update</text>
<polyline fill="none" stroke="black" points="181.846,-52.2916 318.384,-52.2916 "/>
<polyline fill="none" stroke="black" points="181.846,-28.2916 318.384,-28.2916 "/>
<text text-anchor="start" x="189.846" y="-13.0916" font-family="Times,serif" font-size="14.00">_layout</text>
</g>
<!-- ApplicationController&#45;&gt;CompaniesController -->
<g id="edge2" class="edge"><title>ApplicationController&#45;&gt;CompaniesController</title>
<path fill="none" stroke="black" d="M311.118,-283.641C301.788,-254.529 289.344,-215.699 278.129,-180.705"/>
</g>
<!-- FaultsController -->
<g id="node5" class="node"><title>FaultsController</title>
<path fill="none" stroke="black" d="M208.798,-474.6C208.798,-474.6 292.57,-474.6 292.57,-474.6 298.57,-474.6 304.57,-480.6 304.57,-486.6 304.57,-486.6 304.57,-636.6 304.57,-636.6 304.57,-642.6 298.57,-648.6 292.57,-648.6 292.57,-648.6 208.798,-648.6 208.798,-648.6 202.798,-648.6 196.798,-642.6 196.798,-636.6 196.798,-636.6 196.798,-486.6 196.798,-486.6 196.798,-480.6 202.798,-474.6 208.798,-474.6"/>
<text text-anchor="middle" x="250.684" y="-633.4" font-family="Times,serif" font-size="14.00">FaultsController</text>
<polyline fill="none" stroke="black" points="196.798,-626.6 304.57,-626.6 "/>
<text text-anchor="start" x="204.798" y="-611.4" font-family="Times,serif" font-size="14.00">create</text>
<text text-anchor="start" x="204.798" y="-597.4" font-family="Times,serif" font-size="14.00">destroy</text>
<text text-anchor="start" x="204.798" y="-583.4" font-family="Times,serif" font-size="14.00">edit</text>
<text text-anchor="start" x="204.798" y="-569.4" font-family="Times,serif" font-size="14.00">index</text>
<text text-anchor="start" x="204.798" y="-555.4" font-family="Times,serif" font-size="14.00">new</text>
<text text-anchor="start" x="204.798" y="-541.4" font-family="Times,serif" font-size="14.00">show</text>
<text text-anchor="start" x="204.798" y="-527.4" font-family="Times,serif" font-size="14.00">update</text>
<polyline fill="none" stroke="black" points="196.798,-520.6 304.57,-520.6 "/>
<polyline fill="none" stroke="black" points="196.798,-496.6 304.57,-496.6 "/>
<text text-anchor="start" x="204.798" y="-481.4" font-family="Times,serif" font-size="14.00">_layout</text>
</g>
<!-- ApplicationController&#45;&gt;FaultsController -->
<g id="edge3" class="edge"><title>ApplicationController&#45;&gt;FaultsController</title>
<path fill="none" stroke="black" d="M311.049,-373.933C301.861,-402.498 289.682,-440.362 278.67,-474.595"/>
</g>
<!-- PhasesController -->
<g id="node6" class="node"><title>PhasesController</title>
<path fill="none" stroke="black" d="M355.396,-480.953C355.396,-480.953 443.052,-480.953 443.052,-480.953 449.052,-480.953 455.052,-486.953 455.052,-492.953 455.052,-492.953 455.052,-642.953 455.052,-642.953 455.052,-648.953 449.052,-654.953 443.052,-654.953 443.052,-654.953 355.396,-654.953 355.396,-654.953 349.396,-654.953 343.396,-648.953 343.396,-642.953 343.396,-642.953 343.396,-492.953 343.396,-492.953 343.396,-486.953 349.396,-480.953 355.396,-480.953"/>
<text text-anchor="middle" x="399.224" y="-639.753" font-family="Times,serif" font-size="14.00">PhasesController</text>
<polyline fill="none" stroke="black" points="343.396,-632.953 455.052,-632.953 "/>
<text text-anchor="start" x="351.396" y="-617.753" font-family="Times,serif" font-size="14.00">create</text>
<text text-anchor="start" x="351.396" y="-603.753" font-family="Times,serif" font-size="14.00">destroy</text>
<text text-anchor="start" x="351.396" y="-589.753" font-family="Times,serif" font-size="14.00">edit</text>
<text text-anchor="start" x="351.396" y="-575.753" font-family="Times,serif" font-size="14.00">index</text>
<text text-anchor="start" x="351.396" y="-561.753" font-family="Times,serif" font-size="14.00">new</text>
<text text-anchor="start" x="351.396" y="-547.753" font-family="Times,serif" font-size="14.00">show</text>
<text text-anchor="start" x="351.396" y="-533.753" font-family="Times,serif" font-size="14.00">update</text>
<polyline fill="none" stroke="black" points="343.396,-526.953 455.052,-526.953 "/>
<polyline fill="none" stroke="black" points="343.396,-502.953 455.052,-502.953 "/>
<text text-anchor="start" x="351.396" y="-487.753" font-family="Times,serif" font-size="14.00">_layout</text>
</g>
<!-- ApplicationController&#45;&gt;PhasesController -->
<g id="edge4" class="edge"><title>ApplicationController&#45;&gt;PhasesController</title>
<path fill="none" stroke="black" d="M339.517,-374.034C348.775,-404.101 361.229,-444.552 372.368,-480.729"/>
</g>
<!-- ProjectManagersController -->
<g id="node7" class="node"><title>ProjectManagersController</title>
<path fill="none" stroke="black" d="M15.156,-482.71C15.156,-482.71 159.556,-482.71 159.556,-482.71 165.556,-482.71 171.556,-488.71 171.556,-494.71 171.556,-494.71 171.556,-644.71 171.556,-644.71 171.556,-650.71 165.556,-656.71 159.556,-656.71 159.556,-656.71 15.156,-656.71 15.156,-656.71 9.15601,-656.71 3.15601,-650.71 3.15601,-644.71 3.15601,-644.71 3.15601,-494.71 3.15601,-494.71 3.15601,-488.71 9.15601,-482.71 15.156,-482.71"/>
<text text-anchor="middle" x="87.3562" y="-641.51" font-family="Times,serif" font-size="14.00">ProjectManagersController</text>
<polyline fill="none" stroke="black" points="3.15601,-634.71 171.556,-634.71 "/>
<text text-anchor="start" x="11.156" y="-619.51" font-family="Times,serif" font-size="14.00">create</text>
<text text-anchor="start" x="11.156" y="-605.51" font-family="Times,serif" font-size="14.00">destroy</text>
<text text-anchor="start" x="11.156" y="-591.51" font-family="Times,serif" font-size="14.00">edit</text>
<text text-anchor="start" x="11.156" y="-577.51" font-family="Times,serif" font-size="14.00">index</text>
<text text-anchor="start" x="11.156" y="-563.51" font-family="Times,serif" font-size="14.00">new</text>
<text text-anchor="start" x="11.156" y="-549.51" font-family="Times,serif" font-size="14.00">show</text>
<text text-anchor="start" x="11.156" y="-535.51" font-family="Times,serif" font-size="14.00">update</text>
<polyline fill="none" stroke="black" points="3.15601,-528.71 171.556,-528.71 "/>
<polyline fill="none" stroke="black" points="3.15601,-504.71 171.556,-504.71 "/>
<text text-anchor="start" x="11.156" y="-489.51" font-family="Times,serif" font-size="14.00">_layout</text>
</g>
<!-- ApplicationController&#45;&gt;ProjectManagersController -->
<g id="edge5" class="edge"><title>ApplicationController&#45;&gt;ProjectManagersController</title>
<path fill="none" stroke="black" d="M281.05,-373.801C250.346,-404.857 208.577,-447.103 171.688,-484.414"/>
</g>
<!-- ProjectsController -->
<g id="node8" class="node"><title>ProjectsController</title>
<path fill="none" stroke="black" d="M65.3525,-241.409C65.3525,-241.409 160.001,-241.409 160.001,-241.409 166.001,-241.409 172.001,-247.409 172.001,-253.409 172.001,-253.409 172.001,-403.409 172.001,-403.409 172.001,-409.409 166.001,-415.409 160.001,-415.409 160.001,-415.409 65.3525,-415.409 65.3525,-415.409 59.3525,-415.409 53.3525,-409.409 53.3525,-403.409 53.3525,-403.409 53.3525,-253.409 53.3525,-253.409 53.3525,-247.409 59.3525,-241.409 65.3525,-241.409"/>
<text text-anchor="middle" x="112.677" y="-400.209" font-family="Times,serif" font-size="14.00">ProjectsController</text>
<polyline fill="none" stroke="black" points="53.3525,-393.409 172.001,-393.409 "/>
<text text-anchor="start" x="61.3525" y="-378.209" font-family="Times,serif" font-size="14.00">create</text>
<text text-anchor="start" x="61.3525" y="-364.209" font-family="Times,serif" font-size="14.00">destroy</text>
<text text-anchor="start" x="61.3525" y="-350.209" font-family="Times,serif" font-size="14.00">edit</text>
<text text-anchor="start" x="61.3525" y="-336.209" font-family="Times,serif" font-size="14.00">index</text>
<text text-anchor="start" x="61.3525" y="-322.209" font-family="Times,serif" font-size="14.00">new</text>
<text text-anchor="start" x="61.3525" y="-308.209" font-family="Times,serif" font-size="14.00">show</text>
<text text-anchor="start" x="61.3525" y="-294.209" font-family="Times,serif" font-size="14.00">update</text>
<polyline fill="none" stroke="black" points="53.3525,-287.409 172.001,-287.409 "/>
<polyline fill="none" stroke="black" points="53.3525,-263.409 172.001,-263.409 "/>
<text text-anchor="start" x="61.3525" y="-248.209" font-family="Times,serif" font-size="14.00">_layout</text>
</g>
<!-- ApplicationController&#45;&gt;ProjectsController -->
<g id="edge6" class="edge"><title>ApplicationController&#45;&gt;ProjectsController</title>
<path fill="none" stroke="black" d="M227.54,-328.601C208.66,-328.569 189.425,-328.537 172.23,-328.509"/>
</g>
<!-- SitesController -->
<g id="node9" class="node"><title>SitesController</title>
<path fill="none" stroke="black" d="M497.577,-240.423C497.577,-240.423 574.349,-240.423 574.349,-240.423 580.349,-240.423 586.349,-246.423 586.349,-252.423 586.349,-252.423 586.349,-402.423 586.349,-402.423 586.349,-408.423 580.349,-414.423 574.349,-414.423 574.349,-414.423 497.577,-414.423 497.577,-414.423 491.577,-414.423 485.577,-408.423 485.577,-402.423 485.577,-402.423 485.577,-252.423 485.577,-252.423 485.577,-246.423 491.577,-240.423 497.577,-240.423"/>
<text text-anchor="middle" x="535.963" y="-399.223" font-family="Times,serif" font-size="14.00">SitesController</text>
<polyline fill="none" stroke="black" points="485.577,-392.423 586.349,-392.423 "/>
<text text-anchor="start" x="493.577" y="-377.223" font-family="Times,serif" font-size="14.00">create</text>
<text text-anchor="start" x="493.577" y="-363.223" font-family="Times,serif" font-size="14.00">destroy</text>
<text text-anchor="start" x="493.577" y="-349.223" font-family="Times,serif" font-size="14.00">edit</text>
<text text-anchor="start" x="493.577" y="-335.223" font-family="Times,serif" font-size="14.00">index</text>
<text text-anchor="start" x="493.577" y="-321.223" font-family="Times,serif" font-size="14.00">new</text>
<text text-anchor="start" x="493.577" y="-307.223" font-family="Times,serif" font-size="14.00">show</text>
<text text-anchor="start" x="493.577" y="-293.223" font-family="Times,serif" font-size="14.00">update</text>
<polyline fill="none" stroke="black" points="485.577,-286.423 586.349,-286.423 "/>
<polyline fill="none" stroke="black" points="485.577,-262.423 586.349,-262.423 "/>
<text text-anchor="start" x="493.577" y="-247.223" font-family="Times,serif" font-size="14.00">_layout</text>
</g>
<!-- ApplicationController&#45;&gt;SitesController -->
<g id="edge7" class="edge"><title>ApplicationController&#45;&gt;SitesController</title>
<path fill="none" stroke="black" d="M423.687,-328.139C445.112,-328.002 466.931,-327.863 485.567,-327.744"/>
</g>
<!-- StakeholderTypesController -->
<g id="node10" class="node"><title>StakeholderTypesController</title>
<path fill="none" stroke="black" d="M12,-0.5C12,-0.5 161.65,-0.5 161.65,-0.5 167.65,-0.5 173.65,-6.5 173.65,-12.5 173.65,-12.5 173.65,-162.5 173.65,-162.5 173.65,-168.5 167.65,-174.5 161.65,-174.5 161.65,-174.5 12,-174.5 12,-174.5 6,-174.5 0,-168.5 0,-162.5 0,-162.5 0,-12.5 0,-12.5 0,-6.5 6,-0.5 12,-0.5"/>
<text text-anchor="middle" x="86.8252" y="-159.3" font-family="Times,serif" font-size="14.00">StakeholderTypesController</text>
<polyline fill="none" stroke="black" points="0,-152.5 173.65,-152.5 "/>
<text text-anchor="start" x="8" y="-137.3" font-family="Times,serif" font-size="14.00">create</text>
<text text-anchor="start" x="8" y="-123.3" font-family="Times,serif" font-size="14.00">destroy</text>
<text text-anchor="start" x="8" y="-109.3" font-family="Times,serif" font-size="14.00">edit</text>
<text text-anchor="start" x="8" y="-95.3" font-family="Times,serif" font-size="14.00">index</text>
<text text-anchor="start" x="8" y="-81.3" font-family="Times,serif" font-size="14.00">new</text>
<text text-anchor="start" x="8" y="-67.3" font-family="Times,serif" font-size="14.00">show</text>
<text text-anchor="start" x="8" y="-53.3" font-family="Times,serif" font-size="14.00">update</text>
<polyline fill="none" stroke="black" points="0,-46.5 173.65,-46.5 "/>
<polyline fill="none" stroke="black" points="0,-22.5 173.65,-22.5 "/>
<text text-anchor="start" x="8" y="-7.3" font-family="Times,serif" font-size="14.00">_layout</text>
</g>
<!-- ApplicationController&#45;&gt;StakeholderTypesController -->
<g id="edge8" class="edge"><title>ApplicationController&#45;&gt;StakeholderTypesController</title>
<path fill="none" stroke="black" d="M279.256,-283.615C250.166,-255.102 211.976,-217.377 178.646,-183.492 175.816,-180.614 172.944,-177.682 170.048,-174.715"/>
</g>
<!-- StakeholdersController -->
<g id="node11" class="node"><title>StakeholdersController</title>
<path fill="none" stroke="black" d="M501.087,-0.622309C501.087,-0.622309 622.949,-0.622309 622.949,-0.622309 628.949,-0.622309 634.949,-6.62231 634.949,-12.6223 634.949,-12.6223 634.949,-162.622 634.949,-162.622 634.949,-168.622 628.949,-174.622 622.949,-174.622 622.949,-174.622 501.087,-174.622 501.087,-174.622 495.087,-174.622 489.087,-168.622 489.087,-162.622 489.087,-162.622 489.087,-12.6223 489.087,-12.6223 489.087,-6.62231 495.087,-0.622309 501.087,-0.622309"/>
<text text-anchor="middle" x="562.018" y="-159.422" font-family="Times,serif" font-size="14.00">StakeholdersController</text>
<polyline fill="none" stroke="black" points="489.087,-152.622 634.949,-152.622 "/>
<text text-anchor="start" x="497.087" y="-137.422" font-family="Times,serif" font-size="14.00">create</text>
<text text-anchor="start" x="497.087" y="-123.422" font-family="Times,serif" font-size="14.00">destroy</text>
<text text-anchor="start" x="497.087" y="-109.422" font-family="Times,serif" font-size="14.00">edit</text>
<text text-anchor="start" x="497.087" y="-95.4223" font-family="Times,serif" font-size="14.00">index</text>
<text text-anchor="start" x="497.087" y="-81.4223" font-family="Times,serif" font-size="14.00">new</text>
<text text-anchor="start" x="497.087" y="-67.4223" font-family="Times,serif" font-size="14.00">show</text>
<text text-anchor="start" x="497.087" y="-53.4223" font-family="Times,serif" font-size="14.00">update</text>
<polyline fill="none" stroke="black" points="489.087,-46.6223 634.949,-46.6223 "/>
<polyline fill="none" stroke="black" points="489.087,-22.6223 634.949,-22.6223 "/>
<text text-anchor="start" x="497.087" y="-7.42231" font-family="Times,serif" font-size="14.00">_layout</text>
</g>
<!-- ApplicationController&#45;&gt;StakeholdersController -->
<g id="edge9" class="edge"><title>ApplicationController&#45;&gt;StakeholdersController</title>
<path fill="none" stroke="black" d="M369.774,-283.69C403.189,-249.61 449.806,-202.065 488.767,-162.33"/>
</g>
<!-- StructuresController -->
<g id="node12" class="node"><title>StructuresController</title>
<path fill="none" stroke="black" d="M345.158,-4.12704C345.158,-4.12704 451.468,-4.12704 451.468,-4.12704 457.468,-4.12704 463.468,-10.127 463.468,-16.127 463.468,-16.127 463.468,-166.127 463.468,-166.127 463.468,-172.127 457.468,-178.127 451.468,-178.127 451.468,-178.127 345.158,-178.127 345.158,-178.127 339.158,-178.127 333.158,-172.127 333.158,-166.127 333.158,-166.127 333.158,-16.127 333.158,-16.127 333.158,-10.127 339.158,-4.12704 345.158,-4.12704"/>
<text text-anchor="middle" x="398.313" y="-162.927" font-family="Times,serif" font-size="14.00">StructuresController</text>
<polyline fill="none" stroke="black" points="333.158,-156.127 463.468,-156.127 "/>
<text text-anchor="start" x="341.158" y="-140.927" font-family="Times,serif" font-size="14.00">create</text>
<text text-anchor="start" x="341.158" y="-126.927" font-family="Times,serif" font-size="14.00">destroy</text>
<text text-anchor="start" x="341.158" y="-112.927" font-family="Times,serif" font-size="14.00">edit</text>
<text text-anchor="start" x="341.158" y="-98.927" font-family="Times,serif" font-size="14.00">index</text>
<text text-anchor="start" x="341.158" y="-84.927" font-family="Times,serif" font-size="14.00">new</text>
<text text-anchor="start" x="341.158" y="-70.927" font-family="Times,serif" font-size="14.00">show</text>
<text text-anchor="start" x="341.158" y="-56.927" font-family="Times,serif" font-size="14.00">update</text>
<polyline fill="none" stroke="black" points="333.158,-50.127 463.468,-50.127 "/>
<polyline fill="none" stroke="black" points="333.158,-26.127 463.468,-26.127 "/>
<text text-anchor="start" x="341.158" y="-10.927" font-family="Times,serif" font-size="14.00">_layout</text>
</g>
<!-- ApplicationController&#45;&gt;StructuresController -->
<g id="edge10" class="edge"><title>ApplicationController&#45;&gt;StructuresController</title>
<path fill="none" stroke="black" d="M339.43,-283.507C348.498,-253.881 360.645,-214.195 371.55,-178.565"/>
</g>
</g>
</svg>
