<?xml version="1.0" encoding="UTF-8" standalone="no"?>
<!DOCTYPE svg PUBLIC "-//W3C//DTD SVG 1.1//EN"
 "http://www.w3.org/Graphics/SVG/1.1/DTD/svg11.dtd">
<!-- Generated by graphviz version 2.36.0 (20140111.2315)
 -->
<!-- Title: controllers_diagram Pages: 1 -->
<svg width="891pt" height="674pt"
 viewBox="0.00 0.00 891.38 674.24" xmlns="http://www.w3.org/2000/svg" xmlns:xlink="http://www.w3.org/1999/xlink">
<g id="graph0" class="graph" transform="scale(1 1) rotate(0) translate(4 670.237)">
<title>controllers_diagram</title>
<polygon fill="white" stroke="none" points="-4,4 -4,-670.237 887.375,-670.237 887.375,4 -4,4"/>
<!-- _diagram_info -->
<g id="node1" class="node"><title>_diagram_info</title>
<text text-anchor="start" x="684" y="-318.6" font-family="Times,serif" font-size="13.00">Controllers diagram</text>
<text text-anchor="start" x="684" y="-305.6" font-family="Times,serif" font-size="13.00">Date: Feb 19 2014 &#45; 18:48</text>
<text text-anchor="start" x="684" y="-292.6" font-family="Times,serif" font-size="13.00">Migration version: 20140220022647</text>
<text text-anchor="start" x="684" y="-279.6" font-family="Times,serif" font-size="13.00">Generated by RailRoady 1.1.1</text>
<text text-anchor="start" x="684" y="-266.6" font-family="Times,serif" font-size="13.00">http://railroady.prestonlee.com</text>
</g>
<!-- ApplicationController -->
<g id="node2" class="node"><title>ApplicationController</title>
<path fill="none" stroke="black" d="M243.662,-288.255C243.662,-288.255 415.296,-288.255 415.296,-288.255 421.296,-288.255 427.296,-294.255 427.296,-300.255 427.296,-300.255 427.296,-366.255 427.296,-366.255 427.296,-372.255 421.296,-378.255 415.296,-378.255 415.296,-378.255 243.662,-378.255 243.662,-378.255 237.662,-378.255 231.662,-372.255 231.662,-366.255 231.662,-366.255 231.662,-300.255 231.662,-300.255 231.662,-294.255 237.662,-288.255 243.662,-288.255"/>
<text text-anchor="middle" x="329.479" y="-363.055" font-family="Times,serif" font-size="14.00">ApplicationController</text>
<polyline fill="none" stroke="black" points="231.662,-356.255 427.296,-356.255 "/>
<text text-anchor="start" x="239.662" y="-341.055" font-family="Times,serif" font-size="14.00">_one_time_conditions_valid_8?</text>
<polyline fill="none" stroke="black" points="231.662,-334.255 427.296,-334.255 "/>
<polyline fill="none" stroke="black" points="231.662,-310.255 427.296,-310.255 "/>
<text text-anchor="start" x="239.662" y="-295.055" font-family="Times,serif" font-size="14.00">_layout</text>
</g>
<!-- ClientTypesController -->
<g id="node3" class="node"><title>ClientTypesController</title>
<path fill="none" stroke="black" d="M511.714,-488.846C511.714,-488.846 628.716,-488.846 628.716,-488.846 634.716,-488.846 640.716,-494.846 640.716,-500.846 640.716,-500.846 640.716,-650.846 640.716,-650.846 640.716,-656.846 634.716,-662.846 628.716,-662.846 628.716,-662.846 511.714,-662.846 511.714,-662.846 505.714,-662.846 499.714,-656.846 499.714,-650.846 499.714,-650.846 499.714,-500.846 499.714,-500.846 499.714,-494.846 505.714,-488.846 511.714,-488.846"/>
<text text-anchor="middle" x="570.215" y="-647.646" font-family="Times,serif" font-size="14.00">ClientTypesController</text>
<polyline fill="none" stroke="black" points="499.714,-640.846 640.716,-640.846 "/>
<text text-anchor="start" x="507.714" y="-625.646" font-family="Times,serif" font-size="14.00">create</text>
<text text-anchor="start" x="507.714" y="-611.646" font-family="Times,serif" font-size="14.00">destroy</text>
<text text-anchor="start" x="507.714" y="-597.646" font-family="Times,serif" font-size="14.00">edit</text>
<text text-anchor="start" x="507.714" y="-583.646" font-family="Times,serif" font-size="14.00">index</text>
<text text-anchor="start" x="507.714" y="-569.646" font-family="Times,serif" font-size="14.00">new</text>
<text text-anchor="start" x="507.714" y="-555.646" font-family="Times,serif" font-size="14.00">show</text>
<text text-anchor="start" x="507.714" y="-541.646" font-family="Times,serif" font-size="14.00">update</text>
<polyline fill="none" stroke="black" points="499.714,-534.846 640.716,-534.846 "/>
<polyline fill="none" stroke="black" points="499.714,-510.846 640.716,-510.846 "/>
<text text-anchor="start" x="507.714" y="-495.646" font-family="Times,serif" font-size="14.00">_layout</text>
</g>
<!-- ApplicationController&#45;&gt;ClientTypesController -->
<g id="edge1" class="edge"><title>ApplicationController&#45;&gt;ClientTypesController</title>
<path fill="none" stroke="black" d="M374.195,-378.316C409.277,-413.667 458.777,-463.548 499.256,-504.339"/>
</g>
<!-- CompaniesController -->
<g id="node4" class="node"><title>CompaniesController</title>
<path fill="none" stroke="black" d="M193.778,-6.66548C193.778,-6.66548 306.316,-6.66548 306.316,-6.66548 312.316,-6.66548 318.316,-12.6655 318.316,-18.6655 318.316,-18.6655 318.316,-168.665 318.316,-168.665 318.316,-174.665 312.316,-180.665 306.316,-180.665 306.316,-180.665 193.778,-180.665 193.778,-180.665 187.778,-180.665 181.778,-174.665 181.778,-168.665 181.778,-168.665 181.778,-18.6655 181.778,-18.6655 181.778,-12.6655 187.778,-6.66548 193.778,-6.66548"/>
<text text-anchor="middle" x="250.047" y="-165.465" font-family="Times,serif" font-size="14.00">CompaniesController</text>
<polyline fill="none" stroke="black" points="181.778,-158.665 318.316,-158.665 "/>
<text text-anchor="start" x="189.778" y="-143.465" font-family="Times,serif" font-size="14.00">create</text>
<text text-anchor="start" x="189.778" y="-129.465" font-family="Times,serif" font-size="14.00">destroy</text>
<text text-anchor="start" x="189.778" y="-115.465" font-family="Times,serif" font-size="14.00">edit</text>
<text text-anchor="start" x="189.778" y="-101.465" font-family="Times,serif" font-size="14.00">index</text>
<text text-anchor="start" x="189.778" y="-87.4655" font-family="Times,serif" font-size="14.00">new</text>
<text text-anchor="start" x="189.778" y="-73.4655" font-family="Times,serif" font-size="14.00">show</text>
<text text-anchor="start" x="189.778" y="-59.4655" font-family="Times,serif" font-size="14.00">update</text>
<polyline fill="none" stroke="black" points="181.778,-52.6655 318.316,-52.6655 "/>
<polyline fill="none" stroke="black" points="181.778,-28.6655 318.316,-28.6655 "/>
<text text-anchor="start" x="189.778" y="-13.4655" font-family="Times,serif" font-size="14.00">_layout</text>
</g>
<!-- ApplicationController&#45;&gt;CompaniesController -->
<g id="edge2" class="edge"><title>ApplicationController&#45;&gt;CompaniesController</title>
<path fill="none" stroke="black" d="M314.538,-288.19C304.517,-257.961 290.991,-217.163 278.914,-180.737"/>
</g>
<!-- FaultsController -->
<g id="node5" class="node"><title>FaultsController</title>
<path fill="none" stroke="black" d="M208.765,-482.937C208.765,-482.937 292.538,-482.937 292.538,-482.937 298.538,-482.937 304.538,-488.937 304.538,-494.937 304.538,-494.937 304.538,-644.937 304.538,-644.937 304.538,-650.937 298.538,-656.937 292.538,-656.937 292.538,-656.937 208.765,-656.937 208.765,-656.937 202.765,-656.937 196.765,-650.937 196.765,-644.937 196.765,-644.937 196.765,-494.937 196.765,-494.937 196.765,-488.937 202.765,-482.937 208.765,-482.937"/>
<text text-anchor="middle" x="250.652" y="-641.737" font-family="Times,serif" font-size="14.00">FaultsController</text>
<polyline fill="none" stroke="black" points="196.765,-634.937 304.538,-634.937 "/>
<text text-anchor="start" x="204.765" y="-619.737" font-family="Times,serif" font-size="14.00">create</text>
<text text-anchor="start" x="204.765" y="-605.737" font-family="Times,serif" font-size="14.00">destroy</text>
<text text-anchor="start" x="204.765" y="-591.737" font-family="Times,serif" font-size="14.00">edit</text>
<text text-anchor="start" x="204.765" y="-577.737" font-family="Times,serif" font-size="14.00">index</text>
<text text-anchor="start" x="204.765" y="-563.737" font-family="Times,serif" font-size="14.00">new</text>
<text text-anchor="start" x="204.765" y="-549.737" font-family="Times,serif" font-size="14.00">show</text>
<text text-anchor="start" x="204.765" y="-535.737" font-family="Times,serif" font-size="14.00">update</text>
<polyline fill="none" stroke="black" points="196.765,-528.937 304.538,-528.937 "/>
<polyline fill="none" stroke="black" points="196.765,-504.937 304.538,-504.937 "/>
<text text-anchor="start" x="204.765" y="-489.737" font-family="Times,serif" font-size="14.00">_layout</text>
</g>
<!-- ApplicationController&#45;&gt;FaultsController -->
<g id="edge3" class="edge"><title>ApplicationController&#45;&gt;FaultsController</title>
<path fill="none" stroke="black" d="M314.467,-378.33C304.639,-407.837 291.475,-447.363 279.656,-482.85"/>
</g>
<!-- PhasesController -->
<g id="node6" class="node"><title>PhasesController</title>
<path fill="none" stroke="black" d="M363.021,-489.914C363.021,-489.914 450.676,-489.914 450.676,-489.914 456.676,-489.914 462.676,-495.914 462.676,-501.914 462.676,-501.914 462.676,-651.914 462.676,-651.914 462.676,-657.914 456.676,-663.914 450.676,-663.914 450.676,-663.914 363.021,-663.914 363.021,-663.914 357.021,-663.914 351.021,-657.914 351.021,-651.914 351.021,-651.914 351.021,-501.914 351.021,-501.914 351.021,-495.914 357.021,-489.914 363.021,-489.914"/>
<text text-anchor="middle" x="406.849" y="-648.714" font-family="Times,serif" font-size="14.00">PhasesController</text>
<polyline fill="none" stroke="black" points="351.021,-641.914 462.676,-641.914 "/>
<text text-anchor="start" x="359.021" y="-626.714" font-family="Times,serif" font-size="14.00">create</text>
<text text-anchor="start" x="359.021" y="-612.714" font-family="Times,serif" font-size="14.00">destroy</text>
<text text-anchor="start" x="359.021" y="-598.714" font-family="Times,serif" font-size="14.00">edit</text>
<text text-anchor="start" x="359.021" y="-584.714" font-family="Times,serif" font-size="14.00">index</text>
<text text-anchor="start" x="359.021" y="-570.714" font-family="Times,serif" font-size="14.00">new</text>
<text text-anchor="start" x="359.021" y="-556.714" font-family="Times,serif" font-size="14.00">show</text>
<text text-anchor="start" x="359.021" y="-542.714" font-family="Times,serif" font-size="14.00">update</text>
<polyline fill="none" stroke="black" points="351.021,-535.914 462.676,-535.914 "/>
<polyline fill="none" stroke="black" points="351.021,-511.914 462.676,-511.914 "/>
<text text-anchor="start" x="359.021" y="-496.714" font-family="Times,serif" font-size="14.00">_layout</text>
</g>
<!-- ApplicationController&#45;&gt;PhasesController -->
<g id="edge4" class="edge"><title>ApplicationController&#45;&gt;PhasesController</title>
<path fill="none" stroke="black" d="M343.85,-378.514C353.727,-409.618 367.159,-451.919 379.083,-489.472"/>
</g>
<!-- ProjectManagersController -->
<g id="node7" class="node"><title>ProjectManagersController</title>
<path fill="none" stroke="black" d="M15.1,-491.737C15.1,-491.737 159.5,-491.737 159.5,-491.737 165.5,-491.737 171.5,-497.737 171.5,-503.737 171.5,-503.737 171.5,-653.737 171.5,-653.737 171.5,-659.737 165.5,-665.737 159.5,-665.737 159.5,-665.737 15.1,-665.737 15.1,-665.737 9.10002,-665.737 3.10002,-659.737 3.10002,-653.737 3.10002,-653.737 3.10002,-503.737 3.10002,-503.737 3.10002,-497.737 9.10002,-491.737 15.1,-491.737"/>
<text text-anchor="middle" x="87.3002" y="-650.537" font-family="Times,serif" font-size="14.00">ProjectManagersController</text>
<polyline fill="none" stroke="black" points="3.10002,-643.737 171.5,-643.737 "/>
<text text-anchor="start" x="11.1" y="-628.537" font-family="Times,serif" font-size="14.00">create</text>
<text text-anchor="start" x="11.1" y="-614.537" font-family="Times,serif" font-size="14.00">destroy</text>
<text text-anchor="start" x="11.1" y="-600.537" font-family="Times,serif" font-size="14.00">edit</text>
<text text-anchor="start" x="11.1" y="-586.537" font-family="Times,serif" font-size="14.00">index</text>
<text text-anchor="start" x="11.1" y="-572.537" font-family="Times,serif" font-size="14.00">new</text>
<text text-anchor="start" x="11.1" y="-558.537" font-family="Times,serif" font-size="14.00">show</text>
<text text-anchor="start" x="11.1" y="-544.537" font-family="Times,serif" font-size="14.00">update</text>
<polyline fill="none" stroke="black" points="3.10002,-537.737 171.5,-537.737 "/>
<polyline fill="none" stroke="black" points="3.10002,-513.737 171.5,-513.737 "/>
<text text-anchor="start" x="11.1" y="-498.537" font-family="Times,serif" font-size="14.00">_layout</text>
</g>
<!-- ApplicationController&#45;&gt;ProjectManagersController -->
<g id="edge5" class="edge"><title>ApplicationController&#45;&gt;ProjectManagersController</title>
<path fill="none" stroke="black" d="M285.06,-378.28C253.379,-410.392 209.805,-454.561 171.62,-493.267"/>
</g>
<!-- ProjectsController -->
<g id="node8" class="node"><title>ProjectsController</title>
<path fill="none" stroke="black" d="M65.1558,-245.872C65.1558,-245.872 159.804,-245.872 159.804,-245.872 165.804,-245.872 171.804,-251.872 171.804,-257.872 171.804,-257.872 171.804,-407.872 171.804,-407.872 171.804,-413.872 165.804,-419.872 159.804,-419.872 159.804,-419.872 65.1558,-419.872 65.1558,-419.872 59.1558,-419.872 53.1558,-413.872 53.1558,-407.872 53.1558,-407.872 53.1558,-257.872 53.1558,-257.872 53.1558,-251.872 59.1558,-245.872 65.1558,-245.872"/>
<text text-anchor="middle" x="112.48" y="-404.672" font-family="Times,serif" font-size="14.00">ProjectsController</text>
<polyline fill="none" stroke="black" points="53.1558,-397.872 171.804,-397.872 "/>
<text text-anchor="start" x="61.1558" y="-382.672" font-family="Times,serif" font-size="14.00">create</text>
<text text-anchor="start" x="61.1558" y="-368.672" font-family="Times,serif" font-size="14.00">destroy</text>
<text text-anchor="start" x="61.1558" y="-354.672" font-family="Times,serif" font-size="14.00">edit</text>
<text text-anchor="start" x="61.1558" y="-340.672" font-family="Times,serif" font-size="14.00">index</text>
<text text-anchor="start" x="61.1558" y="-326.672" font-family="Times,serif" font-size="14.00">new</text>
<text text-anchor="start" x="61.1558" y="-312.672" font-family="Times,serif" font-size="14.00">show</text>
<text text-anchor="start" x="61.1558" y="-298.672" font-family="Times,serif" font-size="14.00">update</text>
<polyline fill="none" stroke="black" points="53.1558,-291.872 171.804,-291.872 "/>
<polyline fill="none" stroke="black" points="53.1558,-267.872 171.804,-267.872 "/>
<text text-anchor="start" x="61.1558" y="-252.672" font-family="Times,serif" font-size="14.00">_layout</text>
</g>
<!-- ApplicationController&#45;&gt;ProjectsController -->
<g id="edge6" class="edge"><title>ApplicationController&#45;&gt;ProjectsController</title>
<path fill="none" stroke="black" d="M231.455,-333.082C211.125,-333.046 190.301,-333.009 171.872,-332.976"/>
</g>
<!-- SitesController -->
<g id="node9" class="node"><title>SitesController</title>
<path fill="none" stroke="black" d="M505.27,-244.888C505.27,-244.888 582.043,-244.888 582.043,-244.888 588.043,-244.888 594.043,-250.888 594.043,-256.888 594.043,-256.888 594.043,-406.888 594.043,-406.888 594.043,-412.888 588.043,-418.888 582.043,-418.888 582.043,-418.888 505.27,-418.888 505.27,-418.888 499.27,-418.888 493.27,-412.888 493.27,-406.888 493.27,-406.888 493.27,-256.888 493.27,-256.888 493.27,-250.888 499.27,-244.888 505.27,-244.888"/>
<text text-anchor="middle" x="543.657" y="-403.688" font-family="Times,serif" font-size="14.00">SitesController</text>
<polyline fill="none" stroke="black" points="493.27,-396.888 594.043,-396.888 "/>
<text text-anchor="start" x="501.27" y="-381.688" font-family="Times,serif" font-size="14.00">create</text>
<text text-anchor="start" x="501.27" y="-367.688" font-family="Times,serif" font-size="14.00">destroy</text>
<text text-anchor="start" x="501.27" y="-353.688" font-family="Times,serif" font-size="14.00">edit</text>
<text text-anchor="start" x="501.27" y="-339.688" font-family="Times,serif" font-size="14.00">index</text>
<text text-anchor="start" x="501.27" y="-325.688" font-family="Times,serif" font-size="14.00">new</text>
<text text-anchor="start" x="501.27" y="-311.688" font-family="Times,serif" font-size="14.00">show</text>
<text text-anchor="start" x="501.27" y="-297.688" font-family="Times,serif" font-size="14.00">update</text>
<polyline fill="none" stroke="black" points="493.27,-290.888 594.043,-290.888 "/>
<polyline fill="none" stroke="black" points="493.27,-266.888 594.043,-266.888 "/>
<text text-anchor="start" x="501.27" y="-251.688" font-family="Times,serif" font-size="14.00">_layout</text>
</g>
<!-- ApplicationController&#45;&gt;SitesController -->
<g id="edge7" class="edge"><title>ApplicationController&#45;&gt;SitesController</title>
<path fill="none" stroke="black" d="M427.479,-332.629C450.17,-332.484 473.408,-332.336 493.081,-332.21"/>
</g>
<!-- StakeholderTypesController -->
<g id="node10" class="node"><title>StakeholderTypesController</title>
<path fill="none" stroke="black" d="M12,-0.5C12,-0.5 161.65,-0.5 161.65,-0.5 167.65,-0.5 173.65,-6.5 173.65,-12.5 173.65,-12.5 173.65,-162.5 173.65,-162.5 173.65,-168.5 167.65,-174.5 161.65,-174.5 161.65,-174.5 12,-174.5 12,-174.5 6,-174.5 -2.84217e-14,-168.5 -2.84217e-14,-162.5 -2.84217e-14,-162.5 -2.84217e-14,-12.5 -2.84217e-14,-12.5 -2.84217e-14,-6.5 6,-0.5 12,-0.5"/>
<text text-anchor="middle" x="86.8252" y="-159.3" font-family="Times,serif" font-size="14.00">StakeholderTypesController</text>
<polyline fill="none" stroke="black" points="-2.84217e-14,-152.5 173.65,-152.5 "/>
<text text-anchor="start" x="8" y="-137.3" font-family="Times,serif" font-size="14.00">create</text>
<text text-anchor="start" x="8" y="-123.3" font-family="Times,serif" font-size="14.00">destroy</text>
<text text-anchor="start" x="8" y="-109.3" font-family="Times,serif" font-size="14.00">edit</text>
<text text-anchor="start" x="8" y="-95.3" font-family="Times,serif" font-size="14.00">index</text>
<text text-anchor="start" x="8" y="-81.3" font-family="Times,serif" font-size="14.00">new</text>
<text text-anchor="start" x="8" y="-67.3" font-family="Times,serif" font-size="14.00">show</text>
<text text-anchor="start" x="8" y="-53.3" font-family="Times,serif" font-size="14.00">update</text>
<polyline fill="none" stroke="black" points="-2.84217e-14,-46.5 173.65,-46.5 "/>
<polyline fill="none" stroke="black" points="-2.84217e-14,-22.5 173.65,-22.5 "/>
<text text-anchor="start" x="8" y="-7.3" font-family="Times,serif" font-size="14.00">_layout</text>
</g>
<!-- ApplicationController&#45;&gt;StakeholderTypesController -->
<g id="edge8" class="edge"><title>ApplicationController&#45;&gt;StakeholderTypesController</title>
<path fill="none" stroke="black" d="M283.231,-288.167C253.186,-258.705 213.295,-219.266 178.578,-183.865 175.585,-180.814 172.546,-177.701 169.483,-174.55"/>
</g>
<!-- StakeholdersController -->
<g id="node11" class="node"><title>StakeholdersController</title>
<path fill="none" stroke="black" d="M508.603,-0.649056C508.603,-0.649056 630.465,-0.649056 630.465,-0.649056 636.465,-0.649056 642.465,-6.64906 642.465,-12.6491 642.465,-12.6491 642.465,-162.649 642.465,-162.649 642.465,-168.649 636.465,-174.649 630.465,-174.649 630.465,-174.649 508.603,-174.649 508.603,-174.649 502.603,-174.649 496.603,-168.649 496.603,-162.649 496.603,-162.649 496.603,-12.6491 496.603,-12.6491 496.603,-6.64906 502.603,-0.649056 508.603,-0.649056"/>
<text text-anchor="middle" x="569.534" y="-159.449" font-family="Times,serif" font-size="14.00">StakeholdersController</text>
<polyline fill="none" stroke="black" points="496.603,-152.649 642.465,-152.649 "/>
<text text-anchor="start" x="504.603" y="-137.449" font-family="Times,serif" font-size="14.00">create</text>
<text text-anchor="start" x="504.603" y="-123.449" font-family="Times,serif" font-size="14.00">destroy</text>
<text text-anchor="start" x="504.603" y="-109.449" font-family="Times,serif" font-size="14.00">edit</text>
<text text-anchor="start" x="504.603" y="-95.4491" font-family="Times,serif" font-size="14.00">index</text>
<text text-anchor="start" x="504.603" y="-81.4491" font-family="Times,serif" font-size="14.00">new</text>
<text text-anchor="start" x="504.603" y="-67.4491" font-family="Times,serif" font-size="14.00">show</text>
<text text-anchor="start" x="504.603" y="-53.4491" font-family="Times,serif" font-size="14.00">update</text>
<polyline fill="none" stroke="black" points="496.603,-46.6491 642.465,-46.6491 "/>
<polyline fill="none" stroke="black" points="496.603,-22.6491 642.465,-22.6491 "/>
<text text-anchor="start" x="504.603" y="-7.44906" font-family="Times,serif" font-size="14.00">_layout</text>
</g>
<!-- ApplicationController&#45;&gt;StakeholdersController -->
<g id="edge9" class="edge"><title>ApplicationController&#45;&gt;StakeholdersController</title>
<path fill="none" stroke="black" d="M379.263,-287.927C411.137,-258.359 452.973,-218.522 488.198,-181.529 490.875,-178.718 493.578,-175.838 496.289,-172.912"/>
</g>
<!-- StructureTypesController -->
<g id="node12" class="node"><title>StructureTypesController</title>
<path fill="none" stroke="black" d="M338.9,-4.32863C338.9,-4.32863 472.998,-4.32863 472.998,-4.32863 478.998,-4.32863 484.998,-10.3286 484.998,-16.3286 484.998,-16.3286 484.998,-166.329 484.998,-166.329 484.998,-172.329 478.998,-178.329 472.998,-178.329 472.998,-178.329 338.9,-178.329 338.9,-178.329 332.9,-178.329 326.9,-172.329 326.9,-166.329 326.9,-166.329 326.9,-16.3286 326.9,-16.3286 326.9,-10.3286 332.9,-4.32863 338.9,-4.32863"/>
<text text-anchor="middle" x="405.949" y="-163.129" font-family="Times,serif" font-size="14.00">StructureTypesController</text>
<polyline fill="none" stroke="black" points="326.9,-156.329 484.998,-156.329 "/>
<text text-anchor="start" x="334.9" y="-141.129" font-family="Times,serif" font-size="14.00">create</text>
<text text-anchor="start" x="334.9" y="-127.129" font-family="Times,serif" font-size="14.00">destroy</text>
<text text-anchor="start" x="334.9" y="-113.129" font-family="Times,serif" font-size="14.00">edit</text>
<text text-anchor="start" x="334.9" y="-99.1286" font-family="Times,serif" font-size="14.00">index</text>
<text text-anchor="start" x="334.9" y="-85.1286" font-family="Times,serif" font-size="14.00">new</text>
<text text-anchor="start" x="334.9" y="-71.1286" font-family="Times,serif" font-size="14.00">show</text>
<text text-anchor="start" x="334.9" y="-57.1286" font-family="Times,serif" font-size="14.00">update</text>
<polyline fill="none" stroke="black" points="326.9,-50.3286 484.998,-50.3286 "/>
<polyline fill="none" stroke="black" points="326.9,-26.3286 484.998,-26.3286 "/>
<text text-anchor="start" x="334.9" y="-11.1286" font-family="Times,serif" font-size="14.00">_layout</text>
</g>
<!-- ApplicationController&#45;&gt;StructureTypesController -->
<g id="edge10" class="edge"><title>ApplicationController&#45;&gt;StructureTypesController</title>
<path fill="none" stroke="black" d="M343.773,-288.034C353.499,-257.263 366.684,-215.549 378.41,-178.452"/>
</g>
</g>
</svg>
