<?xml version="1.0" encoding="UTF-8" standalone="no"?>
<!DOCTYPE svg PUBLIC "-//W3C//DTD SVG 1.1//EN"
 "http://www.w3.org/Graphics/SVG/1.1/DTD/svg11.dtd">
<!-- Generated by graphviz version 2.36.0 (20140111.2315)
 -->
<!-- Title: controllers_diagram Pages: 1 -->
<svg width="743pt" height="591pt"
 viewBox="0.00 0.00 743.38 591.19" xmlns="http://www.w3.org/2000/svg" xmlns:xlink="http://www.w3.org/1999/xlink">
<g id="graph0" class="graph" transform="scale(1 1) rotate(0) translate(4 587.187)">
<title>controllers_diagram</title>
<polygon fill="white" stroke="none" points="-4,4 -4,-587.187 739.375,-587.187 739.375,4 -4,4"/>
<!-- _diagram_info -->
<g id="node1" class="node"><title>_diagram_info</title>
<text text-anchor="start" x="536" y="-542.6" font-family="Times,serif" font-size="13.00">Controllers diagram</text>
<text text-anchor="start" x="536" y="-529.6" font-family="Times,serif" font-size="13.00">Date: Feb 19 2014 &#45; 18:24</text>
<text text-anchor="start" x="536" y="-516.6" font-family="Times,serif" font-size="13.00">Migration version: 20140220012509</text>
<text text-anchor="start" x="536" y="-503.6" font-family="Times,serif" font-size="13.00">Generated by RailRoady 1.1.1</text>
<text text-anchor="start" x="536" y="-490.6" font-family="Times,serif" font-size="13.00">http://railroady.prestonlee.com</text>
</g>
<!-- ApplicationController -->
<g id="node2" class="node"><title>ApplicationController</title>
<path fill="none" stroke="black" d="M156.529,-253.434C156.529,-253.434 328.163,-253.434 328.163,-253.434 334.163,-253.434 340.163,-259.434 340.163,-265.434 340.163,-265.434 340.163,-331.434 340.163,-331.434 340.163,-337.434 334.163,-343.434 328.163,-343.434 328.163,-343.434 156.529,-343.434 156.529,-343.434 150.529,-343.434 144.529,-337.434 144.529,-331.434 144.529,-331.434 144.529,-265.434 144.529,-265.434 144.529,-259.434 150.529,-253.434 156.529,-253.434"/>
<text text-anchor="middle" x="242.346" y="-328.234" font-family="Times,serif" font-size="14.00">ApplicationController</text>
<polyline fill="none" stroke="black" points="144.529,-321.434 340.163,-321.434 "/>
<text text-anchor="start" x="152.529" y="-306.234" font-family="Times,serif" font-size="14.00">_one_time_conditions_valid_8?</text>
<polyline fill="none" stroke="black" points="144.529,-299.434 340.163,-299.434 "/>
<polyline fill="none" stroke="black" points="144.529,-275.434 340.163,-275.434 "/>
<text text-anchor="start" x="152.529" y="-260.234" font-family="Times,serif" font-size="14.00">_layout</text>
</g>
<!-- ClientTypesController -->
<g id="node3" class="node"><title>ClientTypesController</title>
<path fill="none" stroke="black" d="M360.933,-214.844C360.933,-214.844 477.935,-214.844 477.935,-214.844 483.935,-214.844 489.935,-220.844 489.935,-226.844 489.935,-226.844 489.935,-376.844 489.935,-376.844 489.935,-382.844 483.935,-388.844 477.935,-388.844 477.935,-388.844 360.933,-388.844 360.933,-388.844 354.933,-388.844 348.933,-382.844 348.933,-376.844 348.933,-376.844 348.933,-226.844 348.933,-226.844 348.933,-220.844 354.933,-214.844 360.933,-214.844"/>
<text text-anchor="middle" x="419.434" y="-373.644" font-family="Times,serif" font-size="14.00">ClientTypesController</text>
<polyline fill="none" stroke="black" points="348.933,-366.844 489.935,-366.844 "/>
<text text-anchor="start" x="356.933" y="-351.644" font-family="Times,serif" font-size="14.00">create</text>
<text text-anchor="start" x="356.933" y="-337.644" font-family="Times,serif" font-size="14.00">destroy</text>
<text text-anchor="start" x="356.933" y="-323.644" font-family="Times,serif" font-size="14.00">edit</text>
<text text-anchor="start" x="356.933" y="-309.644" font-family="Times,serif" font-size="14.00">index</text>
<text text-anchor="start" x="356.933" y="-295.644" font-family="Times,serif" font-size="14.00">new</text>
<text text-anchor="start" x="356.933" y="-281.644" font-family="Times,serif" font-size="14.00">show</text>
<text text-anchor="start" x="356.933" y="-267.644" font-family="Times,serif" font-size="14.00">update</text>
<polyline fill="none" stroke="black" points="348.933,-260.844 489.935,-260.844 "/>
<polyline fill="none" stroke="black" points="348.933,-236.844 489.935,-236.844 "/>
<text text-anchor="start" x="356.933" y="-221.644" font-family="Times,serif" font-size="14.00">_layout</text>
</g>
<!-- ApplicationController&#45;&gt;ClientTypesController -->
<g id="edge1" class="edge"><title>ApplicationController&#45;&gt;ClientTypesController</title>
<path fill="none" stroke="black" d="M340.213,-300.318C343.093,-300.374 345.959,-300.429 348.8,-300.484"/>
</g>
<!-- CompaniesController -->
<g id="node4" class="node"><title>CompaniesController</title>
<path fill="none" stroke="black" d="M12,-0.5C12,-0.5 124.538,-0.5 124.538,-0.5 130.538,-0.5 136.538,-6.5 136.538,-12.5 136.538,-12.5 136.538,-162.5 136.538,-162.5 136.538,-168.5 130.538,-174.5 124.538,-174.5 124.538,-174.5 12,-174.5 12,-174.5 6,-174.5 0,-168.5 0,-162.5 0,-162.5 0,-12.5 0,-12.5 0,-6.5 6,-0.5 12,-0.5"/>
<text text-anchor="middle" x="68.269" y="-159.3" font-family="Times,serif" font-size="14.00">CompaniesController</text>
<polyline fill="none" stroke="black" points="0,-152.5 136.538,-152.5 "/>
<text text-anchor="start" x="8" y="-137.3" font-family="Times,serif" font-size="14.00">create</text>
<text text-anchor="start" x="8" y="-123.3" font-family="Times,serif" font-size="14.00">destroy</text>
<text text-anchor="start" x="8" y="-109.3" font-family="Times,serif" font-size="14.00">edit</text>
<text text-anchor="start" x="8" y="-95.3" font-family="Times,serif" font-size="14.00">index</text>
<text text-anchor="start" x="8" y="-81.3" font-family="Times,serif" font-size="14.00">new</text>
<text text-anchor="start" x="8" y="-67.3" font-family="Times,serif" font-size="14.00">show</text>
<text text-anchor="start" x="8" y="-53.3" font-family="Times,serif" font-size="14.00">update</text>
<polyline fill="none" stroke="black" points="0,-46.5 136.538,-46.5 "/>
<polyline fill="none" stroke="black" points="0,-22.5 136.538,-22.5 "/>
<text text-anchor="start" x="8" y="-7.3" font-family="Times,serif" font-size="14.00">_layout</text>
</g>
<!-- ApplicationController&#45;&gt;CompaniesController -->
<g id="edge2" class="edge"><title>ApplicationController&#45;&gt;CompaniesController</title>
<path fill="none" stroke="black" d="M205.002,-253.183C185.122,-229.094 160.04,-198.701 136.802,-170.544"/>
</g>
<!-- FaultsController -->
<g id="node5" class="node"><title>FaultsController</title>
<path fill="none" stroke="black" d="M16.3299,-396.073C16.3299,-396.073 100.102,-396.073 100.102,-396.073 106.102,-396.073 112.102,-402.073 112.102,-408.073 112.102,-408.073 112.102,-558.073 112.102,-558.073 112.102,-564.073 106.102,-570.073 100.102,-570.073 100.102,-570.073 16.3299,-570.073 16.3299,-570.073 10.3299,-570.073 4.32991,-564.073 4.32991,-558.073 4.32991,-558.073 4.32991,-408.073 4.32991,-408.073 4.32991,-402.073 10.3299,-396.073 16.3299,-396.073"/>
<text text-anchor="middle" x="58.2161" y="-554.873" font-family="Times,serif" font-size="14.00">FaultsController</text>
<polyline fill="none" stroke="black" points="4.32991,-548.073 112.102,-548.073 "/>
<text text-anchor="start" x="12.3299" y="-532.873" font-family="Times,serif" font-size="14.00">create</text>
<text text-anchor="start" x="12.3299" y="-518.873" font-family="Times,serif" font-size="14.00">destroy</text>
<text text-anchor="start" x="12.3299" y="-504.873" font-family="Times,serif" font-size="14.00">edit</text>
<text text-anchor="start" x="12.3299" y="-490.873" font-family="Times,serif" font-size="14.00">index</text>
<text text-anchor="start" x="12.3299" y="-476.873" font-family="Times,serif" font-size="14.00">new</text>
<text text-anchor="start" x="12.3299" y="-462.873" font-family="Times,serif" font-size="14.00">show</text>
<text text-anchor="start" x="12.3299" y="-448.873" font-family="Times,serif" font-size="14.00">update</text>
<polyline fill="none" stroke="black" points="4.32991,-442.073 112.102,-442.073 "/>
<polyline fill="none" stroke="black" points="4.32991,-418.073 112.102,-418.073 "/>
<text text-anchor="start" x="12.3299" y="-402.873" font-family="Times,serif" font-size="14.00">_layout</text>
</g>
<!-- ApplicationController&#45;&gt;FaultsController -->
<g id="edge3" class="edge"><title>ApplicationController&#45;&gt;FaultsController</title>
<path fill="none" stroke="black" d="M197.303,-343.602C171.644,-369.331 139.324,-401.74 112.299,-428.84"/>
</g>
<!-- PhasesController -->
<g id="node6" class="node"><title>PhasesController</title>
<path fill="none" stroke="black" d="M369.042,-408.687C369.042,-408.687 456.697,-408.687 456.697,-408.687 462.697,-408.687 468.697,-414.687 468.697,-420.687 468.697,-420.687 468.697,-570.687 468.697,-570.687 468.697,-576.687 462.697,-582.687 456.697,-582.687 456.697,-582.687 369.042,-582.687 369.042,-582.687 363.042,-582.687 357.042,-576.687 357.042,-570.687 357.042,-570.687 357.042,-420.687 357.042,-420.687 357.042,-414.687 363.042,-408.687 369.042,-408.687"/>
<text text-anchor="middle" x="412.87" y="-567.487" font-family="Times,serif" font-size="14.00">PhasesController</text>
<polyline fill="none" stroke="black" points="357.042,-560.687 468.697,-560.687 "/>
<text text-anchor="start" x="365.042" y="-545.487" font-family="Times,serif" font-size="14.00">create</text>
<text text-anchor="start" x="365.042" y="-531.487" font-family="Times,serif" font-size="14.00">destroy</text>
<text text-anchor="start" x="365.042" y="-517.487" font-family="Times,serif" font-size="14.00">edit</text>
<text text-anchor="start" x="365.042" y="-503.487" font-family="Times,serif" font-size="14.00">index</text>
<text text-anchor="start" x="365.042" y="-489.487" font-family="Times,serif" font-size="14.00">new</text>
<text text-anchor="start" x="365.042" y="-475.487" font-family="Times,serif" font-size="14.00">show</text>
<text text-anchor="start" x="365.042" y="-461.487" font-family="Times,serif" font-size="14.00">update</text>
<polyline fill="none" stroke="black" points="357.042,-454.687 468.697,-454.687 "/>
<polyline fill="none" stroke="black" points="357.042,-430.687 468.697,-430.687 "/>
<text text-anchor="start" x="365.042" y="-415.487" font-family="Times,serif" font-size="14.00">_layout</text>
</g>
<!-- ApplicationController&#45;&gt;PhasesController -->
<g id="edge4" class="edge"><title>ApplicationController&#45;&gt;PhasesController</title>
<path fill="none" stroke="black" d="M281.468,-343.688C303.788,-369.507 332.146,-402.31 356.8,-430.829"/>
</g>
<!-- ProjectManagersController -->
<g id="node7" class="node"><title>ProjectManagersController</title>
<path fill="none" stroke="black" d="M157.479,-408.311C157.479,-408.311 301.879,-408.311 301.879,-408.311 307.879,-408.311 313.879,-414.311 313.879,-420.311 313.879,-420.311 313.879,-570.311 313.879,-570.311 313.879,-576.311 307.879,-582.311 301.879,-582.311 301.879,-582.311 157.479,-582.311 157.479,-582.311 151.479,-582.311 145.479,-576.311 145.479,-570.311 145.479,-570.311 145.479,-420.311 145.479,-420.311 145.479,-414.311 151.479,-408.311 157.479,-408.311"/>
<text text-anchor="middle" x="229.679" y="-567.111" font-family="Times,serif" font-size="14.00">ProjectManagersController</text>
<polyline fill="none" stroke="black" points="145.479,-560.311 313.879,-560.311 "/>
<text text-anchor="start" x="153.479" y="-545.111" font-family="Times,serif" font-size="14.00">create</text>
<text text-anchor="start" x="153.479" y="-531.111" font-family="Times,serif" font-size="14.00">destroy</text>
<text text-anchor="start" x="153.479" y="-517.111" font-family="Times,serif" font-size="14.00">edit</text>
<text text-anchor="start" x="153.479" y="-503.111" font-family="Times,serif" font-size="14.00">index</text>
<text text-anchor="start" x="153.479" y="-489.111" font-family="Times,serif" font-size="14.00">new</text>
<text text-anchor="start" x="153.479" y="-475.111" font-family="Times,serif" font-size="14.00">show</text>
<text text-anchor="start" x="153.479" y="-461.111" font-family="Times,serif" font-size="14.00">update</text>
<polyline fill="none" stroke="black" points="145.479,-454.311 313.879,-454.311 "/>
<polyline fill="none" stroke="black" points="145.479,-430.311 313.879,-430.311 "/>
<text text-anchor="start" x="153.479" y="-415.111" font-family="Times,serif" font-size="14.00">_layout</text>
</g>
<!-- ApplicationController&#45;&gt;ProjectManagersController -->
<g id="edge5" class="edge"><title>ApplicationController&#45;&gt;ProjectManagersController</title>
<path fill="none" stroke="black" d="M239.44,-343.601C238.206,-362.787 236.723,-385.836 235.29,-408.108"/>
</g>
<!-- ProjectsController -->
<g id="node8" class="node"><title>ProjectsController</title>
<path fill="none" stroke="black" d="M17.9127,-191.852C17.9127,-191.852 112.561,-191.852 112.561,-191.852 118.561,-191.852 124.561,-197.852 124.561,-203.852 124.561,-203.852 124.561,-353.852 124.561,-353.852 124.561,-359.852 118.561,-365.852 112.561,-365.852 112.561,-365.852 17.9127,-365.852 17.9127,-365.852 11.9127,-365.852 5.91269,-359.852 5.91269,-353.852 5.91269,-353.852 5.91269,-203.852 5.91269,-203.852 5.91269,-197.852 11.9127,-191.852 17.9127,-191.852"/>
<text text-anchor="middle" x="65.2369" y="-350.652" font-family="Times,serif" font-size="14.00">ProjectsController</text>
<polyline fill="none" stroke="black" points="5.91269,-343.852 124.561,-343.852 "/>
<text text-anchor="start" x="13.9127" y="-328.652" font-family="Times,serif" font-size="14.00">create</text>
<text text-anchor="start" x="13.9127" y="-314.652" font-family="Times,serif" font-size="14.00">destroy</text>
<text text-anchor="start" x="13.9127" y="-300.652" font-family="Times,serif" font-size="14.00">edit</text>
<text text-anchor="start" x="13.9127" y="-286.652" font-family="Times,serif" font-size="14.00">index</text>
<text text-anchor="start" x="13.9127" y="-272.652" font-family="Times,serif" font-size="14.00">new</text>
<text text-anchor="start" x="13.9127" y="-258.652" font-family="Times,serif" font-size="14.00">show</text>
<text text-anchor="start" x="13.9127" y="-244.652" font-family="Times,serif" font-size="14.00">update</text>
<polyline fill="none" stroke="black" points="5.91269,-237.852 124.561,-237.852 "/>
<polyline fill="none" stroke="black" points="5.91269,-213.852 124.561,-213.852 "/>
<text text-anchor="start" x="13.9127" y="-198.652" font-family="Times,serif" font-size="14.00">_layout</text>
</g>
<!-- ApplicationController&#45;&gt;ProjectsController -->
<g id="edge6" class="edge"><title>ApplicationController&#45;&gt;ProjectsController</title>
<path fill="none" stroke="black" d="M144.467,-287.612C137.747,-286.869 131.099,-286.134 124.681,-285.425"/>
</g>
<!-- StakeholderTypesController -->
<g id="node9" class="node"><title>StakeholderTypesController</title>
<path fill="none" stroke="black" d="M347.352,-12.1171C347.352,-12.1171 497.002,-12.1171 497.002,-12.1171 503.002,-12.1171 509.002,-18.1171 509.002,-24.1171 509.002,-24.1171 509.002,-174.117 509.002,-174.117 509.002,-180.117 503.002,-186.117 497.002,-186.117 497.002,-186.117 347.352,-186.117 347.352,-186.117 341.352,-186.117 335.352,-180.117 335.352,-174.117 335.352,-174.117 335.352,-24.1171 335.352,-24.1171 335.352,-18.1171 341.352,-12.1171 347.352,-12.1171"/>
<text text-anchor="middle" x="422.177" y="-170.917" font-family="Times,serif" font-size="14.00">StakeholderTypesController</text>
<polyline fill="none" stroke="black" points="335.352,-164.117 509.002,-164.117 "/>
<text text-anchor="start" x="343.352" y="-148.917" font-family="Times,serif" font-size="14.00">create</text>
<text text-anchor="start" x="343.352" y="-134.917" font-family="Times,serif" font-size="14.00">destroy</text>
<text text-anchor="start" x="343.352" y="-120.917" font-family="Times,serif" font-size="14.00">edit</text>
<text text-anchor="start" x="343.352" y="-106.917" font-family="Times,serif" font-size="14.00">index</text>
<text text-anchor="start" x="343.352" y="-92.9171" font-family="Times,serif" font-size="14.00">new</text>
<text text-anchor="start" x="343.352" y="-78.9171" font-family="Times,serif" font-size="14.00">show</text>
<text text-anchor="start" x="343.352" y="-64.9171" font-family="Times,serif" font-size="14.00">update</text>
<polyline fill="none" stroke="black" points="335.352,-58.1171 509.002,-58.1171 "/>
<polyline fill="none" stroke="black" points="335.352,-34.1171 509.002,-34.1171 "/>
<text text-anchor="start" x="343.352" y="-18.9171" font-family="Times,serif" font-size="14.00">_layout</text>
</g>
<!-- ApplicationController&#45;&gt;StakeholderTypesController -->
<g id="edge7" class="edge"><title>ApplicationController&#45;&gt;StakeholderTypesController</title>
<path fill="none" stroke="black" d="M283.152,-253.206C301.08,-233.336 322.765,-209.301 343.621,-186.185"/>
</g>
<!-- StakeholdersController -->
<g id="node10" class="node"><title>StakeholdersController</title>
<path fill="none" stroke="black" d="M187.941,-9.45825C187.941,-9.45825 309.803,-9.45825 309.803,-9.45825 315.803,-9.45825 321.803,-15.4583 321.803,-21.4583 321.803,-21.4583 321.803,-171.458 321.803,-171.458 321.803,-177.458 315.803,-183.458 309.803,-183.458 309.803,-183.458 187.941,-183.458 187.941,-183.458 181.941,-183.458 175.941,-177.458 175.941,-171.458 175.941,-171.458 175.941,-21.4583 175.941,-21.4583 175.941,-15.4583 181.941,-9.45825 187.941,-9.45825"/>
<text text-anchor="middle" x="248.872" y="-168.258" font-family="Times,serif" font-size="14.00">StakeholdersController</text>
<polyline fill="none" stroke="black" points="175.941,-161.458 321.803,-161.458 "/>
<text text-anchor="start" x="183.941" y="-146.258" font-family="Times,serif" font-size="14.00">create</text>
<text text-anchor="start" x="183.941" y="-132.258" font-family="Times,serif" font-size="14.00">destroy</text>
<text text-anchor="start" x="183.941" y="-118.258" font-family="Times,serif" font-size="14.00">edit</text>
<text text-anchor="start" x="183.941" y="-104.258" font-family="Times,serif" font-size="14.00">index</text>
<text text-anchor="start" x="183.941" y="-90.2583" font-family="Times,serif" font-size="14.00">new</text>
<text text-anchor="start" x="183.941" y="-76.2583" font-family="Times,serif" font-size="14.00">show</text>
<text text-anchor="start" x="183.941" y="-62.2583" font-family="Times,serif" font-size="14.00">update</text>
<polyline fill="none" stroke="black" points="175.941,-55.4583 321.803,-55.4583 "/>
<polyline fill="none" stroke="black" points="175.941,-31.4583 321.803,-31.4583 "/>
<text text-anchor="start" x="183.941" y="-16.2583" font-family="Times,serif" font-size="14.00">_layout</text>
</g>
<!-- ApplicationController&#45;&gt;StakeholdersController -->
<g id="edge8" class="edge"><title>ApplicationController&#45;&gt;StakeholdersController</title>
<path fill="none" stroke="black" d="M243.802,-253.358C244.467,-232.779 245.278,-207.678 246.055,-183.64"/>
</g>
</g>
</svg>
