<?xml version="1.0" encoding="UTF-8" standalone="no"?>
<!DOCTYPE svg PUBLIC "-//W3C//DTD SVG 1.1//EN"
 "http://www.w3.org/Graphics/SVG/1.1/DTD/svg11.dtd">
<!-- Generated by graphviz version 2.36.0 (20140111.2315)
 -->
<!-- Title: controllers_diagram Pages: 1 -->
<svg width="982pt" height="800pt"
 viewBox="0.00 0.00 982.38 799.86" xmlns="http://www.w3.org/2000/svg" xmlns:xlink="http://www.w3.org/1999/xlink">
<g id="graph0" class="graph" transform="scale(1 1) rotate(0) translate(4 795.865)">
<title>controllers_diagram</title>
<polygon fill="white" stroke="none" points="-4,4 -4,-795.865 978.375,-795.865 978.375,4 -4,4"/>
<!-- _diagram_info -->
<g id="node1" class="node"><title>_diagram_info</title>
<text text-anchor="start" x="775" y="-58.6" font-family="Times,serif" font-size="13.00">Controllers diagram</text>
<text text-anchor="start" x="775" y="-45.6" font-family="Times,serif" font-size="13.00">Date: Feb 20 2014 &#45; 09:15</text>
<text text-anchor="start" x="775" y="-32.6" font-family="Times,serif" font-size="13.00">Migration version: 20140220171045</text>
<text text-anchor="start" x="775" y="-19.6" font-family="Times,serif" font-size="13.00">Generated by RailRoady 1.1.1</text>
<text text-anchor="start" x="775" y="-6.6" font-family="Times,serif" font-size="13.00">http://railroady.prestonlee.com</text>
</g>
<!-- ApplicationController -->
<g id="node2" class="node"><title>ApplicationController</title>
<path fill="none" stroke="black" d="M254.124,-346.972C254.124,-346.972 425.758,-346.972 425.758,-346.972 431.758,-346.972 437.758,-352.972 437.758,-358.972 437.758,-358.972 437.758,-424.972 437.758,-424.972 437.758,-430.972 431.758,-436.972 425.758,-436.972 425.758,-436.972 254.124,-436.972 254.124,-436.972 248.124,-436.972 242.124,-430.972 242.124,-424.972 242.124,-424.972 242.124,-358.972 242.124,-358.972 242.124,-352.972 248.124,-346.972 254.124,-346.972"/>
<text text-anchor="middle" x="339.941" y="-421.772" font-family="Times,serif" font-size="14.00">ApplicationController</text>
<polyline fill="none" stroke="black" points="242.124,-414.972 437.758,-414.972 "/>
<text text-anchor="start" x="250.124" y="-399.772" font-family="Times,serif" font-size="14.00">_one_time_conditions_valid_8?</text>
<polyline fill="none" stroke="black" points="242.124,-392.972 437.758,-392.972 "/>
<polyline fill="none" stroke="black" points="242.124,-368.972 437.758,-368.972 "/>
<text text-anchor="start" x="250.124" y="-353.772" font-family="Times,serif" font-size="14.00">_layout</text>
</g>
<!-- ClientTypesController -->
<g id="node3" class="node"><title>ClientTypesController</title>
<path fill="none" stroke="black" d="M522.063,-415.518C522.063,-415.518 639.065,-415.518 639.065,-415.518 645.065,-415.518 651.065,-421.518 651.065,-427.518 651.065,-427.518 651.065,-577.518 651.065,-577.518 651.065,-583.518 645.065,-589.518 639.065,-589.518 639.065,-589.518 522.063,-589.518 522.063,-589.518 516.063,-589.518 510.063,-583.518 510.063,-577.518 510.063,-577.518 510.063,-427.518 510.063,-427.518 510.063,-421.518 516.063,-415.518 522.063,-415.518"/>
<text text-anchor="middle" x="580.564" y="-574.318" font-family="Times,serif" font-size="14.00">ClientTypesController</text>
<polyline fill="none" stroke="black" points="510.063,-567.518 651.065,-567.518 "/>
<text text-anchor="start" x="518.063" y="-552.318" font-family="Times,serif" font-size="14.00">create</text>
<text text-anchor="start" x="518.063" y="-538.318" font-family="Times,serif" font-size="14.00">destroy</text>
<text text-anchor="start" x="518.063" y="-524.318" font-family="Times,serif" font-size="14.00">edit</text>
<text text-anchor="start" x="518.063" y="-510.318" font-family="Times,serif" font-size="14.00">index</text>
<text text-anchor="start" x="518.063" y="-496.318" font-family="Times,serif" font-size="14.00">new</text>
<text text-anchor="start" x="518.063" y="-482.318" font-family="Times,serif" font-size="14.00">show</text>
<text text-anchor="start" x="518.063" y="-468.318" font-family="Times,serif" font-size="14.00">update</text>
<polyline fill="none" stroke="black" points="510.063,-461.518 651.065,-461.518 "/>
<polyline fill="none" stroke="black" points="510.063,-437.518 651.065,-437.518 "/>
<text text-anchor="start" x="518.063" y="-422.318" font-family="Times,serif" font-size="14.00">_layout</text>
</g>
<!-- ApplicationController&#45;&gt;ClientTypesController -->
<g id="edge1" class="edge"><title>ApplicationController&#45;&gt;ClientTypesController</title>
<path fill="none" stroke="black" d="M437.812,-436.936C461.883,-447.994 487.196,-459.624 509.711,-469.967"/>
</g>
<!-- CompaniesController -->
<g id="node4" class="node"><title>CompaniesController</title>
<path fill="none" stroke="black" d="M200.336,-41.9224C200.336,-41.9224 312.874,-41.9224 312.874,-41.9224 318.874,-41.9224 324.874,-47.9224 324.874,-53.9224 324.874,-53.9224 324.874,-203.922 324.874,-203.922 324.874,-209.922 318.874,-215.922 312.874,-215.922 312.874,-215.922 200.336,-215.922 200.336,-215.922 194.336,-215.922 188.336,-209.922 188.336,-203.922 188.336,-203.922 188.336,-53.9224 188.336,-53.9224 188.336,-47.9224 194.336,-41.9224 200.336,-41.9224"/>
<text text-anchor="middle" x="256.605" y="-200.722" font-family="Times,serif" font-size="14.00">CompaniesController</text>
<polyline fill="none" stroke="black" points="188.336,-193.922 324.874,-193.922 "/>
<text text-anchor="start" x="196.336" y="-178.722" font-family="Times,serif" font-size="14.00">create</text>
<text text-anchor="start" x="196.336" y="-164.722" font-family="Times,serif" font-size="14.00">destroy</text>
<text text-anchor="start" x="196.336" y="-150.722" font-family="Times,serif" font-size="14.00">edit</text>
<text text-anchor="start" x="196.336" y="-136.722" font-family="Times,serif" font-size="14.00">index</text>
<text text-anchor="start" x="196.336" y="-122.722" font-family="Times,serif" font-size="14.00">new</text>
<text text-anchor="start" x="196.336" y="-108.722" font-family="Times,serif" font-size="14.00">show</text>
<text text-anchor="start" x="196.336" y="-94.7224" font-family="Times,serif" font-size="14.00">update</text>
<polyline fill="none" stroke="black" points="188.336,-87.9224 324.874,-87.9224 "/>
<polyline fill="none" stroke="black" points="188.336,-63.9224 324.874,-63.9224 "/>
<text text-anchor="start" x="196.336" y="-48.7224" font-family="Times,serif" font-size="14.00">_layout</text>
</g>
<!-- ApplicationController&#45;&gt;CompaniesController -->
<g id="edge2" class="edge"><title>ApplicationController&#45;&gt;CompaniesController</title>
<path fill="none" stroke="black" d="M325.615,-346.752C314.26,-310.91 298.055,-259.758 284.201,-216.029"/>
</g>
<!-- FaultsController -->
<g id="node5" class="node"><title>FaultsController</title>
<path fill="none" stroke="black" d="M46.728,-616.249C46.728,-616.249 130.5,-616.249 130.5,-616.249 136.5,-616.249 142.5,-622.249 142.5,-628.249 142.5,-628.249 142.5,-778.249 142.5,-778.249 142.5,-784.249 136.5,-790.249 130.5,-790.249 130.5,-790.249 46.728,-790.249 46.728,-790.249 40.728,-790.249 34.728,-784.249 34.728,-778.249 34.728,-778.249 34.728,-628.249 34.728,-628.249 34.728,-622.249 40.728,-616.249 46.728,-616.249"/>
<text text-anchor="middle" x="88.6142" y="-775.049" font-family="Times,serif" font-size="14.00">FaultsController</text>
<polyline fill="none" stroke="black" points="34.728,-768.249 142.5,-768.249 "/>
<text text-anchor="start" x="42.728" y="-753.049" font-family="Times,serif" font-size="14.00">create</text>
<text text-anchor="start" x="42.728" y="-739.049" font-family="Times,serif" font-size="14.00">destroy</text>
<text text-anchor="start" x="42.728" y="-725.049" font-family="Times,serif" font-size="14.00">edit</text>
<text text-anchor="start" x="42.728" y="-711.049" font-family="Times,serif" font-size="14.00">index</text>
<text text-anchor="start" x="42.728" y="-697.049" font-family="Times,serif" font-size="14.00">new</text>
<text text-anchor="start" x="42.728" y="-683.049" font-family="Times,serif" font-size="14.00">show</text>
<text text-anchor="start" x="42.728" y="-669.049" font-family="Times,serif" font-size="14.00">update</text>
<polyline fill="none" stroke="black" points="34.728,-662.249 142.5,-662.249 "/>
<polyline fill="none" stroke="black" points="34.728,-638.249 142.5,-638.249 "/>
<text text-anchor="start" x="42.728" y="-623.049" font-family="Times,serif" font-size="14.00">_layout</text>
</g>
<!-- ApplicationController&#45;&gt;FaultsController -->
<g id="edge3" class="edge"><title>ApplicationController&#45;&gt;FaultsController</title>
<path fill="none" stroke="black" d="M304.325,-437.125C272.385,-477.508 224.139,-538.234 181.627,-590.633 169.086,-606.091 155.49,-622.658 142.665,-638.201"/>
</g>
<!-- InvestigationTypesController -->
<g id="node6" class="node"><title>InvestigationTypesController</title>
<path fill="none" stroke="black" d="M510.488,-617.365C510.488,-617.365 666.366,-617.365 666.366,-617.365 672.366,-617.365 678.366,-623.365 678.366,-629.365 678.366,-629.365 678.366,-779.365 678.366,-779.365 678.366,-785.365 672.366,-791.365 666.366,-791.365 666.366,-791.365 510.488,-791.365 510.488,-791.365 504.488,-791.365 498.488,-785.365 498.488,-779.365 498.488,-779.365 498.488,-629.365 498.488,-629.365 498.488,-623.365 504.488,-617.365 510.488,-617.365"/>
<text text-anchor="middle" x="588.427" y="-776.165" font-family="Times,serif" font-size="14.00">InvestigationTypesController</text>
<polyline fill="none" stroke="black" points="498.488,-769.365 678.366,-769.365 "/>
<text text-anchor="start" x="506.488" y="-754.165" font-family="Times,serif" font-size="14.00">create</text>
<text text-anchor="start" x="506.488" y="-740.165" font-family="Times,serif" font-size="14.00">destroy</text>
<text text-anchor="start" x="506.488" y="-726.165" font-family="Times,serif" font-size="14.00">edit</text>
<text text-anchor="start" x="506.488" y="-712.165" font-family="Times,serif" font-size="14.00">index</text>
<text text-anchor="start" x="506.488" y="-698.165" font-family="Times,serif" font-size="14.00">new</text>
<text text-anchor="start" x="506.488" y="-684.165" font-family="Times,serif" font-size="14.00">show</text>
<text text-anchor="start" x="506.488" y="-670.165" font-family="Times,serif" font-size="14.00">update</text>
<polyline fill="none" stroke="black" points="498.488,-663.365 678.366,-663.365 "/>
<polyline fill="none" stroke="black" points="498.488,-639.365 678.366,-639.365 "/>
<text text-anchor="start" x="506.488" y="-624.165" font-family="Times,serif" font-size="14.00">_layout</text>
</g>
<!-- ApplicationController&#45;&gt;InvestigationTypesController -->
<g id="edge4" class="edge"><title>ApplicationController&#45;&gt;InvestigationTypesController</title>
<path fill="none" stroke="black" d="M375.808,-437.063C413.171,-484.036 472.643,-558.804 519.201,-617.335"/>
</g>
<!-- PhasesController -->
<g id="node7" class="node"><title>PhasesController</title>
<path fill="none" stroke="black" d="M294.66,-579.983C294.66,-579.983 382.316,-579.983 382.316,-579.983 388.316,-579.983 394.316,-585.983 394.316,-591.983 394.316,-591.983 394.316,-741.983 394.316,-741.983 394.316,-747.983 388.316,-753.983 382.316,-753.983 382.316,-753.983 294.66,-753.983 294.66,-753.983 288.66,-753.983 282.66,-747.983 282.66,-741.983 282.66,-741.983 282.66,-591.983 282.66,-591.983 282.66,-585.983 288.66,-579.983 294.66,-579.983"/>
<text text-anchor="middle" x="338.488" y="-738.783" font-family="Times,serif" font-size="14.00">PhasesController</text>
<polyline fill="none" stroke="black" points="282.66,-731.983 394.316,-731.983 "/>
<text text-anchor="start" x="290.66" y="-716.783" font-family="Times,serif" font-size="14.00">create</text>
<text text-anchor="start" x="290.66" y="-702.783" font-family="Times,serif" font-size="14.00">destroy</text>
<text text-anchor="start" x="290.66" y="-688.783" font-family="Times,serif" font-size="14.00">edit</text>
<text text-anchor="start" x="290.66" y="-674.783" font-family="Times,serif" font-size="14.00">index</text>
<text text-anchor="start" x="290.66" y="-660.783" font-family="Times,serif" font-size="14.00">new</text>
<text text-anchor="start" x="290.66" y="-646.783" font-family="Times,serif" font-size="14.00">show</text>
<text text-anchor="start" x="290.66" y="-632.783" font-family="Times,serif" font-size="14.00">update</text>
<polyline fill="none" stroke="black" points="282.66,-625.983 394.316,-625.983 "/>
<polyline fill="none" stroke="black" points="282.66,-601.983 394.316,-601.983 "/>
<text text-anchor="start" x="290.66" y="-586.783" font-family="Times,serif" font-size="14.00">_layout</text>
</g>
<!-- ApplicationController&#45;&gt;PhasesController -->
<g id="edge5" class="edge"><title>ApplicationController&#45;&gt;PhasesController</title>
<path fill="none" stroke="black" d="M339.703,-437.077C339.499,-475.706 339.199,-532.442 338.948,-579.886"/>
</g>
<!-- ProjectManagersController -->
<g id="node8" class="node"><title>ProjectManagersController</title>
<path fill="none" stroke="black" d="M12,-219.57C12,-219.57 156.4,-219.57 156.4,-219.57 162.4,-219.57 168.4,-225.57 168.4,-231.57 168.4,-231.57 168.4,-381.57 168.4,-381.57 168.4,-387.57 162.4,-393.57 156.4,-393.57 156.4,-393.57 12,-393.57 12,-393.57 6,-393.57 0,-387.57 0,-381.57 0,-381.57 0,-231.57 0,-231.57 0,-225.57 6,-219.57 12,-219.57"/>
<text text-anchor="middle" x="84.2002" y="-378.37" font-family="Times,serif" font-size="14.00">ProjectManagersController</text>
<polyline fill="none" stroke="black" points="0,-371.57 168.4,-371.57 "/>
<text text-anchor="start" x="8" y="-356.37" font-family="Times,serif" font-size="14.00">create</text>
<text text-anchor="start" x="8" y="-342.37" font-family="Times,serif" font-size="14.00">destroy</text>
<text text-anchor="start" x="8" y="-328.37" font-family="Times,serif" font-size="14.00">edit</text>
<text text-anchor="start" x="8" y="-314.37" font-family="Times,serif" font-size="14.00">index</text>
<text text-anchor="start" x="8" y="-300.37" font-family="Times,serif" font-size="14.00">new</text>
<text text-anchor="start" x="8" y="-286.37" font-family="Times,serif" font-size="14.00">show</text>
<text text-anchor="start" x="8" y="-272.37" font-family="Times,serif" font-size="14.00">update</text>
<polyline fill="none" stroke="black" points="0,-265.57 168.4,-265.57 "/>
<polyline fill="none" stroke="black" points="0,-241.57 168.4,-241.57 "/>
<text text-anchor="start" x="8" y="-226.37" font-family="Times,serif" font-size="14.00">_layout</text>
</g>
<!-- ApplicationController&#45;&gt;ProjectManagersController -->
<g id="edge6" class="edge"><title>ApplicationController&#45;&gt;ProjectManagersController</title>
<path fill="none" stroke="black" d="M241.796,-359.198C217.709,-351.154 192.132,-342.613 168.748,-334.804"/>
</g>
<!-- ProjectsController -->
<g id="node9" class="node"><title>ProjectsController</title>
<path fill="none" stroke="black" d="M541.625,-221.203C541.625,-221.203 636.273,-221.203 636.273,-221.203 642.273,-221.203 648.273,-227.203 648.273,-233.203 648.273,-233.203 648.273,-383.203 648.273,-383.203 648.273,-389.203 642.273,-395.203 636.273,-395.203 636.273,-395.203 541.625,-395.203 541.625,-395.203 535.625,-395.203 529.625,-389.203 529.625,-383.203 529.625,-383.203 529.625,-233.203 529.625,-233.203 529.625,-227.203 535.625,-221.203 541.625,-221.203"/>
<text text-anchor="middle" x="588.949" y="-380.003" font-family="Times,serif" font-size="14.00">ProjectsController</text>
<polyline fill="none" stroke="black" points="529.625,-373.203 648.273,-373.203 "/>
<text text-anchor="start" x="537.625" y="-358.003" font-family="Times,serif" font-size="14.00">create</text>
<text text-anchor="start" x="537.625" y="-344.003" font-family="Times,serif" font-size="14.00">destroy</text>
<text text-anchor="start" x="537.625" y="-330.003" font-family="Times,serif" font-size="14.00">edit</text>
<text text-anchor="start" x="537.625" y="-316.003" font-family="Times,serif" font-size="14.00">index</text>
<text text-anchor="start" x="537.625" y="-302.003" font-family="Times,serif" font-size="14.00">new</text>
<text text-anchor="start" x="537.625" y="-288.003" font-family="Times,serif" font-size="14.00">show</text>
<text text-anchor="start" x="537.625" y="-274.003" font-family="Times,serif" font-size="14.00">update</text>
<polyline fill="none" stroke="black" points="529.625,-267.203 648.273,-267.203 "/>
<polyline fill="none" stroke="black" points="529.625,-243.203 648.273,-243.203 "/>
<text text-anchor="start" x="537.625" y="-228.003" font-family="Times,serif" font-size="14.00">_layout</text>
</g>
<!-- ApplicationController&#45;&gt;ProjectsController -->
<g id="edge7" class="edge"><title>ApplicationController&#45;&gt;ProjectsController</title>
<path fill="none" stroke="black" d="M437.998,-358.985C468.892,-348.591 502.064,-337.432 529.421,-328.229"/>
</g>
<!-- SitesController -->
<g id="node10" class="node"><title>SitesController</title>
<path fill="none" stroke="black" d="M27.2375,-0.5C27.2375,-0.5 104.01,-0.5 104.01,-0.5 110.01,-0.5 116.01,-6.5 116.01,-12.5 116.01,-12.5 116.01,-162.5 116.01,-162.5 116.01,-168.5 110.01,-174.5 104.01,-174.5 104.01,-174.5 27.2375,-174.5 27.2375,-174.5 21.2375,-174.5 15.2375,-168.5 15.2375,-162.5 15.2375,-162.5 15.2375,-12.5 15.2375,-12.5 15.2375,-6.5 21.2375,-0.5 27.2375,-0.5"/>
<text text-anchor="middle" x="65.6238" y="-159.3" font-family="Times,serif" font-size="14.00">SitesController</text>
<polyline fill="none" stroke="black" points="15.2375,-152.5 116.01,-152.5 "/>
<text text-anchor="start" x="23.2375" y="-137.3" font-family="Times,serif" font-size="14.00">create</text>
<text text-anchor="start" x="23.2375" y="-123.3" font-family="Times,serif" font-size="14.00">destroy</text>
<text text-anchor="start" x="23.2375" y="-109.3" font-family="Times,serif" font-size="14.00">edit</text>
<text text-anchor="start" x="23.2375" y="-95.3" font-family="Times,serif" font-size="14.00">index</text>
<text text-anchor="start" x="23.2375" y="-81.3" font-family="Times,serif" font-size="14.00">new</text>
<text text-anchor="start" x="23.2375" y="-67.3" font-family="Times,serif" font-size="14.00">show</text>
<text text-anchor="start" x="23.2375" y="-53.3" font-family="Times,serif" font-size="14.00">update</text>
<polyline fill="none" stroke="black" points="15.2375,-46.5 116.01,-46.5 "/>
<polyline fill="none" stroke="black" points="15.2375,-22.5 116.01,-22.5 "/>
<text text-anchor="start" x="23.2375" y="-7.3" font-family="Times,serif" font-size="14.00">_layout</text>
</g>
<!-- ApplicationController&#45;&gt;SitesController -->
<g id="edge8" class="edge"><title>ApplicationController&#45;&gt;SitesController</title>
<path fill="none" stroke="black" d="M299.169,-346.718C250.439,-292.631 168.886,-202.114 116.189,-143.624"/>
</g>
<!-- StakeholderTypesController -->
<g id="node11" class="node"><title>StakeholderTypesController</title>
<path fill="none" stroke="black" d="M350.141,-25.2169C350.141,-25.2169 499.791,-25.2169 499.791,-25.2169 505.791,-25.2169 511.791,-31.2169 511.791,-37.2169 511.791,-37.2169 511.791,-187.217 511.791,-187.217 511.791,-193.217 505.791,-199.217 499.791,-199.217 499.791,-199.217 350.141,-199.217 350.141,-199.217 344.141,-199.217 338.141,-193.217 338.141,-187.217 338.141,-187.217 338.141,-37.2169 338.141,-37.2169 338.141,-31.2169 344.141,-25.2169 350.141,-25.2169"/>
<text text-anchor="middle" x="424.966" y="-184.017" font-family="Times,serif" font-size="14.00">StakeholderTypesController</text>
<polyline fill="none" stroke="black" points="338.141,-177.217 511.791,-177.217 "/>
<text text-anchor="start" x="346.141" y="-162.017" font-family="Times,serif" font-size="14.00">create</text>
<text text-anchor="start" x="346.141" y="-148.017" font-family="Times,serif" font-size="14.00">destroy</text>
<text text-anchor="start" x="346.141" y="-134.017" font-family="Times,serif" font-size="14.00">edit</text>
<text text-anchor="start" x="346.141" y="-120.017" font-family="Times,serif" font-size="14.00">index</text>
<text text-anchor="start" x="346.141" y="-106.017" font-family="Times,serif" font-size="14.00">new</text>
<text text-anchor="start" x="346.141" y="-92.0169" font-family="Times,serif" font-size="14.00">show</text>
<text text-anchor="start" x="346.141" y="-78.0169" font-family="Times,serif" font-size="14.00">update</text>
<polyline fill="none" stroke="black" points="338.141,-71.2169 511.791,-71.2169 "/>
<polyline fill="none" stroke="black" points="338.141,-47.2169 511.791,-47.2169 "/>
<text text-anchor="start" x="346.141" y="-32.0169" font-family="Times,serif" font-size="14.00">_layout</text>
</g>
<!-- ApplicationController&#45;&gt;StakeholderTypesController -->
<g id="edge9" class="edge"><title>ApplicationController&#45;&gt;StakeholderTypesController</title>
<path fill="none" stroke="black" d="M353.696,-346.714C365.752,-307.048 383.615,-248.272 398.442,-199.489"/>
</g>
<!-- StakeholdersController -->
<g id="node12" class="node"><title>StakeholdersController</title>
<path fill="none" stroke="black" d="M557.166,-5.28579C557.166,-5.28579 679.028,-5.28579 679.028,-5.28579 685.028,-5.28579 691.028,-11.2858 691.028,-17.2858 691.028,-17.2858 691.028,-167.286 691.028,-167.286 691.028,-173.286 685.028,-179.286 679.028,-179.286 679.028,-179.286 557.166,-179.286 557.166,-179.286 551.166,-179.286 545.166,-173.286 545.166,-167.286 545.166,-167.286 545.166,-17.2858 545.166,-17.2858 545.166,-11.2858 551.166,-5.28579 557.166,-5.28579"/>
<text text-anchor="middle" x="618.097" y="-164.086" font-family="Times,serif" font-size="14.00">StakeholdersController</text>
<polyline fill="none" stroke="black" points="545.166,-157.286 691.028,-157.286 "/>
<text text-anchor="start" x="553.166" y="-142.086" font-family="Times,serif" font-size="14.00">create</text>
<text text-anchor="start" x="553.166" y="-128.086" font-family="Times,serif" font-size="14.00">destroy</text>
<text text-anchor="start" x="553.166" y="-114.086" font-family="Times,serif" font-size="14.00">edit</text>
<text text-anchor="start" x="553.166" y="-100.086" font-family="Times,serif" font-size="14.00">index</text>
<text text-anchor="start" x="553.166" y="-86.0858" font-family="Times,serif" font-size="14.00">new</text>
<text text-anchor="start" x="553.166" y="-72.0858" font-family="Times,serif" font-size="14.00">show</text>
<text text-anchor="start" x="553.166" y="-58.0858" font-family="Times,serif" font-size="14.00">update</text>
<polyline fill="none" stroke="black" points="545.166,-51.2858 691.028,-51.2858 "/>
<polyline fill="none" stroke="black" points="545.166,-27.2858 691.028,-27.2858 "/>
<text text-anchor="start" x="553.166" y="-12.0858" font-family="Times,serif" font-size="14.00">_layout</text>
</g>
<!-- ApplicationController&#45;&gt;StakeholdersController -->
<g id="edge10" class="edge"><title>ApplicationController&#45;&gt;StakeholdersController</title>
<path fill="none" stroke="black" d="M381.885,-346.782C424.987,-300.343 492.95,-227.12 544.932,-171.114"/>
</g>
<!-- StructureTypesController -->
<g id="node13" class="node"><title>StructureTypesController</title>
<path fill="none" stroke="black" d="M32.3284,-413.433C32.3284,-413.433 166.427,-413.433 166.427,-413.433 172.427,-413.433 178.427,-419.433 178.427,-425.433 178.427,-425.433 178.427,-575.433 178.427,-575.433 178.427,-581.433 172.427,-587.433 166.427,-587.433 166.427,-587.433 32.3284,-587.433 32.3284,-587.433 26.3284,-587.433 20.3284,-581.433 20.3284,-575.433 20.3284,-575.433 20.3284,-425.433 20.3284,-425.433 20.3284,-419.433 26.3284,-413.433 32.3284,-413.433"/>
<text text-anchor="middle" x="99.3777" y="-572.233" font-family="Times,serif" font-size="14.00">StructureTypesController</text>
<polyline fill="none" stroke="black" points="20.3284,-565.433 178.427,-565.433 "/>
<text text-anchor="start" x="28.3284" y="-550.233" font-family="Times,serif" font-size="14.00">create</text>
<text text-anchor="start" x="28.3284" y="-536.233" font-family="Times,serif" font-size="14.00">destroy</text>
<text text-anchor="start" x="28.3284" y="-522.233" font-family="Times,serif" font-size="14.00">edit</text>
<text text-anchor="start" x="28.3284" y="-508.233" font-family="Times,serif" font-size="14.00">index</text>
<text text-anchor="start" x="28.3284" y="-494.233" font-family="Times,serif" font-size="14.00">new</text>
<text text-anchor="start" x="28.3284" y="-480.233" font-family="Times,serif" font-size="14.00">show</text>
<text text-anchor="start" x="28.3284" y="-466.233" font-family="Times,serif" font-size="14.00">update</text>
<polyline fill="none" stroke="black" points="20.3284,-459.433 178.427,-459.433 "/>
<polyline fill="none" stroke="black" points="20.3284,-435.433 178.427,-435.433 "/>
<text text-anchor="start" x="28.3284" y="-420.233" font-family="Times,serif" font-size="14.00">_layout</text>
</g>
<!-- ApplicationController&#45;&gt;StructureTypesController -->
<g id="edge11" class="edge"><title>ApplicationController&#45;&gt;StructureTypesController</title>
<path fill="none" stroke="black" d="M242.095,-436.088C221.022,-445.589 198.996,-455.519 178.73,-464.656"/>
</g>
</g>
</svg>
