<?xml version="1.0" encoding="UTF-8" standalone="no"?>
<!DOCTYPE svg PUBLIC "-//W3C//DTD SVG 1.1//EN"
 "http://www.w3.org/Graphics/SVG/1.1/DTD/svg11.dtd">
<!-- Generated by graphviz version 2.36.0 (20140111.2315)
 -->
<!-- Title: models_diagram Pages: 1 -->
<svg width="1255pt" height="584pt"
 viewBox="0.00 0.00 1255.00 584.00" xmlns="http://www.w3.org/2000/svg" xmlns:xlink="http://www.w3.org/1999/xlink">
<g id="graph0" class="graph" transform="scale(1 1) rotate(0) translate(4 580)">
<title>models_diagram</title>
<polygon fill="white" stroke="none" points="-4,4 -4,-580 1251,-580 1251,4 -4,4"/>
<!-- _diagram_info -->
<g id="node1" class="node"><title>_diagram_info</title>
<text text-anchor="start" x="284.312" y="-561.1" font-family="Times,serif" font-size="13.00">Models diagram</text>
<text text-anchor="start" x="284.312" y="-548.1" font-family="Times,serif" font-size="13.00">Date: Feb 19 2014 &#45; 13:13</text>
<text text-anchor="start" x="284.312" y="-535.1" font-family="Times,serif" font-size="13.00">Migration version: 20140219023530</text>
<text text-anchor="start" x="284.312" y="-522.1" font-family="Times,serif" font-size="13.00">Generated by RailRoady 1.1.1</text>
<text text-anchor="start" x="284.312" y="-509.1" font-family="Times,serif" font-size="13.00">http://railroady.prestonlee.com</text>
</g>
<!-- Client -->
<g id="node2" class="node"><title>Client</title>
<path fill="none" stroke="black" d="M11.6084,-50C11.6084,-50 170.392,-50 170.392,-50 176.392,-50 182.392,-56 182.392,-62 182.392,-62 182.392,-404 182.392,-404 182.392,-410 176.392,-416 170.392,-416 170.392,-416 11.6084,-416 11.6084,-416 5.6084,-416 -0.391602,-410 -0.391602,-404 -0.391602,-404 -0.391602,-62 -0.391602,-62 -0.391602,-56 5.6084,-50 11.6084,-50"/>
<text text-anchor="middle" x="91" y="-400.8" font-family="Times,serif" font-size="14.00">Client</text>
<polyline fill="none" stroke="black" points="-0.391602,-394 182.392,-394 "/>
<text text-anchor="start" x="7.6084" y="-378.8" font-family="Times,serif" font-size="14.00">id :integer</text>
<text text-anchor="start" x="7.6084" y="-364.8" font-family="Times,serif" font-size="14.00">name :string</text>
<text text-anchor="start" x="7.6084" y="-350.8" font-family="Times,serif" font-size="14.00">address :string</text>
<text text-anchor="start" x="7.6084" y="-336.8" font-family="Times,serif" font-size="14.00">city :string</text>
<text text-anchor="start" x="7.6084" y="-322.8" font-family="Times,serif" font-size="14.00">state :string</text>
<text text-anchor="start" x="7.6084" y="-308.8" font-family="Times,serif" font-size="14.00">zip :integer</text>
<text text-anchor="start" x="7.6084" y="-294.8" font-family="Times,serif" font-size="14.00">work_phone :string</text>
<text text-anchor="start" x="7.6084" y="-280.8" font-family="Times,serif" font-size="14.00">home_phone :string</text>
<text text-anchor="start" x="7.6084" y="-266.8" font-family="Times,serif" font-size="14.00">cell_phone :string</text>
<text text-anchor="start" x="7.6084" y="-252.8" font-family="Times,serif" font-size="14.00">fax_phone :string</text>
<text text-anchor="start" x="7.6084" y="-238.8" font-family="Times,serif" font-size="14.00">email :string</text>
<text text-anchor="start" x="7.6084" y="-224.8" font-family="Times,serif" font-size="14.00">address_alternate :string</text>
<text text-anchor="start" x="7.6084" y="-210.8" font-family="Times,serif" font-size="14.00">city_alternate :string</text>
<text text-anchor="start" x="7.6084" y="-196.8" font-family="Times,serif" font-size="14.00">state_alternate :string</text>
<text text-anchor="start" x="7.6084" y="-182.8" font-family="Times,serif" font-size="14.00">zip_alternate :integer</text>
<text text-anchor="start" x="7.6084" y="-168.8" font-family="Times,serif" font-size="14.00">work_phone_alternate :string</text>
<text text-anchor="start" x="7.6084" y="-154.8" font-family="Times,serif" font-size="14.00">home_phone_alternate :string</text>
<text text-anchor="start" x="7.6084" y="-140.8" font-family="Times,serif" font-size="14.00">cell_phone_alternate :string</text>
<text text-anchor="start" x="7.6084" y="-126.8" font-family="Times,serif" font-size="14.00">fax_phone_alternate :string</text>
<text text-anchor="start" x="7.6084" y="-112.8" font-family="Times,serif" font-size="14.00">email_alternate :string</text>
<text text-anchor="start" x="7.6084" y="-98.8" font-family="Times,serif" font-size="14.00">notes :text</text>
<text text-anchor="start" x="7.6084" y="-84.8" font-family="Times,serif" font-size="14.00">type :string</text>
<text text-anchor="start" x="7.6084" y="-70.8" font-family="Times,serif" font-size="14.00">created_at :datetime</text>
<text text-anchor="start" x="7.6084" y="-56.8" font-family="Times,serif" font-size="14.00">updated_at :datetime</text>
</g>
<!-- Project -->
<g id="node3" class="node"><title>Project</title>
<path fill="none" stroke="black" d="M212.66,-1C212.66,-1 389.34,-1 389.34,-1 395.34,-1 401.34,-7 401.34,-13 401.34,-13 401.34,-453 401.34,-453 401.34,-459 395.34,-465 389.34,-465 389.34,-465 212.66,-465 212.66,-465 206.66,-465 200.66,-459 200.66,-453 200.66,-453 200.66,-13 200.66,-13 200.66,-7 206.66,-1 212.66,-1"/>
<text text-anchor="middle" x="301" y="-449.8" font-family="Times,serif" font-size="14.00">Project</text>
<polyline fill="none" stroke="black" points="200.66,-443 401.34,-443 "/>
<text text-anchor="start" x="208.66" y="-427.8" font-family="Times,serif" font-size="14.00">id :integer</text>
<text text-anchor="start" x="208.66" y="-413.8" font-family="Times,serif" font-size="14.00">project_number_id :integer</text>
<text text-anchor="start" x="208.66" y="-399.8" font-family="Times,serif" font-size="14.00">project_manager_id :integer</text>
<text text-anchor="start" x="208.66" y="-385.8" font-family="Times,serif" font-size="14.00">structure_type_id :integer</text>
<text text-anchor="start" x="208.66" y="-371.8" font-family="Times,serif" font-size="14.00">project_prefix_id :integer</text>
<text text-anchor="start" x="208.66" y="-357.8" font-family="Times,serif" font-size="14.00">investigation_type_id :integer</text>
<text text-anchor="start" x="208.66" y="-343.8" font-family="Times,serif" font-size="14.00">fault_id :integer</text>
<text text-anchor="start" x="208.66" y="-329.8" font-family="Times,serif" font-size="14.00">vendor_id :integer</text>
<text text-anchor="start" x="208.66" y="-315.8" font-family="Times,serif" font-size="14.00">client_type_id :integer</text>
<text text-anchor="start" x="208.66" y="-301.8" font-family="Times,serif" font-size="14.00">insurance_company_id :integer</text>
<text text-anchor="start" x="208.66" y="-287.8" font-family="Times,serif" font-size="14.00">client_id :integer</text>
<text text-anchor="start" x="208.66" y="-273.8" font-family="Times,serif" font-size="14.00">site_id :integer</text>
<text text-anchor="start" x="208.66" y="-259.8" font-family="Times,serif" font-size="14.00">stakeholder_id :integer</text>
<text text-anchor="start" x="208.66" y="-245.8" font-family="Times,serif" font-size="14.00">name :string</text>
<text text-anchor="start" x="208.66" y="-231.8" font-family="Times,serif" font-size="14.00">name_alternate :string</text>
<text text-anchor="start" x="208.66" y="-217.8" font-family="Times,serif" font-size="14.00">description :text</text>
<text text-anchor="start" x="208.66" y="-203.8" font-family="Times,serif" font-size="14.00">proposal_date :date</text>
<text text-anchor="start" x="208.66" y="-189.8" font-family="Times,serif" font-size="14.00">proposal_number :string</text>
<text text-anchor="start" x="208.66" y="-175.8" font-family="Times,serif" font-size="14.00">report_date :date</text>
<text text-anchor="start" x="208.66" y="-161.8" font-family="Times,serif" font-size="14.00">notes :string</text>
<text text-anchor="start" x="208.66" y="-147.8" font-family="Times,serif" font-size="14.00">insurance_policy_number :string</text>
<text text-anchor="start" x="208.66" y="-133.8" font-family="Times,serif" font-size="14.00">insurance_notes :text</text>
<text text-anchor="start" x="208.66" y="-119.8" font-family="Times,serif" font-size="14.00">bill_name :string</text>
<text text-anchor="start" x="208.66" y="-105.8" font-family="Times,serif" font-size="14.00">bill_attention :string</text>
<text text-anchor="start" x="208.66" y="-91.8" font-family="Times,serif" font-size="14.00">bill_address :string</text>
<text text-anchor="start" x="208.66" y="-77.8" font-family="Times,serif" font-size="14.00">bill_city :string</text>
<text text-anchor="start" x="208.66" y="-63.8" font-family="Times,serif" font-size="14.00">bill_state :string</text>
<text text-anchor="start" x="208.66" y="-49.8" font-family="Times,serif" font-size="14.00">bill_zip :string</text>
<text text-anchor="start" x="208.66" y="-35.8" font-family="Times,serif" font-size="14.00">bad_pay_history :text</text>
<text text-anchor="start" x="208.66" y="-21.8" font-family="Times,serif" font-size="14.00">created_at :datetime</text>
<text text-anchor="start" x="208.66" y="-7.8" font-family="Times,serif" font-size="14.00">updated_at :datetime</text>
</g>
<!-- Site -->
<g id="node4" class="node"><title>Site</title>
<path fill="none" stroke="black" d="M431.377,-148C431.377,-148 546.623,-148 546.623,-148 552.623,-148 558.623,-154 558.623,-160 558.623,-160 558.623,-306 558.623,-306 558.623,-312 552.623,-318 546.623,-318 546.623,-318 431.377,-318 431.377,-318 425.377,-318 419.377,-312 419.377,-306 419.377,-306 419.377,-160 419.377,-160 419.377,-154 425.377,-148 431.377,-148"/>
<text text-anchor="middle" x="489" y="-302.8" font-family="Times,serif" font-size="14.00">Site</text>
<polyline fill="none" stroke="black" points="419.377,-296 558.623,-296 "/>
<text text-anchor="start" x="427.377" y="-280.8" font-family="Times,serif" font-size="14.00">id :integer</text>
<text text-anchor="start" x="427.377" y="-266.8" font-family="Times,serif" font-size="14.00">number :string</text>
<text text-anchor="start" x="427.377" y="-252.8" font-family="Times,serif" font-size="14.00">address :string</text>
<text text-anchor="start" x="427.377" y="-238.8" font-family="Times,serif" font-size="14.00">city :string</text>
<text text-anchor="start" x="427.377" y="-224.8" font-family="Times,serif" font-size="14.00">county :string</text>
<text text-anchor="start" x="427.377" y="-210.8" font-family="Times,serif" font-size="14.00">loc_page :text</text>
<text text-anchor="start" x="427.377" y="-196.8" font-family="Times,serif" font-size="14.00">loc_longitude :integer</text>
<text text-anchor="start" x="427.377" y="-182.8" font-family="Times,serif" font-size="14.00">loc_latitude :integer</text>
<text text-anchor="start" x="427.377" y="-168.8" font-family="Times,serif" font-size="14.00">created_at :datetime</text>
<text text-anchor="start" x="427.377" y="-154.8" font-family="Times,serif" font-size="14.00">updated_at :datetime</text>
</g>
<!-- Stakeholder -->
<g id="node5" class="node"><title>Stakeholder</title>
<path fill="none" stroke="black" d="M588.501,-176C588.501,-176 767.499,-176 767.499,-176 773.499,-176 779.499,-182 779.499,-188 779.499,-188 779.499,-278 779.499,-278 779.499,-284 773.499,-290 767.499,-290 767.499,-290 588.501,-290 588.501,-290 582.501,-290 576.501,-284 576.501,-278 576.501,-278 576.501,-188 576.501,-188 576.501,-182 582.501,-176 588.501,-176"/>
<text text-anchor="middle" x="678" y="-274.8" font-family="Times,serif" font-size="14.00">Stakeholder</text>
<polyline fill="none" stroke="black" points="576.501,-268 779.499,-268 "/>
<text text-anchor="start" x="584.501" y="-252.8" font-family="Times,serif" font-size="14.00">id :integer</text>
<text text-anchor="start" x="584.501" y="-238.8" font-family="Times,serif" font-size="14.00">stakeholder_company_id :integer</text>
<text text-anchor="start" x="584.501" y="-224.8" font-family="Times,serif" font-size="14.00">name :string</text>
<text text-anchor="start" x="584.501" y="-210.8" font-family="Times,serif" font-size="14.00">info :text</text>
<text text-anchor="start" x="584.501" y="-196.8" font-family="Times,serif" font-size="14.00">created_at :datetime</text>
<text text-anchor="start" x="584.501" y="-182.8" font-family="Times,serif" font-size="14.00">updated_at :datetime</text>
</g>
<!-- StakeholderCompany -->
<g id="node6" class="node"><title>StakeholderCompany</title>
<path fill="none" stroke="black" d="M809.674,-113C809.674,-113 1014.33,-113 1014.33,-113 1020.33,-113 1026.33,-119 1026.33,-125 1026.33,-125 1026.33,-341 1026.33,-341 1026.33,-347 1020.33,-353 1014.33,-353 1014.33,-353 809.674,-353 809.674,-353 803.674,-353 797.674,-347 797.674,-341 797.674,-341 797.674,-125 797.674,-125 797.674,-119 803.674,-113 809.674,-113"/>
<text text-anchor="middle" x="912" y="-337.8" font-family="Times,serif" font-size="14.00">StakeholderCompany</text>
<polyline fill="none" stroke="black" points="797.674,-331 1026.33,-331 "/>
<text text-anchor="start" x="805.674" y="-315.8" font-family="Times,serif" font-size="14.00">id :integer</text>
<text text-anchor="start" x="805.674" y="-301.8" font-family="Times,serif" font-size="14.00">takeholder_company_type_id :integer</text>
<text text-anchor="start" x="805.674" y="-287.8" font-family="Times,serif" font-size="14.00">company_name :string</text>
<text text-anchor="start" x="805.674" y="-273.8" font-family="Times,serif" font-size="14.00">contact :string</text>
<text text-anchor="start" x="805.674" y="-259.8" font-family="Times,serif" font-size="14.00">address :string</text>
<text text-anchor="start" x="805.674" y="-245.8" font-family="Times,serif" font-size="14.00">city :string</text>
<text text-anchor="start" x="805.674" y="-231.8" font-family="Times,serif" font-size="14.00">state :string</text>
<text text-anchor="start" x="805.674" y="-217.8" font-family="Times,serif" font-size="14.00">zip :integer</text>
<text text-anchor="start" x="805.674" y="-203.8" font-family="Times,serif" font-size="14.00">phone :string</text>
<text text-anchor="start" x="805.674" y="-189.8" font-family="Times,serif" font-size="14.00">fax :string</text>
<text text-anchor="start" x="805.674" y="-175.8" font-family="Times,serif" font-size="14.00">email :string</text>
<text text-anchor="start" x="805.674" y="-161.8" font-family="Times,serif" font-size="14.00">website :text</text>
<text text-anchor="start" x="805.674" y="-147.8" font-family="Times,serif" font-size="14.00">notes :text</text>
<text text-anchor="start" x="805.674" y="-133.8" font-family="Times,serif" font-size="14.00">created_at :datetime</text>
<text text-anchor="start" x="805.674" y="-119.8" font-family="Times,serif" font-size="14.00">updated_at :datetime</text>
</g>
<!-- StakeholderCompanyType -->
<g id="node7" class="node"><title>StakeholderCompanyType</title>
<path fill="none" stroke="black" d="M1056.11,-190C1056.11,-190 1235.89,-190 1235.89,-190 1241.89,-190 1247.89,-196 1247.89,-202 1247.89,-202 1247.89,-264 1247.89,-264 1247.89,-270 1241.89,-276 1235.89,-276 1235.89,-276 1056.11,-276 1056.11,-276 1050.11,-276 1044.11,-270 1044.11,-264 1044.11,-264 1044.11,-202 1044.11,-202 1044.11,-196 1050.11,-190 1056.11,-190"/>
<text text-anchor="middle" x="1146" y="-260.8" font-family="Times,serif" font-size="14.00">StakeholderCompanyType</text>
<polyline fill="none" stroke="black" points="1044.11,-254 1247.89,-254 "/>
<text text-anchor="start" x="1052.11" y="-238.8" font-family="Times,serif" font-size="14.00">id :integer</text>
<text text-anchor="start" x="1052.11" y="-224.8" font-family="Times,serif" font-size="14.00">takeholder_company_type :string</text>
<text text-anchor="start" x="1052.11" y="-210.8" font-family="Times,serif" font-size="14.00">created_at :datetime</text>
<text text-anchor="start" x="1052.11" y="-196.8" font-family="Times,serif" font-size="14.00">updated_at :datetime</text>
</g>
<!-- ActiveRecord::Base -->
<g id="node8" class="node"><title>ActiveRecord::Base</title>
<ellipse fill="none" stroke="black" cx="583" cy="-539" rx="80.9821" ry="18"/>
<text text-anchor="middle" x="583" y="-534.8" font-family="Times,serif" font-size="14.00">ActiveRecord::Base</text>
</g>
<!-- ActiveRecord::Base&#45;&gt;Client -->
<g id="edge1" class="edge"><title>ActiveRecord::Base&#45;&gt;Client</title>
<path fill="none" stroke="black" d="M549.974,-522.553C532.994,-515.229 511.764,-507.006 492,-502 426.91,-485.514 245.864,-506.089 192,-466 173.939,-452.558 159.062,-435.2 146.818,-416.033"/>
</g>
<!-- ActiveRecord::Base&#45;&gt;Project -->
<g id="edge2" class="edge"><title>ActiveRecord::Base&#45;&gt;Project</title>
<path fill="none" stroke="black" d="M544.811,-522.917C495.457,-503.306 415.188,-470.96 410,-466 407.105,-463.232 404.279,-460.372 401.521,-457.43"/>
</g>
<!-- ActiveRecord::Base&#45;&gt;Site -->
<g id="edge3" class="edge"><title>ActiveRecord::Base&#45;&gt;Site</title>
<path fill="none" stroke="black" d="M577.677,-520.785C565.851,-482.538 536.726,-388.348 515.062,-318.285"/>
</g>
<!-- ActiveRecord::Base&#45;&gt;Stakeholder -->
<g id="edge4" class="edge"><title>ActiveRecord::Base&#45;&gt;Stakeholder</title>
<path fill="none" stroke="black" d="M588.38,-520.785C602.02,-477.137 638.428,-360.631 660.415,-290.272"/>
</g>
<!-- ActiveRecord::Base&#45;&gt;StakeholderCompany -->
<g id="edge5" class="edge"><title>ActiveRecord::Base&#45;&gt;StakeholderCompany</title>
<path fill="none" stroke="black" d="M647.378,-528.017C691.181,-518.425 748.198,-500.132 788,-466 823.015,-435.973 849.702,-393.528 869.183,-353.136"/>
</g>
<!-- ActiveRecord::Base&#45;&gt;StakeholderCompanyType -->
<g id="edge6" class="edge"><title>ActiveRecord::Base&#45;&gt;StakeholderCompanyType</title>
<path fill="none" stroke="black" d="M661.347,-534.187C774.724,-527.248 977.293,-509.078 1035,-466 1097.08,-419.658 1126,-329.568 1138.19,-276.315"/>
</g>
</g>
</svg>
