<?xml version="1.0" encoding="UTF-8" standalone="no"?>
<!DOCTYPE svg PUBLIC "-//W3C//DTD SVG 1.1//EN"
 "http://www.w3.org/Graphics/SVG/1.1/DTD/svg11.dtd">
<!-- Generated by graphviz version 2.36.0 (20140111.2315)
 -->
<!-- Title: models_diagram Pages: 1 -->
<svg width="717pt" height="298pt"
 viewBox="0.00 0.00 717.00 298.00" xmlns="http://www.w3.org/2000/svg" xmlns:xlink="http://www.w3.org/1999/xlink">
<g id="graph0" class="graph" transform="scale(1 1) rotate(0) translate(4 294)">
<title>models_diagram</title>
<polygon fill="white" stroke="none" points="-4,4 -4,-294 713,-294 713,4 -4,4"/>
<!-- _diagram_info -->
<g id="node1" class="node"><title>_diagram_info</title>
<text text-anchor="start" x="51.3123" y="-275.1" font-family="Times,serif" font-size="13.00">Models diagram</text>
<text text-anchor="start" x="51.3123" y="-262.1" font-family="Times,serif" font-size="13.00">Date: Feb 19 2014 &#45; 18:06</text>
<text text-anchor="start" x="51.3123" y="-249.1" font-family="Times,serif" font-size="13.00">Migration version: 20140220012509</text>
<text text-anchor="start" x="51.3123" y="-236.1" font-family="Times,serif" font-size="13.00">Generated by RailRoady 1.1.1</text>
<text text-anchor="start" x="51.3123" y="-223.1" font-family="Times,serif" font-size="13.00">http://railroady.prestonlee.com</text>
</g>
<!-- ClientType -->
<g id="node2" class="node"><title>ClientType</title>
<ellipse fill="none" stroke="black" cx="49" cy="-18" rx="48.9161" ry="18"/>
<text text-anchor="middle" x="49" y="-13.8" font-family="Times,serif" font-size="14.00">ClientType</text>
</g>
<!-- Company -->
<g id="node3" class="node"><title>Company</title>
<ellipse fill="none" stroke="black" cx="414" cy="-162" rx="44.2443" ry="18"/>
<text text-anchor="middle" x="414" y="-157.8" font-family="Times,serif" font-size="14.00">Company</text>
</g>
<!-- Stakeholder -->
<g id="node9" class="node"><title>Stakeholder</title>
<ellipse fill="none" stroke="black" cx="516" cy="-90" rx="52.0206" ry="18"/>
<text text-anchor="middle" x="516" y="-85.8" font-family="Times,serif" font-size="14.00">Stakeholder</text>
</g>
<!-- Company&#45;&gt;Stakeholder -->
<g id="edge2" class="edge"><title>Company&#45;&gt;Stakeholder</title>
<path fill="none" stroke="#44189e" d="M442.322,-141.564C455.626,-132.433 471.517,-121.528 485.129,-112.186"/>
<ellipse fill="none" stroke="#44189e" cx="438.93" cy="-143.891" rx="4.00002" ry="4.00002"/>
<polygon fill="#44189e" stroke="#44189e" points="485.449,-111.966 496.241,-110.018 489.572,-109.137 493.694,-106.308 493.694,-106.308 493.694,-106.308 489.572,-109.137 491.148,-102.597 485.449,-111.966 485.449,-111.966"/>
</g>
<!-- Fault -->
<g id="node4" class="node"><title>Fault</title>
<ellipse fill="none" stroke="black" cx="84" cy="-162" rx="27.9317" ry="18"/>
<text text-anchor="middle" x="84" y="-157.8" font-family="Times,serif" font-size="14.00">Fault</text>
</g>
<!-- Phase -->
<g id="node5" class="node"><title>Phase</title>
<ellipse fill="none" stroke="black" cx="107" cy="-90" rx="30.607" ry="18"/>
<text text-anchor="middle" x="107" y="-85.8" font-family="Times,serif" font-size="14.00">Phase</text>
</g>
<!-- Phase&#45;&gt;ClientType -->
<g id="edge5" class="edge"><title>Phase&#45;&gt;ClientType</title>
<path fill="none" stroke="#76511f" d="M88.8103,-67.0469C82.5958,-59.5466 75.6084,-51.1135 69.2423,-43.4303"/>
<ellipse fill="none" stroke="#76511f" cx="91.5758" cy="-70.3846" rx="4.00002" ry="4.00002"/>
<polygon fill="#76511f" stroke="#76511f" points="69.0244,-43.1674 66.1093,-32.5961 65.8343,-39.3173 62.6442,-35.4672 62.6442,-35.4672 62.6442,-35.4672 65.8343,-39.3173 59.1791,-38.3383 69.0244,-43.1674 69.0244,-43.1674"/>
</g>
<!-- Project -->
<g id="node6" class="node"><title>Project</title>
<ellipse fill="none" stroke="black" cx="165" cy="-162" rx="35.2345" ry="18"/>
<text text-anchor="middle" x="165" y="-157.8" font-family="Times,serif" font-size="14.00">Project</text>
</g>
<!-- Project&#45;&gt;Phase -->
<g id="edge7" class="edge"><title>Project&#45;&gt;Phase</title>
<path fill="none" stroke="#ab0e33" d="M146.688,-138.9C140.351,-131.251 133.221,-122.646 126.771,-114.862"/>
<ellipse fill="none" stroke="#ab0e33" cx="149.287" cy="-142.036" rx="4.00002" ry="4.00002"/>
<polygon fill="#ab0e33" stroke="#ab0e33" points="126.489,-114.521 123.574,-103.95 123.299,-110.671 120.109,-106.821 120.109,-106.821 120.109,-106.821 123.299,-110.671 116.644,-109.692 126.489,-114.521 126.489,-114.521"/>
</g>
<!-- ProjectManager -->
<g id="node7" class="node"><title>ProjectManager</title>
<ellipse fill="none" stroke="black" cx="285" cy="-162" rx="66.3746" ry="18"/>
<text text-anchor="middle" x="285" y="-157.8" font-family="Times,serif" font-size="14.00">ProjectManager</text>
</g>
<!-- ProjectManager&#45;&gt;Phase -->
<g id="edge9" class="edge"><title>ProjectManager&#45;&gt;Phase</title>
<path fill="none" stroke="#d3defc" d="M241.367,-143.841C210.461,-131.687 169.592,-115.615 141.075,-104.4"/>
<ellipse fill="none" stroke="#d3defc" cx="245.257" cy="-145.371" rx="4.00001" ry="4.00001"/>
<polygon fill="#d3defc" stroke="#d3defc" points="140.846,-104.31 133.187,-96.4627 136.193,-102.48 131.54,-100.651 131.54,-100.651 131.54,-100.651 136.193,-102.48 129.893,-104.838 140.846,-104.31 140.846,-104.31"/>
</g>
<!-- Site -->
<g id="node8" class="node"><title>Site</title>
<ellipse fill="none" stroke="black" cx="503" cy="-162" rx="27" ry="18"/>
<text text-anchor="middle" x="503" y="-157.8" font-family="Times,serif" font-size="14.00">Site</text>
</g>
<!-- StakeholderType -->
<g id="node10" class="node"><title>StakeholderType</title>
<ellipse fill="none" stroke="black" cx="556" cy="-18" rx="69.3501" ry="18"/>
<text text-anchor="middle" x="556" y="-13.8" font-family="Times,serif" font-size="14.00">StakeholderType</text>
</g>
<!-- Stakeholder&#45;&gt;StakeholderType -->
<g id="edge12" class="edge"><title>Stakeholder&#45;&gt;StakeholderType</title>
<path fill="none" stroke="#daab53" d="M530.777,-63.141C534.135,-57.2638 537.705,-51.0168 541.069,-45.1285"/>
<polygon fill="#daab53" stroke="#daab53" points="530.644,-63.3725 521.776,-69.8223 528.164,-67.7137 525.683,-72.055 525.683,-72.055 525.683,-72.055 528.164,-67.7137 529.59,-74.2876 530.644,-63.3725 530.644,-63.3725"/>
<polygon fill="#daab53" stroke="#daab53" points="541.167,-44.9577 550.036,-38.5079 543.648,-40.6165 546.128,-36.2753 546.128,-36.2753 546.128,-36.2753 543.648,-40.6165 542.221,-34.0427 541.167,-44.9577 541.167,-44.9577"/>
</g>
<!-- Structure -->
<g id="node11" class="node"><title>Structure</title>
<ellipse fill="none" stroke="black" cx="667" cy="-162" rx="42.2841" ry="18"/>
<text text-anchor="middle" x="667" y="-157.8" font-family="Times,serif" font-size="14.00">Structure</text>
</g>
<!-- ActiveRecord::Base -->
<g id="node12" class="node"><title>ActiveRecord::Base</title>
<ellipse fill="none" stroke="black" cx="350" cy="-253" rx="80.9821" ry="18"/>
<text text-anchor="middle" x="350" y="-248.8" font-family="Times,serif" font-size="14.00">ActiveRecord::Base</text>
</g>
<!-- ActiveRecord::Base&#45;&gt;ClientType -->
<g id="edge1" class="edge"><title>ActiveRecord::Base&#45;&gt;ClientType</title>
<path fill="none" stroke="black" d="M316.029,-236.535C299.173,-229.388 278.329,-221.323 259,-216 210.816,-202.73 69.3879,-218.063 37,-180 1.94339,-138.801 26.5661,-68.2138 40.8081,-35.9671"/>
</g>
<!-- ActiveRecord::Base&#45;&gt;Company -->
<g id="edge3" class="edge"><title>ActiveRecord::Base&#45;&gt;Company</title>
<path fill="none" stroke="black" d="M362.34,-234.84C373.818,-218.878 390.806,-195.254 402.131,-179.506"/>
</g>
<!-- ActiveRecord::Base&#45;&gt;Fault -->
<g id="edge4" class="edge"><title>ActiveRecord::Base&#45;&gt;Fault</title>
<path fill="none" stroke="black" d="M314.494,-236.792C297.821,-229.952 277.571,-222.071 259,-216 198.751,-196.305 180.695,-201.314 121,-180 115.94,-178.193 110.624,-175.961 105.649,-173.715"/>
</g>
<!-- ActiveRecord::Base&#45;&gt;Phase -->
<g id="edge6" class="edge"><title>ActiveRecord::Base&#45;&gt;Phase</title>
<path fill="none" stroke="black" d="M316.011,-236.598C299.151,-229.465 278.309,-221.395 259,-216 212.977,-203.141 77.8316,-216.508 47,-180 25.7188,-154.8 62.5481,-121.901 87.3053,-103.996"/>
</g>
<!-- ActiveRecord::Base&#45;&gt;Project -->
<g id="edge8" class="edge"><title>ActiveRecord::Base&#45;&gt;Project</title>
<path fill="none" stroke="black" d="M317.352,-236.293C280.839,-218.728 222.521,-190.672 189.638,-174.853"/>
</g>
<!-- ActiveRecord::Base&#45;&gt;ProjectManager -->
<g id="edge10" class="edge"><title>ActiveRecord::Base&#45;&gt;ProjectManager</title>
<path fill="none" stroke="black" d="M337.467,-234.84C325.884,-218.979 308.774,-195.553 297.274,-179.806"/>
</g>
<!-- ActiveRecord::Base&#45;&gt;Site -->
<g id="edge11" class="edge"><title>ActiveRecord::Base&#45;&gt;Site</title>
<path fill="none" stroke="black" d="M377.707,-235.883C408.192,-218.15 456.417,-190.097 483.278,-174.472"/>
</g>
<!-- ActiveRecord::Base&#45;&gt;Stakeholder -->
<g id="edge13" class="edge"><title>ActiveRecord::Base&#45;&gt;Stakeholder</title>
<path fill="none" stroke="black" d="M422.034,-244.453C463.646,-235.978 512.799,-218.019 539,-180 554.123,-158.055 539.728,-126.867 527.89,-107.834"/>
</g>
<!-- ActiveRecord::Base&#45;&gt;StakeholderType -->
<g id="edge14" class="edge"><title>ActiveRecord::Base&#45;&gt;StakeholderType</title>
<path fill="none" stroke="black" d="M420.471,-243.912C465.024,-235.228 520.665,-217.238 556,-180 589.658,-144.528 586.169,-120.032 577,-72 574.625,-59.5561 569.375,-46.3061 564.718,-36.1671"/>
</g>
<!-- ActiveRecord::Base&#45;&gt;Structure -->
<g id="edge15" class="edge"><title>ActiveRecord::Base&#45;&gt;Structure</title>
<path fill="none" stroke="black" d="M399.442,-238.62C451.807,-224.375 536.853,-201.034 610,-180 617.642,-177.803 625.843,-175.389 633.577,-173.088"/>
</g>
</g>
</svg>
