<?xml version="1.0" encoding="UTF-8" standalone="no"?>
<!DOCTYPE svg PUBLIC "-//W3C//DTD SVG 1.1//EN"
 "http://www.w3.org/Graphics/SVG/1.1/DTD/svg11.dtd">
<!-- Generated by graphviz version 2.36.0 (20140111.2315)
 -->
<!-- Title: models_diagram Pages: 1 -->
<svg width="860pt" height="298pt"
 viewBox="0.00 0.00 860.25 298.00" xmlns="http://www.w3.org/2000/svg" xmlns:xlink="http://www.w3.org/1999/xlink">
<g id="graph0" class="graph" transform="scale(1 1) rotate(0) translate(4 294)">
<title>models_diagram</title>
<polygon fill="white" stroke="none" points="-4,4 -4,-294 856.246,-294 856.246,4 -4,4"/>
<!-- _diagram_info -->
<g id="node1" class="node"><title>_diagram_info</title>
<text text-anchor="start" x="51.5584" y="-275.1" font-family="Times,serif" font-size="13.00">Models diagram</text>
<text text-anchor="start" x="51.5584" y="-262.1" font-family="Times,serif" font-size="13.00">Date: Feb 20 2014 &#45; 09:15</text>
<text text-anchor="start" x="51.5584" y="-249.1" font-family="Times,serif" font-size="13.00">Migration version: 20140220171045</text>
<text text-anchor="start" x="51.5584" y="-236.1" font-family="Times,serif" font-size="13.00">Generated by RailRoady 1.1.1</text>
<text text-anchor="start" x="51.5584" y="-223.1" font-family="Times,serif" font-size="13.00">http://railroady.prestonlee.com</text>
</g>
<!-- ClientType -->
<g id="node2" class="node"><title>ClientType</title>
<ellipse fill="none" stroke="black" cx="65.2462" cy="-162" rx="48.9161" ry="18"/>
<text text-anchor="middle" x="65.2462" y="-157.8" font-family="Times,serif" font-size="14.00">ClientType</text>
</g>
<!-- Stakeholder -->
<g id="node10" class="node"><title>Stakeholder</title>
<ellipse fill="none" stroke="black" cx="117.246" cy="-90" rx="52.0206" ry="18"/>
<text text-anchor="middle" x="117.246" y="-85.8" font-family="Times,serif" font-size="14.00">Stakeholder</text>
</g>
<!-- ClientType&#45;&gt;Stakeholder -->
<g id="edge1" class="edge"><title>ClientType&#45;&gt;Stakeholder</title>
<path fill="none" stroke="#8f8971" d="M82.3973,-137.912C87.6171,-130.885 93.3772,-123.131 98.6855,-115.985"/>
<ellipse fill="none" stroke="#8f8971" cx="79.9547" cy="-141.2" rx="4.00002" ry="4.00002"/>
<polygon fill="#8f8971" stroke="#8f8971" points="98.6868,-115.984 108.262,-110.64 101.668,-111.97 104.65,-107.956 104.65,-107.956 104.65,-107.956 101.668,-111.97 101.038,-105.273 98.6868,-115.984 98.6868,-115.984"/>
</g>
<!-- Company -->
<g id="node3" class="node"><title>Company</title>
<ellipse fill="none" stroke="black" cx="177.246" cy="-162" rx="44.2443" ry="18"/>
<text text-anchor="middle" x="177.246" y="-157.8" font-family="Times,serif" font-size="14.00">Company</text>
</g>
<!-- Company&#45;&gt;Stakeholder -->
<g id="edge3" class="edge"><title>Company&#45;&gt;Stakeholder</title>
<path fill="none" stroke="#31506f" d="M157.916,-138.448C151.61,-131.091 144.58,-122.89 138.163,-115.403"/>
<ellipse fill="none" stroke="#31506f" cx="160.727" cy="-141.728" rx="4.00002" ry="4.00002"/>
<polygon fill="#31506f" stroke="#31506f" points="138.011,-115.226 134.92,-104.705 134.757,-111.43 131.503,-107.633 131.503,-107.633 131.503,-107.633 134.757,-111.43 128.087,-110.562 138.011,-115.226 138.011,-115.226"/>
</g>
<!-- Fault -->
<g id="node4" class="node"><title>Fault</title>
<ellipse fill="none" stroke="black" cx="824.246" cy="-162" rx="27.9317" ry="18"/>
<text text-anchor="middle" x="824.246" y="-157.8" font-family="Times,serif" font-size="14.00">Fault</text>
</g>
<!-- Site -->
<g id="node9" class="node"><title>Site</title>
<ellipse fill="none" stroke="black" cx="785.246" cy="-90" rx="27" ry="18"/>
<text text-anchor="middle" x="785.246" y="-85.8" font-family="Times,serif" font-size="14.00">Site</text>
</g>
<!-- Fault&#45;&gt;Site -->
<g id="edge5" class="edge"><title>Fault&#45;&gt;Site</title>
<path fill="none" stroke="#ee64e2" d="M811.303,-137.769C807.458,-130.868 803.229,-123.276 799.316,-116.253"/>
<ellipse fill="none" stroke="#ee64e2" cx="813.254" cy="-141.27" rx="4.00002" ry="4.00002"/>
<polygon fill="#ee64e2" stroke="#ee64e2" points="799.11,-115.883 798.174,-104.957 796.676,-111.515 794.243,-107.147 794.243,-107.147 794.243,-107.147 796.676,-111.515 790.311,-109.337 799.11,-115.883 799.11,-115.883"/>
</g>
<!-- InvestigationType -->
<g id="node5" class="node"><title>InvestigationType</title>
<ellipse fill="none" stroke="black" cx="628.246" cy="-162" rx="73.2513" ry="18"/>
<text text-anchor="middle" x="628.246" y="-157.8" font-family="Times,serif" font-size="14.00">InvestigationType</text>
</g>
<!-- Phase -->
<g id="node6" class="node"><title>Phase</title>
<ellipse fill="none" stroke="black" cx="410.246" cy="-90" rx="30.607" ry="18"/>
<text text-anchor="middle" x="410.246" y="-85.8" font-family="Times,serif" font-size="14.00">Phase</text>
</g>
<!-- InvestigationType&#45;&gt;Phase -->
<g id="edge7" class="edge"><title>InvestigationType&#45;&gt;Phase</title>
<path fill="none" stroke="#9704ab" d="M577.676,-144.762C537.247,-131.78 481.592,-113.909 445.762,-102.404"/>
<ellipse fill="none" stroke="#9704ab" cx="581.628" cy="-146.031" rx="4.00001" ry="4.00001"/>
<polygon fill="#9704ab" stroke="#9704ab" points="445.733,-102.395 437.587,-95.053 440.972,-100.866 436.212,-99.3375 436.212,-99.3375 436.212,-99.3375 440.972,-100.866 434.836,-103.622 445.733,-102.395 445.733,-102.395"/>
</g>
<!-- Project -->
<g id="node7" class="node"><title>Project</title>
<ellipse fill="none" stroke="black" cx="350.246" cy="-162" rx="35.2345" ry="18"/>
<text text-anchor="middle" x="350.246" y="-157.8" font-family="Times,serif" font-size="14.00">Project</text>
</g>
<!-- Project&#45;&gt;Phase -->
<g id="edge10" class="edge"><title>Project&#45;&gt;Phase</title>
<path fill="none" stroke="#2220d1" d="M369.268,-138.808C376.064,-130.879 383.733,-121.932 390.583,-113.94"/>
<ellipse fill="none" stroke="#2220d1" cx="366.464" cy="-142.079" rx="4.00002" ry="4.00002"/>
<polygon fill="#2220d1" stroke="#2220d1" points="390.589,-113.933 400.514,-109.269 393.843,-110.136 397.097,-106.34 397.097,-106.34 397.097,-106.34 393.843,-110.136 393.681,-103.412 390.589,-113.933 390.589,-113.933"/>
</g>
<!-- ProjectManager -->
<g id="node8" class="node"><title>ProjectManager</title>
<ellipse fill="none" stroke="black" cx="470.246" cy="-162" rx="66.3746" ry="18"/>
<text text-anchor="middle" x="470.246" y="-157.8" font-family="Times,serif" font-size="14.00">ProjectManager</text>
</g>
<!-- ProjectManager&#45;&gt;Phase -->
<g id="edge12" class="edge"><title>ProjectManager&#45;&gt;Phase</title>
<path fill="none" stroke="#a3f91c" d="M450.705,-138.202C444.175,-130.584 436.889,-122.084 430.319,-114.419"/>
<ellipse fill="none" stroke="#a3f91c" cx="453.424" cy="-141.374" rx="4.00002" ry="4.00002"/>
<polygon fill="#a3f91c" stroke="#a3f91c" points="430.049,-114.103 426.958,-103.582 426.795,-110.307 423.541,-106.511 423.541,-106.511 423.541,-106.511 426.795,-110.307 420.124,-109.439 430.049,-114.103 430.049,-114.103"/>
</g>
<!-- StructureType -->
<g id="node12" class="node"><title>StructureType</title>
<ellipse fill="none" stroke="black" cx="757.246" cy="-18" rx="60.1138" ry="18"/>
<text text-anchor="middle" x="757.246" y="-13.8" font-family="Times,serif" font-size="14.00">StructureType</text>
</g>
<!-- Site&#45;&gt;StructureType -->
<g id="edge14" class="edge"><title>Site&#45;&gt;StructureType</title>
<path fill="none" stroke="#a62ff4" d="M774.869,-63.056C772.549,-57.2578 770.088,-51.1035 767.763,-45.2914"/>
<polygon fill="#a62ff4" stroke="#a62ff4" points="774.897,-63.1262 774.432,-74.0823 776.754,-67.7686 778.611,-72.411 778.611,-72.411 778.611,-72.411 776.754,-67.7686 782.789,-70.7397 774.897,-63.1262 774.897,-63.1262"/>
<polygon fill="#a62ff4" stroke="#a62ff4" points="767.743,-45.241 768.207,-34.2849 765.886,-40.5986 764.029,-35.9562 764.029,-35.9562 764.029,-35.9562 765.886,-40.5986 759.85,-37.6275 767.743,-45.241 767.743,-45.241"/>
</g>
<!-- StakeholderType -->
<g id="node11" class="node"><title>StakeholderType</title>
<ellipse fill="none" stroke="black" cx="183.246" cy="-18" rx="69.3501" ry="18"/>
<text text-anchor="middle" x="183.246" y="-13.8" font-family="Times,serif" font-size="14.00">StakeholderType</text>
</g>
<!-- Stakeholder&#45;&gt;StakeholderType -->
<g id="edge16" class="edge"><title>Stakeholder&#45;&gt;StakeholderType</title>
<path fill="none" stroke="#4c5dae" d="M139.595,-65.2962C146.343,-58.1392 153.757,-50.2763 160.529,-43.0941"/>
<polygon fill="#4c5dae" stroke="#4c5dae" points="139.414,-65.4887 129.28,-69.6776 135.984,-69.1267 132.554,-72.7646 132.554,-72.7646 132.554,-72.7646 135.984,-69.1267 135.828,-75.8517 139.414,-65.4887 139.414,-65.4887"/>
<polygon fill="#4c5dae" stroke="#4c5dae" points="160.703,-42.9093 170.837,-38.7205 164.133,-39.2714 167.563,-35.6334 167.563,-35.6334 167.563,-35.6334 164.133,-39.2714 164.289,-32.5463 160.703,-42.9093 160.703,-42.9093"/>
</g>
<!-- ActiveRecord::Base -->
<g id="node13" class="node"><title>ActiveRecord::Base</title>
<ellipse fill="none" stroke="black" cx="350.246" cy="-253" rx="80.9821" ry="18"/>
<text text-anchor="middle" x="350.246" y="-248.8" font-family="Times,serif" font-size="14.00">ActiveRecord::Base</text>
</g>
<!-- ActiveRecord::Base&#45;&gt;ClientType -->
<g id="edge2" class="edge"><title>ActiveRecord::Base&#45;&gt;ClientType</title>
<path fill="none" stroke="black" d="M314.289,-236.66C297.697,-229.871 277.64,-222.068 259.246,-216 200.276,-196.546 184.084,-196.597 124.246,-180 117.158,-178.034 109.605,-175.893 102.353,-173.814"/>
</g>
<!-- ActiveRecord::Base&#45;&gt;Company -->
<g id="edge4" class="edge"><title>ActiveRecord::Base&#45;&gt;Company</title>
<path fill="none" stroke="black" d="M319.715,-236.293C286.735,-219.327 234.731,-192.573 203.512,-176.513"/>
</g>
<!-- ActiveRecord::Base&#45;&gt;Fault -->
<g id="edge6" class="edge"><title>ActiveRecord::Base&#45;&gt;Fault</title>
<path fill="none" stroke="black" d="M422.779,-244.833C509.478,-235.144 658.389,-214.93 782.246,-180 788.757,-178.164 795.634,-175.643 801.895,-173.104"/>
</g>
<!-- ActiveRecord::Base&#45;&gt;InvestigationType -->
<g id="edge8" class="edge"><title>ActiveRecord::Base&#45;&gt;InvestigationType</title>
<path fill="none" stroke="black" d="M394.603,-237.799C447.03,-221.015 533.665,-193.279 585.417,-176.712"/>
</g>
<!-- ActiveRecord::Base&#45;&gt;Phase -->
<g id="edge9" class="edge"><title>ActiveRecord::Base&#45;&gt;Phase</title>
<path fill="none" stroke="black" d="M333.93,-235.102C314.782,-213.136 287.84,-174.038 306.246,-144 322.551,-117.39 356.875,-103.616 381.637,-96.8637"/>
</g>
<!-- ActiveRecord::Base&#45;&gt;Project -->
<g id="edge11" class="edge"><title>ActiveRecord::Base&#45;&gt;Project</title>
<path fill="none" stroke="black" d="M350.246,-234.84C350.246,-219.08 350.246,-195.851 350.246,-180.107"/>
</g>
<!-- ActiveRecord::Base&#45;&gt;ProjectManager -->
<g id="edge13" class="edge"><title>ActiveRecord::Base&#45;&gt;ProjectManager</title>
<path fill="none" stroke="black" d="M372.536,-235.468C394.225,-219.382 426.971,-195.096 448.48,-179.143"/>
</g>
<!-- ActiveRecord::Base&#45;&gt;Site -->
<g id="edge15" class="edge"><title>ActiveRecord::Base&#45;&gt;Site</title>
<path fill="none" stroke="black" d="M426.186,-246.403C526.37,-237.647 695.697,-217.674 744.246,-180 767.229,-162.166 777.802,-128.447 782.289,-108.021"/>
</g>
<!-- ActiveRecord::Base&#45;&gt;Stakeholder -->
<g id="edge17" class="edge"><title>ActiveRecord::Base&#45;&gt;Stakeholder</title>
<path fill="none" stroke="black" d="M316.745,-236.559C299.826,-229.327 278.788,-221.184 259.246,-216 204.569,-201.495 44.31,-222.735 7.24615,-180 -3.23707,-167.913 -1.26502,-157.548 7.24615,-144 21.7927,-120.844 49.6105,-107.567 73.6308,-100.093"/>
</g>
<!-- ActiveRecord::Base&#45;&gt;StakeholderType -->
<g id="edge18" class="edge"><title>ActiveRecord::Base&#45;&gt;StakeholderType</title>
<path fill="none" stroke="black" d="M337.219,-234.947C326.185,-220.428 310.011,-198.969 296.246,-180 258.541,-128.039 215.273,-65.5675 194.948,-36.0455"/>
</g>
<!-- ActiveRecord::Base&#45;&gt;StructureType -->
<g id="edge19" class="edge"><title>ActiveRecord::Base&#45;&gt;StructureType</title>
<path fill="none" stroke="black" d="M425.213,-246.068C518.187,-237.213 669.433,-217.422 710.246,-180 731.654,-160.371 748.239,-73.5596 754.517,-36.1968"/>
</g>
</g>
</svg>
