<?xml version="1.0" encoding="UTF-8" standalone="no"?>
<!DOCTYPE svg PUBLIC "-//W3C//DTD SVG 1.1//EN"
 "http://www.w3.org/Graphics/SVG/1.1/DTD/svg11.dtd">
<!-- Generated by graphviz version 2.36.0 (20140111.2315)
 -->
<!-- Title: models_diagram Pages: 1 -->
<svg width="744pt" height="298pt"
 viewBox="0.00 0.00 744.00 298.00" xmlns="http://www.w3.org/2000/svg" xmlns:xlink="http://www.w3.org/1999/xlink">
<g id="graph0" class="graph" transform="scale(1 1) rotate(0) translate(4 294)">
<title>models_diagram</title>
<polygon fill="white" stroke="none" points="-4,4 -4,-294 740,-294 740,4 -4,4"/>
<!-- _diagram_info -->
<g id="node1" class="node"><title>_diagram_info</title>
<text text-anchor="start" x="55.3123" y="-275.1" font-family="Times,serif" font-size="13.00">Models diagram</text>
<text text-anchor="start" x="55.3123" y="-262.1" font-family="Times,serif" font-size="13.00">Date: Feb 19 2014 &#45; 17:58</text>
<text text-anchor="start" x="55.3123" y="-249.1" font-family="Times,serif" font-size="13.00">Migration version: 20140220012509</text>
<text text-anchor="start" x="55.3123" y="-236.1" font-family="Times,serif" font-size="13.00">Generated by RailRoady 1.1.1</text>
<text text-anchor="start" x="55.3123" y="-223.1" font-family="Times,serif" font-size="13.00">http://railroady.prestonlee.com</text>
</g>
<!-- ClientType -->
<g id="node2" class="node"><title>ClientType</title>
<ellipse fill="none" stroke="black" cx="49" cy="-18" rx="48.9161" ry="18"/>
<text text-anchor="middle" x="49" y="-13.8" font-family="Times,serif" font-size="14.00">ClientType</text>
</g>
<!-- Company -->
<g id="node3" class="node"><title>Company</title>
<ellipse fill="none" stroke="black" cx="289" cy="-162" rx="44.2443" ry="18"/>
<text text-anchor="middle" x="289" y="-157.8" font-family="Times,serif" font-size="14.00">Company</text>
</g>
<!-- Stakeholder -->
<g id="node9" class="node"><title>Stakeholder</title>
<ellipse fill="none" stroke="black" cx="543" cy="-90" rx="52.0206" ry="18"/>
<text text-anchor="middle" x="543" y="-85.8" font-family="Times,serif" font-size="14.00">Stakeholder</text>
</g>
<!-- Company&#45;&gt;Stakeholder -->
<g id="edge2" class="edge"><title>Company&#45;&gt;Stakeholder</title>
<path fill="none" stroke="#172ce2" d="M330.008,-147.612C334.051,-146.362 338.1,-145.139 342,-144 392.725,-129.188 451.182,-113.981 491.931,-103.677"/>
<ellipse fill="none" stroke="#172ce2" cx="326.097" cy="-148.836" rx="4.00001" ry="4.00001"/>
<polygon fill="#172ce2" stroke="#172ce2" points="491.938,-103.675 502.735,-105.594 496.786,-102.453 501.635,-101.231 501.635,-101.231 501.635,-101.231 496.786,-102.453 500.535,-96.8671 491.938,-103.675 491.938,-103.675"/>
</g>
<!-- Fault -->
<g id="node4" class="node"><title>Fault</title>
<ellipse fill="none" stroke="black" cx="161" cy="-162" rx="27.9317" ry="18"/>
<text text-anchor="middle" x="161" y="-157.8" font-family="Times,serif" font-size="14.00">Fault</text>
</g>
<!-- Phase -->
<g id="node5" class="node"><title>Phase</title>
<ellipse fill="none" stroke="black" cx="80" cy="-90" rx="30.607" ry="18"/>
<text text-anchor="middle" x="80" y="-85.8" font-family="Times,serif" font-size="14.00">Phase</text>
</g>
<!-- Phase&#45;&gt;ClientType -->
<g id="edge5" class="edge"><title>Phase&#45;&gt;ClientType</title>
<path fill="none" stroke="#e3a1a6" d="M69.3991,-65.0625C66.5515,-58.6325 63.4581,-51.6473 60.5612,-45.106"/>
<ellipse fill="none" stroke="#e3a1a6" cx="71.0337" cy="-68.7536" rx="4.00002" ry="4.00002"/>
<polygon fill="#e3a1a6" stroke="#e3a1a6" points="60.5585,-45.0997 60.6238,-34.134 58.5338,-40.528 56.5092,-35.9562 56.5092,-35.9562 56.5092,-35.9562 58.5338,-40.528 52.3946,-37.7784 60.5585,-45.0997 60.5585,-45.0997"/>
</g>
<!-- Project -->
<g id="node6" class="node"><title>Project</title>
<ellipse fill="none" stroke="black" cx="80" cy="-162" rx="35.2345" ry="18"/>
<text text-anchor="middle" x="80" y="-157.8" font-family="Times,serif" font-size="14.00">Project</text>
</g>
<!-- Project&#45;&gt;Phase -->
<g id="edge7" class="edge"><title>Project&#45;&gt;Phase</title>
<path fill="none" stroke="#c86e67" d="M80,-135.64C80,-130.063 80,-124.132 80,-118.476"/>
<ellipse fill="none" stroke="#c86e67" cx="80" cy="-139.697" rx="4" ry="4"/>
<polygon fill="#c86e67" stroke="#c86e67" points="80.0001,-118.104 84.5,-108.104 80,-113.104 80,-108.104 80,-108.104 80,-108.104 80,-113.104 75.5,-108.104 80.0001,-118.104 80.0001,-118.104"/>
</g>
<!-- ProjectManager -->
<g id="node7" class="node"><title>ProjectManager</title>
<ellipse fill="none" stroke="black" cx="418" cy="-162" rx="66.3746" ry="18"/>
<text text-anchor="middle" x="418" y="-157.8" font-family="Times,serif" font-size="14.00">ProjectManager</text>
</g>
<!-- Site -->
<g id="node8" class="node"><title>Site</title>
<ellipse fill="none" stroke="black" cx="530" cy="-162" rx="27" ry="18"/>
<text text-anchor="middle" x="530" y="-157.8" font-family="Times,serif" font-size="14.00">Site</text>
</g>
<!-- StakeholderType -->
<g id="node10" class="node"><title>StakeholderType</title>
<ellipse fill="none" stroke="black" cx="583" cy="-18" rx="69.3501" ry="18"/>
<text text-anchor="middle" x="583" y="-13.8" font-family="Times,serif" font-size="14.00">StakeholderType</text>
</g>
<!-- Stakeholder&#45;&gt;StakeholderType -->
<g id="edge11" class="edge"><title>Stakeholder&#45;&gt;StakeholderType</title>
<path fill="none" stroke="#303d66" d="M557.777,-63.141C561.135,-57.2638 564.705,-51.0168 568.069,-45.1285"/>
<polygon fill="#303d66" stroke="#303d66" points="557.644,-63.3725 548.776,-69.8223 555.164,-67.7137 552.683,-72.055 552.683,-72.055 552.683,-72.055 555.164,-67.7137 556.59,-74.2876 557.644,-63.3725 557.644,-63.3725"/>
<polygon fill="#303d66" stroke="#303d66" points="568.167,-44.9577 577.036,-38.5079 570.648,-40.6165 573.128,-36.2753 573.128,-36.2753 573.128,-36.2753 570.648,-40.6165 569.221,-34.0427 568.167,-44.9577 568.167,-44.9577"/>
</g>
<!-- Structure -->
<g id="node11" class="node"><title>Structure</title>
<ellipse fill="none" stroke="black" cx="694" cy="-162" rx="42.2841" ry="18"/>
<text text-anchor="middle" x="694" y="-157.8" font-family="Times,serif" font-size="14.00">Structure</text>
</g>
<!-- ActiveRecord::Base -->
<g id="node12" class="node"><title>ActiveRecord::Base</title>
<ellipse fill="none" stroke="black" cx="354" cy="-253" rx="80.9821" ry="18"/>
<text text-anchor="middle" x="354" y="-248.8" font-family="Times,serif" font-size="14.00">ActiveRecord::Base</text>
</g>
<!-- ActiveRecord::Base&#45;&gt;ClientType -->
<g id="edge1" class="edge"><title>ActiveRecord::Base&#45;&gt;ClientType</title>
<path fill="none" stroke="black" d="M320.037,-236.506C303.183,-229.351 282.338,-221.289 263,-216 213.735,-202.525 69.1666,-218.841 36,-180 0.854865,-138.842 26.0909,-68.2342 40.6402,-35.9746"/>
</g>
<!-- ActiveRecord::Base&#45;&gt;Company -->
<g id="edge3" class="edge"><title>ActiveRecord::Base&#45;&gt;Company</title>
<path fill="none" stroke="black" d="M341.467,-234.84C329.81,-218.878 312.556,-195.254 301.055,-179.506"/>
</g>
<!-- ActiveRecord::Base&#45;&gt;Fault -->
<g id="edge4" class="edge"><title>ActiveRecord::Base&#45;&gt;Fault</title>
<path fill="none" stroke="black" d="M320.382,-236.497C280.962,-218.319 216.746,-188.707 183.122,-173.201"/>
</g>
<!-- ActiveRecord::Base&#45;&gt;Phase -->
<g id="edge6" class="edge"><title>ActiveRecord::Base&#45;&gt;Phase</title>
<path fill="none" stroke="black" d="M324.273,-236.168C299.713,-222.555 264.399,-201.729 236,-180 217.524,-165.863 217.328,-156.949 198,-144 168.521,-124.251 130.481,-108.691 105.678,-99.6717"/>
</g>
<!-- ActiveRecord::Base&#45;&gt;Project -->
<g id="edge8" class="edge"><title>ActiveRecord::Base&#45;&gt;Project</title>
<path fill="none" stroke="black" d="M318.498,-236.777C301.827,-229.934 281.577,-222.055 263,-216 202.325,-196.225 184.754,-199.532 124,-180 118.387,-178.195 112.45,-176.061 106.817,-173.925"/>
</g>
<!-- ActiveRecord::Base&#45;&gt;ProjectManager -->
<g id="edge9" class="edge"><title>ActiveRecord::Base&#45;&gt;ProjectManager</title>
<path fill="none" stroke="black" d="M366.34,-234.84C377.745,-218.979 394.591,-195.553 405.915,-179.806"/>
</g>
<!-- ActiveRecord::Base&#45;&gt;Site -->
<g id="edge10" class="edge"><title>ActiveRecord::Base&#45;&gt;Site</title>
<path fill="none" stroke="black" d="M385.06,-236.293C420.784,-218.229 478.446,-189.07 509.167,-173.535"/>
</g>
<!-- ActiveRecord::Base&#45;&gt;Stakeholder -->
<g id="edge12" class="edge"><title>ActiveRecord::Base&#45;&gt;Stakeholder</title>
<path fill="none" stroke="black" d="M431.356,-247.459C478.578,-240.215 535.551,-222.498 566,-180 581.615,-158.205 566.83,-126.687 554.82,-107.594"/>
</g>
<!-- ActiveRecord::Base&#45;&gt;StakeholderType -->
<g id="edge13" class="edge"><title>ActiveRecord::Base&#45;&gt;StakeholderType</title>
<path fill="none" stroke="black" d="M429.731,-246.358C479.587,-238.737 542.831,-221.014 583,-180 617.215,-145.065 613.169,-120.032 604,-72 601.625,-59.5561 596.375,-46.3061 591.718,-36.1671"/>
</g>
<!-- ActiveRecord::Base&#45;&gt;Structure -->
<g id="edge14" class="edge"><title>ActiveRecord::Base&#45;&gt;Structure</title>
<path fill="none" stroke="black" d="M406.849,-239.236C463.825,-225.317 557.102,-202.068 637,-180 644.664,-177.883 652.875,-175.502 660.61,-173.206"/>
</g>
</g>
</svg>
