<?xml version="1.0" encoding="UTF-8" standalone="no"?>
<!DOCTYPE svg PUBLIC "-//W3C//DTD SVG 1.1//EN"
 "http://www.w3.org/Graphics/SVG/1.1/DTD/svg11.dtd">
<!-- Generated by graphviz version 2.36.0 (20140111.2315)
 -->
<!-- Title: models_diagram Pages: 1 -->
<svg width="1374pt" height="1070pt"
 viewBox="0.00 0.00 1374.18 1070.00" xmlns="http://www.w3.org/2000/svg" xmlns:xlink="http://www.w3.org/1999/xlink">
<g id="graph0" class="graph" transform="scale(1 1) rotate(0) translate(4 1066)">
<title>models_diagram</title>
<polygon fill="white" stroke="none" points="-4,4 -4,-1066 1370.18,-1066 1370.18,4 -4,4"/>
<!-- _diagram_info -->
<g id="node1" class="node"><title>_diagram_info</title>
<text text-anchor="start" x="246.496" y="-1047.1" font-family="Times,serif" font-size="13.00">Models diagram</text>
<text text-anchor="start" x="246.496" y="-1034.1" font-family="Times,serif" font-size="13.00">Date: Feb 19 2014 &#45; 17:49</text>
<text text-anchor="start" x="246.496" y="-1021.1" font-family="Times,serif" font-size="13.00">Migration version: 20140220012509</text>
<text text-anchor="start" x="246.496" y="-1008.1" font-family="Times,serif" font-size="13.00">Generated by RailRoady 1.1.1</text>
<text text-anchor="start" x="246.496" y="-995.1" font-family="Times,serif" font-size="13.00">http://railroady.prestonlee.com</text>
</g>
<!-- ClientType -->
<g id="node2" class="node"><title>ClientType</title>
<path fill="none" stroke="black" d="M138.679,-1C138.679,-1 247.689,-1 247.689,-1 253.689,-1 259.689,-7 259.689,-13 259.689,-13 259.689,-75 259.689,-75 259.689,-81 253.689,-87 247.689,-87 247.689,-87 138.679,-87 138.679,-87 132.679,-87 126.679,-81 126.679,-75 126.679,-75 126.679,-13 126.679,-13 126.679,-7 132.679,-1 138.679,-1"/>
<text text-anchor="middle" x="193.184" y="-71.8" font-family="Times,serif" font-size="14.00">ClientType</text>
<polyline fill="none" stroke="black" points="126.679,-65 259.689,-65 "/>
<text text-anchor="start" x="134.679" y="-49.8" font-family="Times,serif" font-size="14.00">id :integer</text>
<text text-anchor="start" x="134.679" y="-35.8" font-family="Times,serif" font-size="14.00">client_type :string</text>
<text text-anchor="start" x="134.679" y="-21.8" font-family="Times,serif" font-size="14.00">created_at :datetime</text>
<text text-anchor="start" x="134.679" y="-7.8" font-family="Times,serif" font-size="14.00">updated_at :datetime</text>
</g>
<!-- Company -->
<g id="node3" class="node"><title>Company</title>
<path fill="none" stroke="black" d="M58.227,-641C58.227,-641 178.141,-641 178.141,-641 184.141,-641 190.141,-647 190.141,-653 190.141,-653 190.141,-855 190.141,-855 190.141,-861 184.141,-867 178.141,-867 178.141,-867 58.227,-867 58.227,-867 52.227,-867 46.227,-861 46.227,-855 46.227,-855 46.227,-653 46.227,-653 46.227,-647 52.227,-641 58.227,-641"/>
<text text-anchor="middle" x="118.184" y="-851.8" font-family="Times,serif" font-size="14.00">Company</text>
<polyline fill="none" stroke="black" points="46.227,-845 190.141,-845 "/>
<text text-anchor="start" x="54.227" y="-829.8" font-family="Times,serif" font-size="14.00">id :integer</text>
<text text-anchor="start" x="54.227" y="-815.8" font-family="Times,serif" font-size="14.00">company_name :string</text>
<text text-anchor="start" x="54.227" y="-801.8" font-family="Times,serif" font-size="14.00">contact :string</text>
<text text-anchor="start" x="54.227" y="-787.8" font-family="Times,serif" font-size="14.00">address :string</text>
<text text-anchor="start" x="54.227" y="-773.8" font-family="Times,serif" font-size="14.00">city :string</text>
<text text-anchor="start" x="54.227" y="-759.8" font-family="Times,serif" font-size="14.00">state :string</text>
<text text-anchor="start" x="54.227" y="-745.8" font-family="Times,serif" font-size="14.00">zip :integer</text>
<text text-anchor="start" x="54.227" y="-731.8" font-family="Times,serif" font-size="14.00">phone :string</text>
<text text-anchor="start" x="54.227" y="-717.8" font-family="Times,serif" font-size="14.00">fax :string</text>
<text text-anchor="start" x="54.227" y="-703.8" font-family="Times,serif" font-size="14.00">email :string</text>
<text text-anchor="start" x="54.227" y="-689.8" font-family="Times,serif" font-size="14.00">website :text</text>
<text text-anchor="start" x="54.227" y="-675.8" font-family="Times,serif" font-size="14.00">notes :text</text>
<text text-anchor="start" x="54.227" y="-661.8" font-family="Times,serif" font-size="14.00">created_at :datetime</text>
<text text-anchor="start" x="54.227" y="-647.8" font-family="Times,serif" font-size="14.00">updated_at :datetime</text>
</g>
<!-- Fault -->
<g id="node4" class="node"><title>Fault</title>
<path fill="none" stroke="black" d="M219.679,-711C219.679,-711 328.689,-711 328.689,-711 334.689,-711 340.689,-717 340.689,-723 340.689,-723 340.689,-785 340.689,-785 340.689,-791 334.689,-797 328.689,-797 328.689,-797 219.679,-797 219.679,-797 213.679,-797 207.679,-791 207.679,-785 207.679,-785 207.679,-723 207.679,-723 207.679,-717 213.679,-711 219.679,-711"/>
<text text-anchor="middle" x="274.184" y="-781.8" font-family="Times,serif" font-size="14.00">Fault</text>
<polyline fill="none" stroke="black" points="207.679,-775 340.689,-775 "/>
<text text-anchor="start" x="215.679" y="-759.8" font-family="Times,serif" font-size="14.00">id :integer</text>
<text text-anchor="start" x="215.679" y="-745.8" font-family="Times,serif" font-size="14.00">name :string</text>
<text text-anchor="start" x="215.679" y="-731.8" font-family="Times,serif" font-size="14.00">created_at :datetime</text>
<text text-anchor="start" x="215.679" y="-717.8" font-family="Times,serif" font-size="14.00">updated_at :datetime</text>
</g>
<!-- Phase -->
<g id="node5" class="node"><title>Phase</title>
<path fill="none" stroke="black" d="M280.844,-125C280.844,-125 457.524,-125 457.524,-125 463.524,-125 469.524,-131 469.524,-137 469.524,-137 469.524,-507 469.524,-507 469.524,-513 463.524,-519 457.524,-519 457.524,-519 280.844,-519 280.844,-519 274.844,-519 268.844,-513 268.844,-507 268.844,-507 268.844,-137 268.844,-137 268.844,-131 274.844,-125 280.844,-125"/>
<text text-anchor="middle" x="369.184" y="-503.8" font-family="Times,serif" font-size="14.00">Phase</text>
<polyline fill="none" stroke="black" points="268.844,-497 469.524,-497 "/>
<text text-anchor="start" x="276.844" y="-481.8" font-family="Times,serif" font-size="14.00">id :integer</text>
<text text-anchor="start" x="276.844" y="-467.8" font-family="Times,serif" font-size="14.00">phase :string</text>
<text text-anchor="start" x="276.844" y="-453.8" font-family="Times,serif" font-size="14.00">project_id :integer</text>
<text text-anchor="start" x="276.844" y="-439.8" font-family="Times,serif" font-size="14.00">company_id :integer</text>
<text text-anchor="start" x="276.844" y="-425.8" font-family="Times,serif" font-size="14.00">project_manager_id :integer</text>
<text text-anchor="start" x="276.844" y="-411.8" font-family="Times,serif" font-size="14.00">investigation_type_id :string</text>
<text text-anchor="start" x="276.844" y="-397.8" font-family="Times,serif" font-size="14.00">site_id :integer</text>
<text text-anchor="start" x="276.844" y="-383.8" font-family="Times,serif" font-size="14.00">stakeholder_id :integer</text>
<text text-anchor="start" x="276.844" y="-369.8" font-family="Times,serif" font-size="14.00">description :text</text>
<text text-anchor="start" x="276.844" y="-355.8" font-family="Times,serif" font-size="14.00">proposal_date :date</text>
<text text-anchor="start" x="276.844" y="-341.8" font-family="Times,serif" font-size="14.00">proposal_number :string</text>
<text text-anchor="start" x="276.844" y="-327.8" font-family="Times,serif" font-size="14.00">report_date :date</text>
<text text-anchor="start" x="276.844" y="-313.8" font-family="Times,serif" font-size="14.00">notes :text</text>
<text text-anchor="start" x="276.844" y="-299.8" font-family="Times,serif" font-size="14.00">insurance_policy_number :string</text>
<text text-anchor="start" x="276.844" y="-285.8" font-family="Times,serif" font-size="14.00">insurance_notes :text</text>
<text text-anchor="start" x="276.844" y="-271.8" font-family="Times,serif" font-size="14.00">Rakefile :string</text>
<text text-anchor="start" x="276.844" y="-257.8" font-family="Times,serif" font-size="14.00">bill_name :string</text>
<text text-anchor="start" x="276.844" y="-243.8" font-family="Times,serif" font-size="14.00">bill_attention :string</text>
<text text-anchor="start" x="276.844" y="-229.8" font-family="Times,serif" font-size="14.00">bill_address :string</text>
<text text-anchor="start" x="276.844" y="-215.8" font-family="Times,serif" font-size="14.00">bill_city :string</text>
<text text-anchor="start" x="276.844" y="-201.8" font-family="Times,serif" font-size="14.00">bill_state :string</text>
<text text-anchor="start" x="276.844" y="-187.8" font-family="Times,serif" font-size="14.00">bill_zip :string</text>
<text text-anchor="start" x="276.844" y="-173.8" font-family="Times,serif" font-size="14.00">bad_pay_history :text</text>
<text text-anchor="start" x="276.844" y="-159.8" font-family="Times,serif" font-size="14.00">keywords :string</text>
<text text-anchor="start" x="276.844" y="-145.8" font-family="Times,serif" font-size="14.00">created_at :datetime</text>
<text text-anchor="start" x="276.844" y="-131.8" font-family="Times,serif" font-size="14.00">updated_at :datetime</text>
</g>
<!-- Phase&#45;&gt;ClientType -->
<g id="edge4" class="edge"><title>Phase&#45;&gt;ClientType</title>
<path fill="none" stroke="#7435a5" d="M264.191,-156.351C250.146,-134.326 236.701,-113.243 225.362,-95.4615"/>
<ellipse fill="none" stroke="#7435a5" cx="266.439" cy="-159.877" rx="4.00002" ry="4.00002"/>
<polygon fill="#7435a5" stroke="#7435a5" points="225.349,-95.4398 223.766,-84.5886 222.66,-91.224 219.972,-87.0082 219.972,-87.0082 219.972,-87.0082 222.66,-91.224 216.178,-89.4277 225.349,-95.4398 225.349,-95.4398"/>
</g>
<!-- Project -->
<g id="node6" class="node"><title>Project</title>
<path fill="none" stroke="black" d="M408.792,-683C408.792,-683 525.576,-683 525.576,-683 531.576,-683 537.576,-689 537.576,-695 537.576,-695 537.576,-813 537.576,-813 537.576,-819 531.576,-825 525.576,-825 525.576,-825 408.792,-825 408.792,-825 402.792,-825 396.792,-819 396.792,-813 396.792,-813 396.792,-695 396.792,-695 396.792,-689 402.792,-683 408.792,-683"/>
<text text-anchor="middle" x="467.184" y="-809.8" font-family="Times,serif" font-size="14.00">Project</text>
<polyline fill="none" stroke="black" points="396.792,-803 537.576,-803 "/>
<text text-anchor="start" x="404.792" y="-787.8" font-family="Times,serif" font-size="14.00">id :integer</text>
<text text-anchor="start" x="404.792" y="-773.8" font-family="Times,serif" font-size="14.00">name :string</text>
<text text-anchor="start" x="404.792" y="-759.8" font-family="Times,serif" font-size="14.00">name_alternate :string</text>
<text text-anchor="start" x="404.792" y="-745.8" font-family="Times,serif" font-size="14.00">number :string</text>
<text text-anchor="start" x="404.792" y="-731.8" font-family="Times,serif" font-size="14.00">prefix_id :integer</text>
<text text-anchor="start" x="404.792" y="-717.8" font-family="Times,serif" font-size="14.00">description :text</text>
<text text-anchor="start" x="404.792" y="-703.8" font-family="Times,serif" font-size="14.00">created_at :datetime</text>
<text text-anchor="start" x="404.792" y="-689.8" font-family="Times,serif" font-size="14.00">updated_at :datetime</text>
</g>
<!-- Project&#45;&gt;Phase -->
<g id="edge6" class="edge"><title>Project&#45;&gt;Phase</title>
<path fill="none" stroke="#c90dd5" d="M449.392,-674.934C440.016,-633.794 428.029,-581.197 416.197,-529.279"/>
<ellipse fill="none" stroke="#c90dd5" cx="450.332" cy="-679.056" rx="4.00001" ry="4.00001"/>
<polygon fill="#c90dd5" stroke="#c90dd5" points="416.134,-529.003 418.299,-518.253 415.023,-524.128 413.911,-519.253 413.911,-519.253 413.911,-519.253 415.023,-524.128 409.524,-520.253 416.134,-529.003 416.134,-529.003"/>
</g>
<!-- ProjectManager -->
<g id="node7" class="node"><title>ProjectManager</title>
<path fill="none" stroke="black" d="M567.679,-711C567.679,-711 676.689,-711 676.689,-711 682.689,-711 688.689,-717 688.689,-723 688.689,-723 688.689,-785 688.689,-785 688.689,-791 682.689,-797 676.689,-797 676.689,-797 567.679,-797 567.679,-797 561.679,-797 555.679,-791 555.679,-785 555.679,-785 555.679,-723 555.679,-723 555.679,-717 561.679,-711 567.679,-711"/>
<text text-anchor="middle" x="622.184" y="-781.8" font-family="Times,serif" font-size="14.00">ProjectManager</text>
<polyline fill="none" stroke="black" points="555.679,-775 688.689,-775 "/>
<text text-anchor="start" x="563.679" y="-759.8" font-family="Times,serif" font-size="14.00">id :integer</text>
<text text-anchor="start" x="563.679" y="-745.8" font-family="Times,serif" font-size="14.00">name :string</text>
<text text-anchor="start" x="563.679" y="-731.8" font-family="Times,serif" font-size="14.00">created_at :datetime</text>
<text text-anchor="start" x="563.679" y="-717.8" font-family="Times,serif" font-size="14.00">updated_at :datetime</text>
</g>
<!-- Site -->
<g id="node8" class="node"><title>Site</title>
<path fill="none" stroke="black" d="M718.562,-641C718.562,-641 833.807,-641 833.807,-641 839.807,-641 845.807,-647 845.807,-653 845.807,-653 845.807,-855 845.807,-855 845.807,-861 839.807,-867 833.807,-867 833.807,-867 718.562,-867 718.562,-867 712.562,-867 706.562,-861 706.562,-855 706.562,-855 706.562,-653 706.562,-653 706.562,-647 712.562,-641 718.562,-641"/>
<text text-anchor="middle" x="776.184" y="-851.8" font-family="Times,serif" font-size="14.00">Site</text>
<polyline fill="none" stroke="black" points="706.562,-845 845.807,-845 "/>
<text text-anchor="start" x="714.562" y="-829.8" font-family="Times,serif" font-size="14.00">id :integer</text>
<text text-anchor="start" x="714.562" y="-815.8" font-family="Times,serif" font-size="14.00">number :string</text>
<text text-anchor="start" x="714.562" y="-801.8" font-family="Times,serif" font-size="14.00">structure_id :integer</text>
<text text-anchor="start" x="714.562" y="-787.8" font-family="Times,serif" font-size="14.00">address :string</text>
<text text-anchor="start" x="714.562" y="-773.8" font-family="Times,serif" font-size="14.00">city :string</text>
<text text-anchor="start" x="714.562" y="-759.8" font-family="Times,serif" font-size="14.00">county :string</text>
<text text-anchor="start" x="714.562" y="-745.8" font-family="Times,serif" font-size="14.00">loc_page :text</text>
<text text-anchor="start" x="714.562" y="-731.8" font-family="Times,serif" font-size="14.00">loc_longitude :integer</text>
<text text-anchor="start" x="714.562" y="-717.8" font-family="Times,serif" font-size="14.00">loc_latitude :integer</text>
<text text-anchor="start" x="714.562" y="-703.8" font-family="Times,serif" font-size="14.00">apn :string</text>
<text text-anchor="start" x="714.562" y="-689.8" font-family="Times,serif" font-size="14.00">tombrobox :string</text>
<text text-anchor="start" x="714.562" y="-675.8" font-family="Times,serif" font-size="14.00">fault_id :integer</text>
<text text-anchor="start" x="714.562" y="-661.8" font-family="Times,serif" font-size="14.00">created_at :datetime</text>
<text text-anchor="start" x="714.562" y="-647.8" font-family="Times,serif" font-size="14.00">updated_at :datetime</text>
</g>
<!-- Stakeholder -->
<g id="node9" class="node"><title>Stakeholder</title>
<path fill="none" stroke="black" d="M875.792,-557C875.792,-557 1034.58,-557 1034.58,-557 1040.58,-557 1046.58,-563 1046.58,-569 1046.58,-569 1046.58,-939 1046.58,-939 1046.58,-945 1040.58,-951 1034.58,-951 1034.58,-951 875.792,-951 875.792,-951 869.792,-951 863.792,-945 863.792,-939 863.792,-939 863.792,-569 863.792,-569 863.792,-563 869.792,-557 875.792,-557"/>
<text text-anchor="middle" x="955.184" y="-935.8" font-family="Times,serif" font-size="14.00">Stakeholder</text>
<polyline fill="none" stroke="black" points="863.792,-929 1046.58,-929 "/>
<text text-anchor="start" x="871.792" y="-913.8" font-family="Times,serif" font-size="14.00">id :integer</text>
<text text-anchor="start" x="871.792" y="-899.8" font-family="Times,serif" font-size="14.00">stakeholder_type_id :integer</text>
<text text-anchor="start" x="871.792" y="-885.8" font-family="Times,serif" font-size="14.00">company_id :integer</text>
<text text-anchor="start" x="871.792" y="-871.8" font-family="Times,serif" font-size="14.00">name :string</text>
<text text-anchor="start" x="871.792" y="-857.8" font-family="Times,serif" font-size="14.00">client_type_id :string</text>
<text text-anchor="start" x="871.792" y="-843.8" font-family="Times,serif" font-size="14.00">address :string</text>
<text text-anchor="start" x="871.792" y="-829.8" font-family="Times,serif" font-size="14.00">city :string</text>
<text text-anchor="start" x="871.792" y="-815.8" font-family="Times,serif" font-size="14.00">state :string</text>
<text text-anchor="start" x="871.792" y="-801.8" font-family="Times,serif" font-size="14.00">zip :integer</text>
<text text-anchor="start" x="871.792" y="-787.8" font-family="Times,serif" font-size="14.00">work_phone :string</text>
<text text-anchor="start" x="871.792" y="-773.8" font-family="Times,serif" font-size="14.00">home_phone :string</text>
<text text-anchor="start" x="871.792" y="-759.8" font-family="Times,serif" font-size="14.00">cell_phone :string</text>
<text text-anchor="start" x="871.792" y="-745.8" font-family="Times,serif" font-size="14.00">fax_phone :string</text>
<text text-anchor="start" x="871.792" y="-731.8" font-family="Times,serif" font-size="14.00">email :string</text>
<text text-anchor="start" x="871.792" y="-717.8" font-family="Times,serif" font-size="14.00">address_alternate :string</text>
<text text-anchor="start" x="871.792" y="-703.8" font-family="Times,serif" font-size="14.00">city_alternate :string</text>
<text text-anchor="start" x="871.792" y="-689.8" font-family="Times,serif" font-size="14.00">state_alternate :string</text>
<text text-anchor="start" x="871.792" y="-675.8" font-family="Times,serif" font-size="14.00">zip_alternate :integer</text>
<text text-anchor="start" x="871.792" y="-661.8" font-family="Times,serif" font-size="14.00">work_phone_alternate :string</text>
<text text-anchor="start" x="871.792" y="-647.8" font-family="Times,serif" font-size="14.00">home_phone_alternate :string</text>
<text text-anchor="start" x="871.792" y="-633.8" font-family="Times,serif" font-size="14.00">cell_phone_alternate :string</text>
<text text-anchor="start" x="871.792" y="-619.8" font-family="Times,serif" font-size="14.00">fax_phone_alternate :string</text>
<text text-anchor="start" x="871.792" y="-605.8" font-family="Times,serif" font-size="14.00">email_alternate :string</text>
<text text-anchor="start" x="871.792" y="-591.8" font-family="Times,serif" font-size="14.00">notes :text</text>
<text text-anchor="start" x="871.792" y="-577.8" font-family="Times,serif" font-size="14.00">created_at :datetime</text>
<text text-anchor="start" x="871.792" y="-563.8" font-family="Times,serif" font-size="14.00">updated_at :datetime</text>
</g>
<!-- StakeholderType -->
<g id="node10" class="node"><title>StakeholderType</title>
<path fill="none" stroke="black" d="M1076.73,-711C1076.73,-711 1203.64,-711 1203.64,-711 1209.64,-711 1215.64,-717 1215.64,-723 1215.64,-723 1215.64,-785 1215.64,-785 1215.64,-791 1209.64,-797 1203.64,-797 1203.64,-797 1076.73,-797 1076.73,-797 1070.73,-797 1064.73,-791 1064.73,-785 1064.73,-785 1064.73,-723 1064.73,-723 1064.73,-717 1070.73,-711 1076.73,-711"/>
<text text-anchor="middle" x="1140.18" y="-781.8" font-family="Times,serif" font-size="14.00">StakeholderType</text>
<polyline fill="none" stroke="black" points="1064.73,-775 1215.64,-775 "/>
<text text-anchor="start" x="1072.73" y="-759.8" font-family="Times,serif" font-size="14.00">id :integer</text>
<text text-anchor="start" x="1072.73" y="-745.8" font-family="Times,serif" font-size="14.00">stakeholder_type :string</text>
<text text-anchor="start" x="1072.73" y="-731.8" font-family="Times,serif" font-size="14.00">created_at :datetime</text>
<text text-anchor="start" x="1072.73" y="-717.8" font-family="Times,serif" font-size="14.00">updated_at :datetime</text>
</g>
<!-- Structure -->
<g id="node11" class="node"><title>Structure</title>
<path fill="none" stroke="black" d="M1245.68,-711C1245.68,-711 1354.69,-711 1354.69,-711 1360.69,-711 1366.69,-717 1366.69,-723 1366.69,-723 1366.69,-785 1366.69,-785 1366.69,-791 1360.69,-797 1354.69,-797 1354.69,-797 1245.68,-797 1245.68,-797 1239.68,-797 1233.68,-791 1233.68,-785 1233.68,-785 1233.68,-723 1233.68,-723 1233.68,-717 1239.68,-711 1245.68,-711"/>
<text text-anchor="middle" x="1300.18" y="-781.8" font-family="Times,serif" font-size="14.00">Structure</text>
<polyline fill="none" stroke="black" points="1233.68,-775 1366.69,-775 "/>
<text text-anchor="start" x="1241.68" y="-759.8" font-family="Times,serif" font-size="14.00">id :integer</text>
<text text-anchor="start" x="1241.68" y="-745.8" font-family="Times,serif" font-size="14.00">structure :string</text>
<text text-anchor="start" x="1241.68" y="-731.8" font-family="Times,serif" font-size="14.00">created_at :datetime</text>
<text text-anchor="start" x="1241.68" y="-717.8" font-family="Times,serif" font-size="14.00">updated_at :datetime</text>
</g>
<!-- ActiveRecord::Base -->
<g id="node12" class="node"><title>ActiveRecord::Base</title>
<ellipse fill="none" stroke="black" cx="545.184" cy="-1025" rx="80.9821" ry="18"/>
<text text-anchor="middle" x="545.184" y="-1020.8" font-family="Times,serif" font-size="14.00">ActiveRecord::Base</text>
</g>
<!-- ActiveRecord::Base&#45;&gt;ClientType -->
<g id="edge1" class="edge"><title>ActiveRecord::Base&#45;&gt;ClientType</title>
<path fill="none" stroke="black" d="M512.649,-1008.46C495.618,-1001.02 474.194,-992.715 454.184,-988 408.918,-977.334 68.6225,-986.27 37.1841,-952 -81.3588,-822.782 118.068,-248.352 177.345,-87.1758"/>
</g>
<!-- ActiveRecord::Base&#45;&gt;Company -->
<g id="edge2" class="edge"><title>ActiveRecord::Base&#45;&gt;Company</title>
<path fill="none" stroke="black" d="M511.688,-1008.54C494.77,-1001.3 473.732,-993.163 454.184,-988 343.096,-958.661 288.784,-1022.66 198.184,-952 171.114,-930.887 153.154,-899.116 141.258,-867.216"/>
</g>
<!-- ActiveRecord::Base&#45;&gt;Fault -->
<g id="edge3" class="edge"><title>ActiveRecord::Base&#45;&gt;Fault</title>
<path fill="none" stroke="black" d="M507.642,-1008.88C491.266,-1002.35 471.816,-994.692 454.184,-988 410.412,-971.387 388.967,-984.415 355.184,-952 311.557,-910.14 290.617,-841.393 281.18,-797.178"/>
</g>
<!-- ActiveRecord::Base&#45;&gt;Phase -->
<g id="edge5" class="edge"><title>ActiveRecord::Base&#45;&gt;Phase</title>
<path fill="none" stroke="black" d="M507.096,-1008.99C462.939,-991.22 395.268,-962.684 388.184,-952 364.619,-916.461 362.73,-690.324 364.843,-519.284"/>
</g>
<!-- ActiveRecord::Base&#45;&gt;Project -->
<g id="edge7" class="edge"><title>ActiveRecord::Base&#45;&gt;Project</title>
<path fill="none" stroke="black" d="M540.186,-1006.76C529.78,-970.874 505.279,-886.377 487.526,-825.153"/>
</g>
<!-- ActiveRecord::Base&#45;&gt;ProjectManager -->
<g id="edge8" class="edge"><title>ActiveRecord::Base&#45;&gt;ProjectManager</title>
<path fill="none" stroke="black" d="M550.118,-1006.76C562.067,-965.018 592.841,-857.509 610.06,-797.355"/>
</g>
<!-- ActiveRecord::Base&#45;&gt;Site -->
<g id="edge9" class="edge"><title>ActiveRecord::Base&#45;&gt;Site</title>
<path fill="none" stroke="black" d="M595.054,-1010.8C627.865,-999.843 669.673,-981.243 697.184,-952 719.53,-928.248 735.867,-897.375 747.679,-867.142"/>
</g>
<!-- ActiveRecord::Base&#45;&gt;Stakeholder -->
<g id="edge10" class="edge"><title>ActiveRecord::Base&#45;&gt;Stakeholder</title>
<path fill="none" stroke="black" d="M626.076,-1023.39C693.536,-1018.94 788.846,-1003.02 854.184,-952 857.365,-949.516 860.454,-946.905 863.455,-944.18"/>
</g>
<!-- ActiveRecord::Base&#45;&gt;StakeholderType -->
<g id="edge11" class="edge"><title>ActiveRecord::Base&#45;&gt;StakeholderType</title>
<path fill="none" stroke="black" d="M625.426,-1022.06C751.732,-1017.48 989.341,-1002.25 1055.18,-952 1104.34,-914.488 1125.49,-842.792 1134.28,-797.016"/>
</g>
<!-- ActiveRecord::Base&#45;&gt;Structure -->
<g id="edge12" class="edge"><title>ActiveRecord::Base&#45;&gt;Structure</title>
<path fill="none" stroke="black" d="M623.584,-1020.25C792.082,-1011.55 1177.32,-987.929 1224.18,-952 1272.48,-914.973 1290.09,-843.133 1296.51,-797.196"/>
</g>
</g>
</svg>
