<?xml version="1.0" encoding="UTF-8" standalone="no"?>
<!DOCTYPE svg PUBLIC "-//W3C//DTD SVG 1.1//EN"
 "http://www.w3.org/Graphics/SVG/1.1/DTD/svg11.dtd">
<!-- Generated by graphviz version 2.36.0 (20140111.2315)
 -->
<!-- Title: models_diagram Pages: 1 -->
<svg width="693pt" height="298pt"
 viewBox="0.00 0.00 693.33 298.00" xmlns="http://www.w3.org/2000/svg" xmlns:xlink="http://www.w3.org/1999/xlink">
<g id="graph0" class="graph" transform="scale(1 1) rotate(0) translate(4 294)">
<title>models_diagram</title>
<polygon fill="white" stroke="none" points="-4,4 -4,-294 689.329,-294 689.329,4 -4,4"/>
<!-- _diagram_info -->
<g id="node1" class="node"><title>_diagram_info</title>
<text text-anchor="start" x="114.312" y="-275.1" font-family="Times,serif" font-size="13.00">Models diagram</text>
<text text-anchor="start" x="114.312" y="-262.1" font-family="Times,serif" font-size="13.00">Date: Feb 19 2014 &#45; 18:48</text>
<text text-anchor="start" x="114.312" y="-249.1" font-family="Times,serif" font-size="13.00">Migration version: 20140220022647</text>
<text text-anchor="start" x="114.312" y="-236.1" font-family="Times,serif" font-size="13.00">Generated by RailRoady 1.1.1</text>
<text text-anchor="start" x="114.312" y="-223.1" font-family="Times,serif" font-size="13.00">http://railroady.prestonlee.com</text>
</g>
<!-- ClientType -->
<g id="node2" class="node"><title>ClientType</title>
<ellipse fill="none" stroke="black" cx="193" cy="-162" rx="48.9161" ry="18"/>
<text text-anchor="middle" x="193" y="-157.8" font-family="Times,serif" font-size="14.00">ClientType</text>
</g>
<!-- Stakeholder -->
<g id="node9" class="node"><title>Stakeholder</title>
<ellipse fill="none" stroke="black" cx="153" cy="-90" rx="52.0206" ry="18"/>
<text text-anchor="middle" x="153" y="-85.8" font-family="Times,serif" font-size="14.00">Stakeholder</text>
</g>
<!-- ClientType&#45;&gt;Stakeholder -->
<g id="edge1" class="edge"><title>ClientType&#45;&gt;Stakeholder</title>
<path fill="none" stroke="#5b564c" d="M179.284,-136.998C175.507,-130.387 171.397,-123.194 167.573,-116.502"/>
<ellipse fill="none" stroke="#5b564c" cx="181.333" cy="-140.582" rx="4.00002" ry="4.00002"/>
<polygon fill="#5b564c" stroke="#5b564c" points="167.555,-116.471 166.501,-105.556 165.074,-112.13 162.594,-107.789 162.594,-107.789 162.594,-107.789 165.074,-112.13 158.687,-110.022 167.555,-116.471 167.555,-116.471"/>
</g>
<!-- Company -->
<g id="node3" class="node"><title>Company</title>
<ellipse fill="none" stroke="black" cx="44" cy="-162" rx="44.2443" ry="18"/>
<text text-anchor="middle" x="44" y="-157.8" font-family="Times,serif" font-size="14.00">Company</text>
</g>
<!-- Company&#45;&gt;Stakeholder -->
<g id="edge3" class="edge"><title>Company&#45;&gt;Stakeholder</title>
<path fill="none" stroke="#3b0beb" d="M73.7799,-141.875C88.3831,-132.497 105.991,-121.189 120.894,-111.619"/>
<ellipse fill="none" stroke="#3b0beb" cx="69.9506" cy="-144.334" rx="4.00002" ry="4.00002"/>
<polygon fill="#3b0beb" stroke="#3b0beb" points="120.899,-111.616 131.745,-109.998 125.106,-108.914 129.313,-106.212 129.313,-106.212 129.313,-106.212 125.106,-108.914 126.881,-102.425 120.899,-111.616 120.899,-111.616"/>
</g>
<!-- Fault -->
<g id="node4" class="node"><title>Fault</title>
<ellipse fill="none" stroke="black" cx="642" cy="-162" rx="27.9317" ry="18"/>
<text text-anchor="middle" x="642" y="-157.8" font-family="Times,serif" font-size="14.00">Fault</text>
</g>
<!-- Site -->
<g id="node8" class="node"><title>Site</title>
<ellipse fill="none" stroke="black" cx="642" cy="-90" rx="27" ry="18"/>
<text text-anchor="middle" x="642" y="-85.8" font-family="Times,serif" font-size="14.00">Site</text>
</g>
<!-- Fault&#45;&gt;Site -->
<g id="edge5" class="edge"><title>Fault&#45;&gt;Site</title>
<path fill="none" stroke="#97ae0c" d="M642,-135.64C642,-130.063 642,-124.132 642,-118.476"/>
<ellipse fill="none" stroke="#97ae0c" cx="642" cy="-139.697" rx="4" ry="4"/>
<polygon fill="#97ae0c" stroke="#97ae0c" points="642,-118.104 646.5,-108.104 642,-113.104 642,-108.104 642,-108.104 642,-108.104 642,-113.104 637.5,-108.104 642,-118.104 642,-118.104"/>
</g>
<!-- Phase -->
<g id="node5" class="node"><title>Phase</title>
<ellipse fill="none" stroke="black" cx="460" cy="-90" rx="30.607" ry="18"/>
<text text-anchor="middle" x="460" y="-85.8" font-family="Times,serif" font-size="14.00">Phase</text>
</g>
<!-- Project -->
<g id="node6" class="node"><title>Project</title>
<ellipse fill="none" stroke="black" cx="523" cy="-162" rx="35.2345" ry="18"/>
<text text-anchor="middle" x="523" y="-157.8" font-family="Times,serif" font-size="14.00">Project</text>
</g>
<!-- Project&#45;&gt;Phase -->
<g id="edge8" class="edge"><title>Project&#45;&gt;Phase</title>
<path fill="none" stroke="#7cdf7e" d="M503.609,-139.454C496.341,-131.379 488.059,-122.177 480.679,-113.977"/>
<ellipse fill="none" stroke="#7cdf7e" cx="506.342" cy="-142.492" rx="4.00002" ry="4.00002"/>
<polygon fill="#7cdf7e" stroke="#7cdf7e" points="480.632,-113.925 477.287,-103.481 477.287,-110.208 473.943,-106.492 473.943,-106.492 473.943,-106.492 477.287,-110.208 470.598,-109.502 480.632,-113.925 480.632,-113.925"/>
</g>
<!-- ProjectManager -->
<g id="node7" class="node"><title>ProjectManager</title>
<ellipse fill="none" stroke="black" cx="365" cy="-162" rx="66.3746" ry="18"/>
<text text-anchor="middle" x="365" y="-157.8" font-family="Times,serif" font-size="14.00">ProjectManager</text>
</g>
<!-- ProjectManager&#45;&gt;Phase -->
<g id="edge10" class="edge"><title>ProjectManager&#45;&gt;Phase</title>
<path fill="none" stroke="#81161b" d="M393.491,-140.007C406.16,-130.672 420.989,-119.745 433.426,-110.581"/>
<ellipse fill="none" stroke="#81161b" cx="390.254" cy="-142.392" rx="4.00002" ry="4.00002"/>
<polygon fill="#81161b" stroke="#81161b" points="433.548,-110.491 444.268,-108.182 437.573,-107.525 441.599,-104.559 441.599,-104.559 441.599,-104.559 437.573,-107.525 438.929,-100.936 433.548,-110.491 433.548,-110.491"/>
</g>
<!-- StructureType -->
<g id="node11" class="node"><title>StructureType</title>
<ellipse fill="none" stroke="black" cx="614" cy="-18" rx="60.1138" ry="18"/>
<text text-anchor="middle" x="614" y="-13.8" font-family="Times,serif" font-size="14.00">StructureType</text>
</g>
<!-- Site&#45;&gt;StructureType -->
<g id="edge12" class="edge"><title>Site&#45;&gt;StructureType</title>
<path fill="none" stroke="#fc301b" d="M631.622,-63.056C629.303,-57.2578 626.841,-51.1035 624.517,-45.2914"/>
<polygon fill="#fc301b" stroke="#fc301b" points="631.65,-63.1262 631.186,-74.0823 633.507,-67.7686 635.364,-72.411 635.364,-72.411 635.364,-72.411 633.507,-67.7686 639.543,-70.7397 631.65,-63.1262 631.65,-63.1262"/>
<polygon fill="#fc301b" stroke="#fc301b" points="624.496,-45.241 624.961,-34.2849 622.639,-40.5986 620.782,-35.9562 620.782,-35.9562 620.782,-35.9562 622.639,-40.5986 616.604,-37.6275 624.496,-45.241 624.496,-45.241"/>
</g>
<!-- StakeholderType -->
<g id="node10" class="node"><title>StakeholderType</title>
<ellipse fill="none" stroke="black" cx="212" cy="-18" rx="69.3501" ry="18"/>
<text text-anchor="middle" x="212" y="-13.8" font-family="Times,serif" font-size="14.00">StakeholderType</text>
</g>
<!-- Stakeholder&#45;&gt;StakeholderType -->
<g id="edge14" class="edge"><title>Stakeholder&#45;&gt;StakeholderType</title>
<path fill="none" stroke="#bca28e" d="M173.656,-64.4925C179.243,-57.864 185.296,-50.6823 190.907,-44.0258"/>
<polygon fill="#bca28e" stroke="#bca28e" points="173.427,-64.7647 163.541,-69.5108 170.205,-68.5878 166.982,-72.411 166.982,-72.411 166.982,-72.411 170.205,-68.5878 170.423,-75.3111 173.427,-64.7647 173.427,-64.7647"/>
<polygon fill="#bca28e" stroke="#bca28e" points="191.264,-43.6025 201.149,-38.8563 194.486,-39.7794 197.708,-35.9562 197.708,-35.9562 197.708,-35.9562 194.486,-39.7794 194.268,-33.0561 191.264,-43.6025 191.264,-43.6025"/>
</g>
<!-- ActiveRecord::Base -->
<g id="node12" class="node"><title>ActiveRecord::Base</title>
<ellipse fill="none" stroke="black" cx="413" cy="-253" rx="80.9821" ry="18"/>
<text text-anchor="middle" x="413" y="-248.8" font-family="Times,serif" font-size="14.00">ActiveRecord::Base</text>
</g>
<!-- ActiveRecord::Base&#45;&gt;ClientType -->
<g id="edge2" class="edge"><title>ActiveRecord::Base&#45;&gt;ClientType</title>
<path fill="none" stroke="black" d="M375.68,-236.902C333.263,-219.743 264.749,-192.026 224.781,-175.857"/>
</g>
<!-- ActiveRecord::Base&#45;&gt;Company -->
<g id="edge4" class="edge"><title>ActiveRecord::Base&#45;&gt;Company</title>
<path fill="none" stroke="black" d="M379.025,-236.547C362.169,-229.403 341.325,-221.337 322,-216 226.497,-189.625 198.61,-201.975 102,-180 94.1216,-178.208 85.7353,-175.956 77.8594,-173.683"/>
</g>
<!-- ActiveRecord::Base&#45;&gt;Fault -->
<g id="edge6" class="edge"><title>ActiveRecord::Base&#45;&gt;Fault</title>
<path fill="none" stroke="black" d="M452.115,-237.162C490,-222.738 549.037,-200.123 600,-180 606.146,-177.573 612.781,-174.909 618.921,-172.424"/>
</g>
<!-- ActiveRecord::Base&#45;&gt;Phase -->
<g id="edge7" class="edge"><title>ActiveRecord::Base&#45;&gt;Phase</title>
<path fill="none" stroke="black" d="M420.109,-235.06C425.99,-220.61 434.276,-199.189 440,-180 447.379,-155.263 453.47,-125.946 456.921,-107.909"/>
</g>
<!-- ActiveRecord::Base&#45;&gt;Project -->
<g id="edge9" class="edge"><title>ActiveRecord::Base&#45;&gt;Project</title>
<path fill="none" stroke="black" d="M433.432,-235.468C453.936,-218.879 485.217,-193.57 504.866,-177.672"/>
</g>
<!-- ActiveRecord::Base&#45;&gt;ProjectManager -->
<g id="edge11" class="edge"><title>ActiveRecord::Base&#45;&gt;ProjectManager</title>
<path fill="none" stroke="black" d="M403.745,-234.84C395.245,-219.08 382.717,-195.851 374.226,-180.107"/>
</g>
<!-- ActiveRecord::Base&#45;&gt;Site -->
<g id="edge13" class="edge"><title>ActiveRecord::Base&#45;&gt;Site</title>
<path fill="none" stroke="black" d="M480.845,-243.056C551.444,-232.194 655.012,-211.344 679,-180 696.695,-156.878 673.243,-124.072 656.403,-105.427"/>
</g>
<!-- ActiveRecord::Base&#45;&gt;Stakeholder -->
<g id="edge15" class="edge"><title>ActiveRecord::Base&#45;&gt;Stakeholder</title>
<path fill="none" stroke="black" d="M378.529,-236.602C361.733,-229.557 341.085,-221.559 322,-216 240.74,-192.33 188.895,-245.26 135,-180 118.035,-159.458 131.314,-127.251 142.298,-107.733"/>
</g>
<!-- ActiveRecord::Base&#45;&gt;StakeholderType -->
<g id="edge16" class="edge"><title>ActiveRecord::Base&#45;&gt;StakeholderType</title>
<path fill="none" stroke="black" d="M374.826,-237.08C348.006,-225.014 312.808,-205.792 289,-180 248.755,-136.401 225.633,-67.9389 216.537,-36.208"/>
</g>
<!-- ActiveRecord::Base&#45;&gt;StructureType -->
<g id="edge17" class="edge"><title>ActiveRecord::Base&#45;&gt;StructureType</title>
<path fill="none" stroke="black" d="M465.939,-239.341C499.352,-228.753 540.97,-210.361 567,-180 585.858,-158.005 603.798,-72.9188 610.852,-36.1195"/>
</g>
</g>
</svg>
