<?xml version="1.0" encoding="UTF-8" standalone="no"?>
<!DOCTYPE svg PUBLIC "-//W3C//DTD SVG 1.1//EN"
 "http://www.w3.org/Graphics/SVG/1.1/DTD/svg11.dtd">
<!-- Generated by graphviz version 2.36.0 (20140111.2315)
 -->
<!-- Title: models_diagram Pages: 1 -->
<svg width="924pt" height="298pt"
 viewBox="0.00 0.00 924.30 298.00" xmlns="http://www.w3.org/2000/svg" xmlns:xlink="http://www.w3.org/1999/xlink">
<g id="graph0" class="graph" transform="scale(1 1) rotate(0) translate(4 294)">
<title>models_diagram</title>
<polygon fill="white" stroke="none" points="-4,4 -4,-294 920.3,-294 920.3,4 -4,4"/>
<!-- _diagram_info -->
<g id="node1" class="node"><title>_diagram_info</title>
<text text-anchor="start" x="36.6123" y="-275.1" font-family="Times,serif" font-size="13.00">Models diagram</text>
<text text-anchor="start" x="36.6123" y="-262.1" font-family="Times,serif" font-size="13.00">Date: Feb 19 2014 &#45; 17:49</text>
<text text-anchor="start" x="36.6123" y="-249.1" font-family="Times,serif" font-size="13.00">Migration version: 20140220012509</text>
<text text-anchor="start" x="36.6123" y="-236.1" font-family="Times,serif" font-size="13.00">Generated by RailRoady 1.1.1</text>
<text text-anchor="start" x="36.6123" y="-223.1" font-family="Times,serif" font-size="13.00">http://railroady.prestonlee.com</text>
</g>
<!-- ClientType -->
<g id="node2" class="node"><title>ClientType</title>
<ellipse fill="none" stroke="black" cx="102.3" cy="-18" rx="48.9161" ry="18"/>
<text text-anchor="middle" x="102.3" y="-13.8" font-family="Times,serif" font-size="14.00">ClientType</text>
</g>
<!-- Company -->
<g id="node3" class="node"><title>Company</title>
<ellipse fill="none" stroke="black" cx="65.3001" cy="-162" rx="44.2443" ry="18"/>
<text text-anchor="middle" x="65.3001" y="-157.8" font-family="Times,serif" font-size="14.00">Company</text>
</g>
<!-- Fault -->
<g id="node4" class="node"><title>Fault</title>
<ellipse fill="none" stroke="black" cx="156.3" cy="-162" rx="27.9317" ry="18"/>
<text text-anchor="middle" x="156.3" y="-157.8" font-family="Times,serif" font-size="14.00">Fault</text>
</g>
<!-- Phase -->
<g id="node5" class="node"><title>Phase</title>
<ellipse fill="none" stroke="black" cx="212.3" cy="-90" rx="30.607" ry="18"/>
<text text-anchor="middle" x="212.3" y="-85.8" font-family="Times,serif" font-size="14.00">Phase</text>
</g>
<!-- Phase&#45;&gt;ClientType -->
<g id="edge4" class="edge"><title>Phase&#45;&gt;ClientType</title>
<path fill="none" stroke="#d21910" d="M185.452,-71.915C170.083,-62.1346 150.698,-49.7987 134.512,-39.4985"/>
<ellipse fill="none" stroke="#d21910" cx="189.005" cy="-74.176" rx="4.00002" ry="4.00002"/>
<polygon fill="#d21910" stroke="#d21910" points="134.331,-39.3835 128.311,-30.2183 130.113,-36.6991 125.895,-34.0147 125.895,-34.0147 125.895,-34.0147 130.113,-36.6991 123.479,-37.8112 134.331,-39.3835 134.331,-39.3835"/>
</g>
<!-- Project -->
<g id="node6" class="node"><title>Project</title>
<ellipse fill="none" stroke="black" cx="275.3" cy="-162" rx="35.2345" ry="18"/>
<text text-anchor="middle" x="275.3" y="-157.8" font-family="Times,serif" font-size="14.00">Project</text>
</g>
<!-- Project&#45;&gt;Phase -->
<g id="edge6" class="edge"><title>Project&#45;&gt;Phase</title>
<path fill="none" stroke="#e45e64" d="M255.909,-139.454C248.641,-131.379 240.359,-122.177 232.979,-113.977"/>
<ellipse fill="none" stroke="#e45e64" cx="258.642" cy="-142.492" rx="4.00002" ry="4.00002"/>
<polygon fill="#e45e64" stroke="#e45e64" points="232.932,-113.925 229.588,-103.481 229.588,-110.208 226.243,-106.492 226.243,-106.492 226.243,-106.492 229.588,-110.208 222.898,-109.502 232.932,-113.925 232.932,-113.925"/>
</g>
<!-- ProjectManager -->
<g id="node7" class="node"><title>ProjectManager</title>
<ellipse fill="none" stroke="black" cx="395.3" cy="-162" rx="66.3746" ry="18"/>
<text text-anchor="middle" x="395.3" y="-157.8" font-family="Times,serif" font-size="14.00">ProjectManager</text>
</g>
<!-- Site -->
<g id="node8" class="node"><title>Site</title>
<ellipse fill="none" stroke="black" cx="507.3" cy="-162" rx="27" ry="18"/>
<text text-anchor="middle" x="507.3" y="-157.8" font-family="Times,serif" font-size="14.00">Site</text>
</g>
<!-- Stakeholder -->
<g id="node9" class="node"><title>Stakeholder</title>
<ellipse fill="none" stroke="black" cx="604.3" cy="-162" rx="52.0206" ry="18"/>
<text text-anchor="middle" x="604.3" y="-157.8" font-family="Times,serif" font-size="14.00">Stakeholder</text>
</g>
<!-- StakeholderType -->
<g id="node10" class="node"><title>StakeholderType</title>
<ellipse fill="none" stroke="black" cx="744.3" cy="-162" rx="69.3501" ry="18"/>
<text text-anchor="middle" x="744.3" y="-157.8" font-family="Times,serif" font-size="14.00">StakeholderType</text>
</g>
<!-- Structure -->
<g id="node11" class="node"><title>Structure</title>
<ellipse fill="none" stroke="black" cx="874.3" cy="-162" rx="42.2841" ry="18"/>
<text text-anchor="middle" x="874.3" y="-157.8" font-family="Times,serif" font-size="14.00">Structure</text>
</g>
<!-- ActiveRecord::Base -->
<g id="node12" class="node"><title>ActiveRecord::Base</title>
<ellipse fill="none" stroke="black" cx="335.3" cy="-253" rx="80.9821" ry="18"/>
<text text-anchor="middle" x="335.3" y="-248.8" font-family="Times,serif" font-size="14.00">ActiveRecord::Base</text>
</g>
<!-- ActiveRecord::Base&#45;&gt;ClientType -->
<g id="edge1" class="edge"><title>ActiveRecord::Base&#45;&gt;ClientType</title>
<path fill="none" stroke="black" d="M301.345,-236.478C284.492,-229.317 263.647,-221.257 244.3,-216 193.953,-202.319 46.2456,-219.619 12.3001,-180 -28.1196,-132.825 44.4069,-64.6904 81.9078,-34.4549"/>
</g>
<!-- ActiveRecord::Base&#45;&gt;Company -->
<g id="edge2" class="edge"><title>ActiveRecord::Base&#45;&gt;Company</title>
<path fill="none" stroke="black" d="M299.286,-236.828C282.683,-230.072 262.633,-222.25 244.3,-216 189.579,-197.345 174.655,-196.682 119.3,-180 112.713,-178.015 105.69,-175.844 98.9633,-173.738"/>
</g>
<!-- ActiveRecord::Base&#45;&gt;Fault -->
<g id="edge3" class="edge"><title>ActiveRecord::Base&#45;&gt;Fault</title>
<path fill="none" stroke="black" d="M303.71,-236.293C267.478,-218.279 209.056,-189.231 177.748,-173.664"/>
</g>
<!-- ActiveRecord::Base&#45;&gt;Phase -->
<g id="edge5" class="edge"><title>ActiveRecord::Base&#45;&gt;Phase</title>
<path fill="none" stroke="black" d="M300.843,-236.677C277.643,-224.582 248.288,-205.493 231.3,-180 216.756,-158.174 213.085,-127.232 212.301,-108.173"/>
</g>
<!-- ActiveRecord::Base&#45;&gt;Project -->
<g id="edge7" class="edge"><title>ActiveRecord::Base&#45;&gt;Project</title>
<path fill="none" stroke="black" d="M323.731,-234.84C312.902,-218.777 296.842,-194.954 286.227,-179.208"/>
</g>
<!-- ActiveRecord::Base&#45;&gt;ProjectManager -->
<g id="edge8" class="edge"><title>ActiveRecord::Base&#45;&gt;ProjectManager</title>
<path fill="none" stroke="black" d="M346.869,-234.84C357.561,-218.979 373.355,-195.553 383.97,-179.806"/>
</g>
<!-- ActiveRecord::Base&#45;&gt;Site -->
<g id="edge9" class="edge"><title>ActiveRecord::Base&#45;&gt;Site</title>
<path fill="none" stroke="black" d="M365.654,-236.293C400.373,-218.329 456.296,-189.392 486.44,-173.794"/>
</g>
<!-- ActiveRecord::Base&#45;&gt;Stakeholder -->
<g id="edge10" class="edge"><title>ActiveRecord::Base&#45;&gt;Stakeholder</title>
<path fill="none" stroke="black" d="M378.52,-237.701C431.094,-220.306 518.901,-191.255 568.087,-174.981"/>
</g>
<!-- ActiveRecord::Base&#45;&gt;StakeholderType -->
<g id="edge11" class="edge"><title>ActiveRecord::Base&#45;&gt;StakeholderType</title>
<path fill="none" stroke="black" d="M391.312,-239.812C470.948,-222.483 615.763,-190.97 692.83,-174.2"/>
</g>
<!-- ActiveRecord::Base&#45;&gt;Structure -->
<g id="edge12" class="edge"><title>ActiveRecord::Base&#45;&gt;Structure</title>
<path fill="none" stroke="black" d="M408.635,-245.068C504.587,-235.109 677.549,-214.103 822.3,-180 829.049,-178.41 836.177,-176.344 842.919,-174.204"/>
</g>
</g>
</svg>
