<?xml version="1.0" encoding="UTF-8" standalone="no"?>
<!DOCTYPE svg PUBLIC "-//W3C//DTD SVG 1.1//EN"
 "http://www.w3.org/Graphics/SVG/1.1/DTD/svg11.dtd">
<!-- Generated by graphviz version 2.36.0 (20140111.2315)
 -->
<!-- Title: models_diagram Pages: 1 -->
<svg width="1142pt" height="902pt"
 viewBox="0.00 0.00 1141.92 902.00" xmlns="http://www.w3.org/2000/svg" xmlns:xlink="http://www.w3.org/1999/xlink">
<g id="graph0" class="graph" transform="scale(1 1) rotate(0) translate(4 898)">
<title>models_diagram</title>
<polygon fill="white" stroke="none" points="-4,4 -4,-898 1137.92,-898 1137.92,4 -4,4"/>
<!-- _diagram_info -->
<g id="node1" class="node"><title>_diagram_info</title>
<text text-anchor="start" x="210.234" y="-879.1" font-family="Times,serif" font-size="13.00">Models diagram</text>
<text text-anchor="start" x="210.234" y="-866.1" font-family="Times,serif" font-size="13.00">Date: Feb 20 2014 &#45; 09:15</text>
<text text-anchor="start" x="210.234" y="-853.1" font-family="Times,serif" font-size="13.00">Migration version: 20140220171045</text>
<text text-anchor="start" x="210.234" y="-840.1" font-family="Times,serif" font-size="13.00">Generated by RailRoady 1.1.1</text>
<text text-anchor="start" x="210.234" y="-827.1" font-family="Times,serif" font-size="13.00">http://railroady.prestonlee.com</text>
</g>
<!-- ClientType -->
<g id="node2" class="node"><title>ClientType</title>
<path fill="none" stroke="black" d="M62.4162,-627C62.4162,-627 171.427,-627 171.427,-627 177.427,-627 183.427,-633 183.427,-639 183.427,-639 183.427,-701 183.427,-701 183.427,-707 177.427,-713 171.427,-713 171.427,-713 62.4162,-713 62.4162,-713 56.4162,-713 50.4162,-707 50.4162,-701 50.4162,-701 50.4162,-639 50.4162,-639 50.4162,-633 56.4162,-627 62.4162,-627"/>
<text text-anchor="middle" x="116.922" y="-697.8" font-family="Times,serif" font-size="14.00">ClientType</text>
<polyline fill="none" stroke="black" points="50.4162,-691 183.427,-691 "/>
<text text-anchor="start" x="58.4162" y="-675.8" font-family="Times,serif" font-size="14.00">id :integer</text>
<text text-anchor="start" x="58.4162" y="-661.8" font-family="Times,serif" font-size="14.00">client_type :string</text>
<text text-anchor="start" x="58.4162" y="-647.8" font-family="Times,serif" font-size="14.00">created_at :datetime</text>
<text text-anchor="start" x="58.4162" y="-633.8" font-family="Times,serif" font-size="14.00">updated_at :datetime</text>
</g>
<!-- Stakeholder -->
<g id="node10" class="node"><title>Stakeholder</title>
<path fill="none" stroke="black" d="M106.53,-125C106.53,-125 265.313,-125 265.313,-125 271.313,-125 277.313,-131 277.313,-137 277.313,-137 277.313,-507 277.313,-507 277.313,-513 271.313,-519 265.313,-519 265.313,-519 106.53,-519 106.53,-519 100.53,-519 94.53,-513 94.53,-507 94.53,-507 94.53,-137 94.53,-137 94.53,-131 100.53,-125 106.53,-125"/>
<text text-anchor="middle" x="185.922" y="-503.8" font-family="Times,serif" font-size="14.00">Stakeholder</text>
<polyline fill="none" stroke="black" points="94.53,-497 277.313,-497 "/>
<text text-anchor="start" x="102.53" y="-481.8" font-family="Times,serif" font-size="14.00">id :integer</text>
<text text-anchor="start" x="102.53" y="-467.8" font-family="Times,serif" font-size="14.00">stakeholder_type_id :integer</text>
<text text-anchor="start" x="102.53" y="-453.8" font-family="Times,serif" font-size="14.00">company_id :integer</text>
<text text-anchor="start" x="102.53" y="-439.8" font-family="Times,serif" font-size="14.00">name :string</text>
<text text-anchor="start" x="102.53" y="-425.8" font-family="Times,serif" font-size="14.00">client_type_id :string</text>
<text text-anchor="start" x="102.53" y="-411.8" font-family="Times,serif" font-size="14.00">address :string</text>
<text text-anchor="start" x="102.53" y="-397.8" font-family="Times,serif" font-size="14.00">city :string</text>
<text text-anchor="start" x="102.53" y="-383.8" font-family="Times,serif" font-size="14.00">state :string</text>
<text text-anchor="start" x="102.53" y="-369.8" font-family="Times,serif" font-size="14.00">zip :integer</text>
<text text-anchor="start" x="102.53" y="-355.8" font-family="Times,serif" font-size="14.00">work_phone :string</text>
<text text-anchor="start" x="102.53" y="-341.8" font-family="Times,serif" font-size="14.00">home_phone :string</text>
<text text-anchor="start" x="102.53" y="-327.8" font-family="Times,serif" font-size="14.00">cell_phone :string</text>
<text text-anchor="start" x="102.53" y="-313.8" font-family="Times,serif" font-size="14.00">fax_phone :string</text>
<text text-anchor="start" x="102.53" y="-299.8" font-family="Times,serif" font-size="14.00">email :string</text>
<text text-anchor="start" x="102.53" y="-285.8" font-family="Times,serif" font-size="14.00">address_alternate :string</text>
<text text-anchor="start" x="102.53" y="-271.8" font-family="Times,serif" font-size="14.00">city_alternate :string</text>
<text text-anchor="start" x="102.53" y="-257.8" font-family="Times,serif" font-size="14.00">state_alternate :string</text>
<text text-anchor="start" x="102.53" y="-243.8" font-family="Times,serif" font-size="14.00">zip_alternate :integer</text>
<text text-anchor="start" x="102.53" y="-229.8" font-family="Times,serif" font-size="14.00">work_phone_alternate :string</text>
<text text-anchor="start" x="102.53" y="-215.8" font-family="Times,serif" font-size="14.00">home_phone_alternate :string</text>
<text text-anchor="start" x="102.53" y="-201.8" font-family="Times,serif" font-size="14.00">cell_phone_alternate :string</text>
<text text-anchor="start" x="102.53" y="-187.8" font-family="Times,serif" font-size="14.00">fax_phone_alternate :string</text>
<text text-anchor="start" x="102.53" y="-173.8" font-family="Times,serif" font-size="14.00">email_alternate :string</text>
<text text-anchor="start" x="102.53" y="-159.8" font-family="Times,serif" font-size="14.00">notes :text</text>
<text text-anchor="start" x="102.53" y="-145.8" font-family="Times,serif" font-size="14.00">created_at :datetime</text>
<text text-anchor="start" x="102.53" y="-131.8" font-family="Times,serif" font-size="14.00">updated_at :datetime</text>
</g>
<!-- ClientType&#45;&gt;Stakeholder -->
<g id="edge1" class="edge"><title>ClientType&#45;&gt;Stakeholder</title>
<path fill="none" stroke="#c8ab4c" d="M126.941,-618.76C131.874,-594.023 138.184,-562.379 144.834,-529.034"/>
<ellipse fill="none" stroke="#c8ab4c" cx="126.096" cy="-622.997" rx="4.00001" ry="4.00001"/>
<polygon fill="#c8ab4c" stroke="#c8ab4c" points="144.856,-528.922 151.225,-519.995 145.834,-524.018 146.812,-519.115 146.812,-519.115 146.812,-519.115 145.834,-524.018 142.399,-518.235 144.856,-528.922 144.856,-528.922"/>
</g>
<!-- Company -->
<g id="node3" class="node"><title>Company</title>
<path fill="none" stroke="black" d="M212.965,-557C212.965,-557 332.879,-557 332.879,-557 338.879,-557 344.879,-563 344.879,-569 344.879,-569 344.879,-771 344.879,-771 344.879,-777 338.879,-783 332.879,-783 332.879,-783 212.965,-783 212.965,-783 206.965,-783 200.965,-777 200.965,-771 200.965,-771 200.965,-569 200.965,-569 200.965,-563 206.965,-557 212.965,-557"/>
<text text-anchor="middle" x="272.922" y="-767.8" font-family="Times,serif" font-size="14.00">Company</text>
<polyline fill="none" stroke="black" points="200.965,-761 344.879,-761 "/>
<text text-anchor="start" x="208.965" y="-745.8" font-family="Times,serif" font-size="14.00">id :integer</text>
<text text-anchor="start" x="208.965" y="-731.8" font-family="Times,serif" font-size="14.00">company_name :string</text>
<text text-anchor="start" x="208.965" y="-717.8" font-family="Times,serif" font-size="14.00">contact :string</text>
<text text-anchor="start" x="208.965" y="-703.8" font-family="Times,serif" font-size="14.00">address :string</text>
<text text-anchor="start" x="208.965" y="-689.8" font-family="Times,serif" font-size="14.00">city :string</text>
<text text-anchor="start" x="208.965" y="-675.8" font-family="Times,serif" font-size="14.00">state :string</text>
<text text-anchor="start" x="208.965" y="-661.8" font-family="Times,serif" font-size="14.00">zip :integer</text>
<text text-anchor="start" x="208.965" y="-647.8" font-family="Times,serif" font-size="14.00">phone :string</text>
<text text-anchor="start" x="208.965" y="-633.8" font-family="Times,serif" font-size="14.00">fax :string</text>
<text text-anchor="start" x="208.965" y="-619.8" font-family="Times,serif" font-size="14.00">email :string</text>
<text text-anchor="start" x="208.965" y="-605.8" font-family="Times,serif" font-size="14.00">website :text</text>
<text text-anchor="start" x="208.965" y="-591.8" font-family="Times,serif" font-size="14.00">notes :text</text>
<text text-anchor="start" x="208.965" y="-577.8" font-family="Times,serif" font-size="14.00">created_at :datetime</text>
<text text-anchor="start" x="208.965" y="-563.8" font-family="Times,serif" font-size="14.00">updated_at :datetime</text>
</g>
<!-- Company&#45;&gt;Stakeholder -->
<g id="edge3" class="edge"><title>Company&#45;&gt;Stakeholder</title>
<path fill="none" stroke="#87ec78" d="M242.657,-548.637C241.031,-542.17 239.377,-535.594 237.707,-528.951"/>
<ellipse fill="none" stroke="#87ec78" cx="243.7" cy="-552.784" rx="4.00001" ry="4.00001"/>
<polygon fill="#87ec78" stroke="#87ec78" points="237.687,-528.872 239.613,-518.077 236.468,-524.023 235.249,-519.174 235.249,-519.174 235.249,-519.174 236.468,-524.023 230.884,-520.272 237.687,-528.872 237.687,-528.872"/>
</g>
<!-- Fault -->
<g id="node4" class="node"><title>Fault</title>
<path fill="none" stroke="black" d="M1013.42,-627C1013.42,-627 1122.43,-627 1122.43,-627 1128.43,-627 1134.43,-633 1134.43,-639 1134.43,-639 1134.43,-701 1134.43,-701 1134.43,-707 1128.43,-713 1122.43,-713 1122.43,-713 1013.42,-713 1013.42,-713 1007.42,-713 1001.42,-707 1001.42,-701 1001.42,-701 1001.42,-639 1001.42,-639 1001.42,-633 1007.42,-627 1013.42,-627"/>
<text text-anchor="middle" x="1067.92" y="-697.8" font-family="Times,serif" font-size="14.00">Fault</text>
<polyline fill="none" stroke="black" points="1001.42,-691 1134.43,-691 "/>
<text text-anchor="start" x="1009.42" y="-675.8" font-family="Times,serif" font-size="14.00">id :integer</text>
<text text-anchor="start" x="1009.42" y="-661.8" font-family="Times,serif" font-size="14.00">name :string</text>
<text text-anchor="start" x="1009.42" y="-647.8" font-family="Times,serif" font-size="14.00">created_at :datetime</text>
<text text-anchor="start" x="1009.42" y="-633.8" font-family="Times,serif" font-size="14.00">updated_at :datetime</text>
</g>
<!-- Site -->
<g id="node9" class="node"><title>Site</title>
<path fill="none" stroke="black" d="M974.806,-209C974.806,-209 1111.04,-209 1111.04,-209 1117.04,-209 1123.04,-215 1123.04,-221 1123.04,-221 1123.04,-423 1123.04,-423 1123.04,-429 1117.04,-435 1111.04,-435 1111.04,-435 974.806,-435 974.806,-435 968.806,-435 962.806,-429 962.806,-423 962.806,-423 962.806,-221 962.806,-221 962.806,-215 968.806,-209 974.806,-209"/>
<text text-anchor="middle" x="1042.92" y="-419.8" font-family="Times,serif" font-size="14.00">Site</text>
<polyline fill="none" stroke="black" points="962.806,-413 1123.04,-413 "/>
<text text-anchor="start" x="970.806" y="-397.8" font-family="Times,serif" font-size="14.00">id :integer</text>
<text text-anchor="start" x="970.806" y="-383.8" font-family="Times,serif" font-size="14.00">number :string</text>
<text text-anchor="start" x="970.806" y="-369.8" font-family="Times,serif" font-size="14.00">structure_type_id :integer</text>
<text text-anchor="start" x="970.806" y="-355.8" font-family="Times,serif" font-size="14.00">address :string</text>
<text text-anchor="start" x="970.806" y="-341.8" font-family="Times,serif" font-size="14.00">city :string</text>
<text text-anchor="start" x="970.806" y="-327.8" font-family="Times,serif" font-size="14.00">county :string</text>
<text text-anchor="start" x="970.806" y="-313.8" font-family="Times,serif" font-size="14.00">loc_page :text</text>
<text text-anchor="start" x="970.806" y="-299.8" font-family="Times,serif" font-size="14.00">loc_longitude :integer</text>
<text text-anchor="start" x="970.806" y="-285.8" font-family="Times,serif" font-size="14.00">loc_latitude :integer</text>
<text text-anchor="start" x="970.806" y="-271.8" font-family="Times,serif" font-size="14.00">apn :string</text>
<text text-anchor="start" x="970.806" y="-257.8" font-family="Times,serif" font-size="14.00">tombrobox :string</text>
<text text-anchor="start" x="970.806" y="-243.8" font-family="Times,serif" font-size="14.00">fault_id :integer</text>
<text text-anchor="start" x="970.806" y="-229.8" font-family="Times,serif" font-size="14.00">created_at :datetime</text>
<text text-anchor="start" x="970.806" y="-215.8" font-family="Times,serif" font-size="14.00">updated_at :datetime</text>
</g>
<!-- Fault&#45;&gt;Site -->
<g id="edge5" class="edge"><title>Fault&#45;&gt;Site</title>
<path fill="none" stroke="#9850bb" d="M1064.3,-618.873C1061.03,-573.585 1056.08,-505.077 1051.76,-445.386"/>
<ellipse fill="none" stroke="#9850bb" cx="1064.59" cy="-622.93" rx="4" ry="4"/>
<polygon fill="#9850bb" stroke="#9850bb" points="1051.74,-445.095 1055.51,-434.796 1051.38,-440.108 1051.02,-435.121 1051.02,-435.121 1051.02,-435.121 1051.38,-440.108 1046.53,-435.445 1051.74,-445.095 1051.74,-445.095"/>
</g>
<!-- InvestigationType -->
<g id="node5" class="node"><title>InvestigationType</title>
<path fill="none" stroke="black" d="M760.568,-627C760.568,-627 895.275,-627 895.275,-627 901.275,-627 907.275,-633 907.275,-639 907.275,-639 907.275,-701 907.275,-701 907.275,-707 901.275,-713 895.275,-713 895.275,-713 760.568,-713 760.568,-713 754.568,-713 748.568,-707 748.568,-701 748.568,-701 748.568,-639 748.568,-639 748.568,-633 754.568,-627 760.568,-627"/>
<text text-anchor="middle" x="827.922" y="-697.8" font-family="Times,serif" font-size="14.00">InvestigationType</text>
<polyline fill="none" stroke="black" points="748.568,-691 907.275,-691 "/>
<text text-anchor="start" x="756.568" y="-675.8" font-family="Times,serif" font-size="14.00">id :integer</text>
<text text-anchor="start" x="756.568" y="-661.8" font-family="Times,serif" font-size="14.00">investigation_type :string</text>
<text text-anchor="start" x="756.568" y="-647.8" font-family="Times,serif" font-size="14.00">created_at :datetime</text>
<text text-anchor="start" x="756.568" y="-633.8" font-family="Times,serif" font-size="14.00">updated_at :datetime</text>
</g>
<!-- Phase -->
<g id="node6" class="node"><title>Phase</title>
<path fill="none" stroke="black" d="M497.582,-125C497.582,-125 674.261,-125 674.261,-125 680.261,-125 686.261,-131 686.261,-137 686.261,-137 686.261,-507 686.261,-507 686.261,-513 680.261,-519 674.261,-519 674.261,-519 497.582,-519 497.582,-519 491.582,-519 485.582,-513 485.582,-507 485.582,-507 485.582,-137 485.582,-137 485.582,-131 491.582,-125 497.582,-125"/>
<text text-anchor="middle" x="585.922" y="-503.8" font-family="Times,serif" font-size="14.00">Phase</text>
<polyline fill="none" stroke="black" points="485.582,-497 686.261,-497 "/>
<text text-anchor="start" x="493.582" y="-481.8" font-family="Times,serif" font-size="14.00">id :integer</text>
<text text-anchor="start" x="493.582" y="-467.8" font-family="Times,serif" font-size="14.00">phase :string</text>
<text text-anchor="start" x="493.582" y="-453.8" font-family="Times,serif" font-size="14.00">project_id :integer</text>
<text text-anchor="start" x="493.582" y="-439.8" font-family="Times,serif" font-size="14.00">company_id :integer</text>
<text text-anchor="start" x="493.582" y="-425.8" font-family="Times,serif" font-size="14.00">project_manager_id :integer</text>
<text text-anchor="start" x="493.582" y="-411.8" font-family="Times,serif" font-size="14.00">investigation_type_id :string</text>
<text text-anchor="start" x="493.582" y="-397.8" font-family="Times,serif" font-size="14.00">site_id :integer</text>
<text text-anchor="start" x="493.582" y="-383.8" font-family="Times,serif" font-size="14.00">stakeholder_id :integer</text>
<text text-anchor="start" x="493.582" y="-369.8" font-family="Times,serif" font-size="14.00">description :text</text>
<text text-anchor="start" x="493.582" y="-355.8" font-family="Times,serif" font-size="14.00">proposal_date :date</text>
<text text-anchor="start" x="493.582" y="-341.8" font-family="Times,serif" font-size="14.00">proposal_number :string</text>
<text text-anchor="start" x="493.582" y="-327.8" font-family="Times,serif" font-size="14.00">report_date :date</text>
<text text-anchor="start" x="493.582" y="-313.8" font-family="Times,serif" font-size="14.00">notes :text</text>
<text text-anchor="start" x="493.582" y="-299.8" font-family="Times,serif" font-size="14.00">insurance_policy_number :string</text>
<text text-anchor="start" x="493.582" y="-285.8" font-family="Times,serif" font-size="14.00">insurance_notes :text</text>
<text text-anchor="start" x="493.582" y="-271.8" font-family="Times,serif" font-size="14.00">Rakefile :string</text>
<text text-anchor="start" x="493.582" y="-257.8" font-family="Times,serif" font-size="14.00">bill_name :string</text>
<text text-anchor="start" x="493.582" y="-243.8" font-family="Times,serif" font-size="14.00">bill_attention :string</text>
<text text-anchor="start" x="493.582" y="-229.8" font-family="Times,serif" font-size="14.00">bill_address :string</text>
<text text-anchor="start" x="493.582" y="-215.8" font-family="Times,serif" font-size="14.00">bill_city :string</text>
<text text-anchor="start" x="493.582" y="-201.8" font-family="Times,serif" font-size="14.00">bill_state :string</text>
<text text-anchor="start" x="493.582" y="-187.8" font-family="Times,serif" font-size="14.00">bill_zip :string</text>
<text text-anchor="start" x="493.582" y="-173.8" font-family="Times,serif" font-size="14.00">bad_pay_history :text</text>
<text text-anchor="start" x="493.582" y="-159.8" font-family="Times,serif" font-size="14.00">keywords :string</text>
<text text-anchor="start" x="493.582" y="-145.8" font-family="Times,serif" font-size="14.00">created_at :datetime</text>
<text text-anchor="start" x="493.582" y="-131.8" font-family="Times,serif" font-size="14.00">updated_at :datetime</text>
</g>
<!-- InvestigationType&#45;&gt;Phase -->
<g id="edge7" class="edge"><title>InvestigationType&#45;&gt;Phase</title>
<path fill="none" stroke="#ae04d8" d="M793.764,-620.163C767.18,-582.155 728.776,-527.246 692.194,-474.944"/>
<ellipse fill="none" stroke="#ae04d8" cx="796.197" cy="-623.642" rx="4.00002" ry="4.00002"/>
<polygon fill="#ae04d8" stroke="#ae04d8" points="692.072,-474.769 690.029,-463.996 689.207,-470.672 686.341,-466.575 686.341,-466.575 686.341,-466.575 689.207,-470.672 682.653,-469.154 692.072,-474.769 692.072,-474.769"/>
</g>
<!-- Project -->
<g id="node7" class="node"><title>Project</title>
<path fill="none" stroke="black" d="M450.53,-599C450.53,-599 567.313,-599 567.313,-599 573.313,-599 579.313,-605 579.313,-611 579.313,-611 579.313,-729 579.313,-729 579.313,-735 573.313,-741 567.313,-741 567.313,-741 450.53,-741 450.53,-741 444.53,-741 438.53,-735 438.53,-729 438.53,-729 438.53,-611 438.53,-611 438.53,-605 444.53,-599 450.53,-599"/>
<text text-anchor="middle" x="508.922" y="-725.8" font-family="Times,serif" font-size="14.00">Project</text>
<polyline fill="none" stroke="black" points="438.53,-719 579.313,-719 "/>
<text text-anchor="start" x="446.53" y="-703.8" font-family="Times,serif" font-size="14.00">id :integer</text>
<text text-anchor="start" x="446.53" y="-689.8" font-family="Times,serif" font-size="14.00">name :string</text>
<text text-anchor="start" x="446.53" y="-675.8" font-family="Times,serif" font-size="14.00">name_alternate :string</text>
<text text-anchor="start" x="446.53" y="-661.8" font-family="Times,serif" font-size="14.00">number :string</text>
<text text-anchor="start" x="446.53" y="-647.8" font-family="Times,serif" font-size="14.00">prefix_id :integer</text>
<text text-anchor="start" x="446.53" y="-633.8" font-family="Times,serif" font-size="14.00">description :text</text>
<text text-anchor="start" x="446.53" y="-619.8" font-family="Times,serif" font-size="14.00">created_at :datetime</text>
<text text-anchor="start" x="446.53" y="-605.8" font-family="Times,serif" font-size="14.00">updated_at :datetime</text>
</g>
<!-- Project&#45;&gt;Phase -->
<g id="edge10" class="edge"><title>Project&#45;&gt;Phase</title>
<path fill="none" stroke="#339283" d="M526.258,-591.099C530.477,-572.139 535.189,-550.968 540.064,-529.063"/>
<ellipse fill="none" stroke="#339283" cx="525.373" cy="-595.077" rx="4.00001" ry="4.00001"/>
<polygon fill="#339283" stroke="#339283" points="540.065,-529.056 546.63,-520.272 541.151,-524.176 542.237,-519.295 542.237,-519.295 542.237,-519.295 541.151,-524.176 537.845,-518.317 540.065,-529.056 540.065,-529.056"/>
</g>
<!-- ProjectManager -->
<g id="node8" class="node"><title>ProjectManager</title>
<path fill="none" stroke="black" d="M609.416,-627C609.416,-627 718.427,-627 718.427,-627 724.427,-627 730.427,-633 730.427,-639 730.427,-639 730.427,-701 730.427,-701 730.427,-707 724.427,-713 718.427,-713 718.427,-713 609.416,-713 609.416,-713 603.416,-713 597.416,-707 597.416,-701 597.416,-701 597.416,-639 597.416,-639 597.416,-633 603.416,-627 609.416,-627"/>
<text text-anchor="middle" x="663.922" y="-697.8" font-family="Times,serif" font-size="14.00">ProjectManager</text>
<polyline fill="none" stroke="black" points="597.416,-691 730.427,-691 "/>
<text text-anchor="start" x="605.416" y="-675.8" font-family="Times,serif" font-size="14.00">id :integer</text>
<text text-anchor="start" x="605.416" y="-661.8" font-family="Times,serif" font-size="14.00">name :string</text>
<text text-anchor="start" x="605.416" y="-647.8" font-family="Times,serif" font-size="14.00">created_at :datetime</text>
<text text-anchor="start" x="605.416" y="-633.8" font-family="Times,serif" font-size="14.00">updated_at :datetime</text>
</g>
<!-- ProjectManager&#45;&gt;Phase -->
<g id="edge12" class="edge"><title>ProjectManager&#45;&gt;Phase</title>
<path fill="none" stroke="#9abee3" d="M652.675,-619.111C647.089,-594.333 639.927,-562.564 632.378,-529.077"/>
<ellipse fill="none" stroke="#9abee3" cx="653.556" cy="-623.017" rx="4.00001" ry="4.00001"/>
<polygon fill="#9abee3" stroke="#9abee3" points="632.332,-528.87 634.522,-518.125 631.232,-523.992 630.132,-519.115 630.132,-519.115 630.132,-519.115 631.232,-523.992 625.743,-520.104 632.332,-528.87 632.332,-528.87"/>
</g>
<!-- StructureType -->
<g id="node12" class="node"><title>StructureType</title>
<path fill="none" stroke="black" d="M933.24,-1C933.24,-1 1044.6,-1 1044.6,-1 1050.6,-1 1056.6,-7 1056.6,-13 1056.6,-13 1056.6,-75 1056.6,-75 1056.6,-81 1050.6,-87 1044.6,-87 1044.6,-87 933.24,-87 933.24,-87 927.24,-87 921.24,-81 921.24,-75 921.24,-75 921.24,-13 921.24,-13 921.24,-7 927.24,-1 933.24,-1"/>
<text text-anchor="middle" x="988.922" y="-71.8" font-family="Times,serif" font-size="14.00">StructureType</text>
<polyline fill="none" stroke="black" points="921.24,-65 1056.6,-65 "/>
<text text-anchor="start" x="929.24" y="-49.8" font-family="Times,serif" font-size="14.00">id :integer</text>
<text text-anchor="start" x="929.24" y="-35.8" font-family="Times,serif" font-size="14.00">structure_type :string</text>
<text text-anchor="start" x="929.24" y="-21.8" font-family="Times,serif" font-size="14.00">created_at :datetime</text>
<text text-anchor="start" x="929.24" y="-7.8" font-family="Times,serif" font-size="14.00">updated_at :datetime</text>
</g>
<!-- Site&#45;&gt;StructureType -->
<g id="edge14" class="edge"><title>Site&#45;&gt;StructureType</title>
<path fill="none" stroke="#e4559b" d="M1019.03,-198.9C1012.04,-163.155 1004.76,-125.967 999.116,-97.103"/>
<polygon fill="#e4559b" stroke="#e4559b" points="1019.04,-198.926 1016.54,-209.604 1020,-203.833 1020.96,-208.74 1020.96,-208.74 1020.96,-208.74 1020,-203.833 1025.37,-207.876 1019.04,-198.926 1019.04,-198.926"/>
<polygon fill="#e4559b" stroke="#e4559b" points="999.109,-97.0704 1001.61,-86.3924 998.149,-92.1635 997.189,-87.2565 997.189,-87.2565 997.189,-87.2565 998.149,-92.1635 992.773,-88.1206 999.109,-97.0704 999.109,-97.0704"/>
</g>
<!-- StakeholderType -->
<g id="node11" class="node"><title>StakeholderType</title>
<path fill="none" stroke="black" d="M216.465,-1C216.465,-1 343.379,-1 343.379,-1 349.379,-1 355.379,-7 355.379,-13 355.379,-13 355.379,-75 355.379,-75 355.379,-81 349.379,-87 343.379,-87 343.379,-87 216.465,-87 216.465,-87 210.465,-87 204.465,-81 204.465,-75 204.465,-75 204.465,-13 204.465,-13 204.465,-7 210.465,-1 216.465,-1"/>
<text text-anchor="middle" x="279.922" y="-71.8" font-family="Times,serif" font-size="14.00">StakeholderType</text>
<polyline fill="none" stroke="black" points="204.465,-65 355.379,-65 "/>
<text text-anchor="start" x="212.465" y="-49.8" font-family="Times,serif" font-size="14.00">id :integer</text>
<text text-anchor="start" x="212.465" y="-35.8" font-family="Times,serif" font-size="14.00">stakeholder_type :string</text>
<text text-anchor="start" x="212.465" y="-21.8" font-family="Times,serif" font-size="14.00">created_at :datetime</text>
<text text-anchor="start" x="212.465" y="-7.8" font-family="Times,serif" font-size="14.00">updated_at :datetime</text>
</g>
<!-- Stakeholder&#45;&gt;StakeholderType -->
<g id="edge16" class="edge"><title>Stakeholder&#45;&gt;StakeholderType</title>
<path fill="none" stroke="#27b5db" d="M255.957,-115.363C258.166,-108.879 260.284,-102.659 262.284,-96.7869"/>
<polygon fill="#27b5db" stroke="#27b5db" points="255.957,-115.365 248.473,-123.38 254.345,-120.098 252.733,-124.831 252.733,-124.831 252.733,-124.831 254.345,-120.098 256.993,-126.281 255.957,-115.365 255.957,-115.365"/>
<polygon fill="#27b5db" stroke="#27b5db" points="262.309,-96.7132 269.793,-88.6979 263.921,-91.9801 265.533,-87.2471 265.533,-87.2471 265.533,-87.2471 263.921,-91.9801 261.273,-85.7963 262.309,-96.7132 262.309,-96.7132"/>
</g>
<!-- ActiveRecord::Base -->
<g id="node13" class="node"><title>ActiveRecord::Base</title>
<ellipse fill="none" stroke="black" cx="508.922" cy="-857" rx="80.9821" ry="18"/>
<text text-anchor="middle" x="508.922" y="-852.8" font-family="Times,serif" font-size="14.00">ActiveRecord::Base</text>
</g>
<!-- ActiveRecord::Base&#45;&gt;ClientType -->
<g id="edge2" class="edge"><title>ActiveRecord::Base&#45;&gt;ClientType</title>
<path fill="none" stroke="black" d="M474.957,-840.512C458.102,-833.358 437.258,-825.296 417.922,-820 319.824,-793.132 277.475,-839.006 191.922,-784 165.778,-767.191 146.655,-737.673 134.263,-713.021"/>
</g>
<!-- ActiveRecord::Base&#45;&gt;Company -->
<g id="edge4" class="edge"><title>ActiveRecord::Base&#45;&gt;Company</title>
<path fill="none" stroke="black" d="M472.538,-840.882C434.367,-824.615 377.394,-799.057 358.922,-784 354.144,-780.106 349.48,-775.895 344.952,-771.466"/>
</g>
<!-- ActiveRecord::Base&#45;&gt;Fault -->
<g id="edge6" class="edge"><title>ActiveRecord::Base&#45;&gt;Fault</title>
<path fill="none" stroke="black" d="M586.417,-851.618C704.127,-843.759 921.246,-824.193 986.922,-784 1014.1,-767.368 1034.78,-737.845 1048.45,-713.146"/>
</g>
<!-- ActiveRecord::Base&#45;&gt;InvestigationType -->
<g id="edge8" class="edge"><title>ActiveRecord::Base&#45;&gt;InvestigationType</title>
<path fill="none" stroke="black" d="M574.24,-846.3C622.972,-836.638 689.4,-818.136 738.922,-784 765.548,-765.646 788.01,-736.945 803.708,-713.062"/>
</g>
<!-- ActiveRecord::Base&#45;&gt;Phase -->
<g id="edge9" class="edge"><title>ActiveRecord::Base&#45;&gt;Phase</title>
<path fill="none" stroke="black" d="M481.818,-839.956C463.384,-827.346 440.492,-807.935 429.922,-784 388.985,-691.303 400.461,-652.956 429.922,-556 441.81,-516.874 462.693,-478.339 485.387,-444.219"/>
</g>
<!-- ActiveRecord::Base&#45;&gt;Project -->
<g id="edge11" class="edge"><title>ActiveRecord::Base&#45;&gt;Project</title>
<path fill="none" stroke="black" d="M508.922,-838.927C508.922,-816.744 508.922,-776.651 508.922,-741.204"/>
</g>
<!-- ActiveRecord::Base&#45;&gt;ProjectManager -->
<g id="edge13" class="edge"><title>ActiveRecord::Base&#45;&gt;ProjectManager</title>
<path fill="none" stroke="black" d="M529.659,-839.471C546.379,-825.609 569.98,-804.794 587.922,-784 606.842,-762.072 625.057,-735.256 638.91,-713.25"/>
</g>
<!-- ActiveRecord::Base&#45;&gt;Site -->
<g id="edge15" class="edge"><title>ActiveRecord::Base&#45;&gt;Site</title>
<path fill="none" stroke="black" d="M589.053,-853.597C701.792,-848.488 899.069,-832.66 948.922,-784 1022.72,-711.971 971.339,-657.045 991.922,-556 999.959,-516.54 1009.25,-473.436 1017.68,-435.151"/>
</g>
<!-- ActiveRecord::Base&#45;&gt;Stakeholder -->
<g id="edge17" class="edge"><title>ActiveRecord::Base&#45;&gt;Stakeholder</title>
<path fill="none" stroke="black" d="M475.945,-840.35C458.979,-832.974 437.745,-824.766 417.922,-820 336.095,-800.326 97.5318,-846.274 40.9216,-784 -46.2726,-688.083 24.5928,-540.03 94.4938,-437.707"/>
</g>
<!-- ActiveRecord::Base&#45;&gt;StakeholderType -->
<g id="edge18" class="edge"><title>ActiveRecord::Base&#45;&gt;StakeholderType</title>
<path fill="none" stroke="black" d="M471.627,-840.962C447.263,-829.151 416.916,-810.281 399.922,-784 380.689,-754.257 307.193,-239.278 285.797,-87.0487"/>
</g>
<!-- ActiveRecord::Base&#45;&gt;StructureType -->
<g id="edge19" class="edge"><title>ActiveRecord::Base&#45;&gt;StructureType</title>
<path fill="none" stroke="black" d="M588.326,-853.269C694.311,-847.806 873.614,-831.6 915.922,-784 964.72,-729.098 936.655,-195.397 953.922,-124 956.919,-111.606 961.784,-98.7336 966.947,-87.0661"/>
</g>
</g>
</svg>
