<?xml version="1.0" encoding="UTF-8" standalone="no"?>
<!DOCTYPE svg PUBLIC "-//W3C//DTD SVG 1.1//EN"
 "http://www.w3.org/Graphics/SVG/1.1/DTD/svg11.dtd">
<!-- Generated by graphviz version 2.36.0 (20140111.2315)
 -->
<!-- Title: models_diagram Pages: 1 -->
<svg width="580pt" height="298pt"
 viewBox="0.00 0.00 580.00 298.00" xmlns="http://www.w3.org/2000/svg" xmlns:xlink="http://www.w3.org/1999/xlink">
<g id="graph0" class="graph" transform="scale(1 1) rotate(0) translate(4 294)">
<title>models_diagram</title>
<polygon fill="white" stroke="none" points="-4,4 -4,-294 576,-294 576,4 -4,4"/>
<!-- _diagram_info -->
<g id="node1" class="node"><title>_diagram_info</title>
<text text-anchor="start" x="31.3123" y="-275.1" font-family="Times,serif" font-size="13.00">Models diagram</text>
<text text-anchor="start" x="31.3123" y="-262.1" font-family="Times,serif" font-size="13.00">Date: Feb 19 2014 &#45; 18:24</text>
<text text-anchor="start" x="31.3123" y="-249.1" font-family="Times,serif" font-size="13.00">Migration version: 20140220012509</text>
<text text-anchor="start" x="31.3123" y="-236.1" font-family="Times,serif" font-size="13.00">Generated by RailRoady 1.1.1</text>
<text text-anchor="start" x="31.3123" y="-223.1" font-family="Times,serif" font-size="13.00">http://railroady.prestonlee.com</text>
</g>
<!-- ClientType -->
<g id="node2" class="node"><title>ClientType</title>
<ellipse fill="none" stroke="black" cx="318" cy="-18" rx="48.9161" ry="18"/>
<text text-anchor="middle" x="318" y="-13.8" font-family="Times,serif" font-size="14.00">ClientType</text>
</g>
<!-- Company -->
<g id="node3" class="node"><title>Company</title>
<ellipse fill="none" stroke="black" cx="433" cy="-162" rx="44.2443" ry="18"/>
<text text-anchor="middle" x="433" y="-157.8" font-family="Times,serif" font-size="14.00">Company</text>
</g>
<!-- Stakeholder -->
<g id="node8" class="node"><title>Stakeholder</title>
<ellipse fill="none" stroke="black" cx="463" cy="-90" rx="52.0206" ry="18"/>
<text text-anchor="middle" x="463" y="-85.8" font-family="Times,serif" font-size="14.00">Stakeholder</text>
</g>
<!-- Company&#45;&gt;Stakeholder -->
<g id="edge2" class="edge"><title>Company&#45;&gt;Stakeholder</title>
<path fill="none" stroke="#73d460" d="M443.48,-136.548C446.102,-130.428 448.928,-123.835 451.593,-117.616"/>
<ellipse fill="none" stroke="#73d460" cx="441.838" cy="-140.378" rx="4.00002" ry="4.00002"/>
<polygon fill="#73d460" stroke="#73d460" points="451.657,-117.467 459.732,-110.048 453.627,-112.871 455.596,-108.275 455.596,-108.275 455.596,-108.275 453.627,-112.871 451.46,-106.503 451.657,-117.467 451.657,-117.467"/>
</g>
<!-- Fault -->
<g id="node4" class="node"><title>Fault</title>
<ellipse fill="none" stroke="black" cx="217" cy="-162" rx="27.9317" ry="18"/>
<text text-anchor="middle" x="217" y="-157.8" font-family="Times,serif" font-size="14.00">Fault</text>
</g>
<!-- Phase -->
<g id="node5" class="node"><title>Phase</title>
<ellipse fill="none" stroke="black" cx="230" cy="-90" rx="30.607" ry="18"/>
<text text-anchor="middle" x="230" y="-85.8" font-family="Times,serif" font-size="14.00">Phase</text>
</g>
<!-- Phase&#45;&gt;ClientType -->
<g id="edge5" class="edge"><title>Phase&#45;&gt;ClientType</title>
<path fill="none" stroke="#ab0a10" d="M253.896,-69.9918C265.07,-61.1036 278.447,-50.4628 290.083,-41.2063"/>
<ellipse fill="none" stroke="#ab0a10" cx="250.516" cy="-72.6801" rx="4.00002" ry="4.00002"/>
<polygon fill="#ab0a10" stroke="#ab0a10" points="290.367,-40.981 300.994,-38.2774 294.28,-37.8684 298.193,-34.7557 298.193,-34.7557 298.193,-34.7557 294.28,-37.8684 295.391,-31.234 290.367,-40.981 290.367,-40.981"/>
</g>
<!-- Project -->
<g id="node6" class="node"><title>Project</title>
<ellipse fill="none" stroke="black" cx="298" cy="-162" rx="35.2345" ry="18"/>
<text text-anchor="middle" x="298" y="-157.8" font-family="Times,serif" font-size="14.00">Project</text>
</g>
<!-- Project&#45;&gt;Phase -->
<g id="edge7" class="edge"><title>Project&#45;&gt;Phase</title>
<path fill="none" stroke="#6ed82a" d="M277.279,-139.67C269.189,-131.342 259.909,-121.789 251.725,-113.364"/>
<ellipse fill="none" stroke="#6ed82a" cx="280.121" cy="-142.596" rx="4.00002" ry="4.00002"/>
<polygon fill="#6ed82a" stroke="#6ed82a" points="251.55,-113.184 247.81,-102.876 248.066,-109.598 244.582,-106.011 244.582,-106.011 244.582,-106.011 248.066,-109.598 241.355,-109.147 251.55,-113.184 251.55,-113.184"/>
</g>
<!-- ProjectManager -->
<g id="node7" class="node"><title>ProjectManager</title>
<ellipse fill="none" stroke="black" cx="66" cy="-162" rx="66.3746" ry="18"/>
<text text-anchor="middle" x="66" y="-157.8" font-family="Times,serif" font-size="14.00">ProjectManager</text>
</g>
<!-- ProjectManager&#45;&gt;Phase -->
<g id="edge9" class="edge"><title>ProjectManager&#45;&gt;Phase</title>
<path fill="none" stroke="#b05979" d="M107.668,-143.215C135.314,-131.415 171.104,-116.139 196.82,-105.162"/>
<ellipse fill="none" stroke="#b05979" cx="103.66" cy="-144.926" rx="4.00001" ry="4.00001"/>
<polygon fill="#b05979" stroke="#b05979" points="196.948,-105.108 207.911,-105.321 201.546,-103.145 206.145,-101.182 206.145,-101.182 206.145,-101.182 201.546,-103.145 204.378,-97.0433 196.948,-105.108 196.948,-105.108"/>
</g>
<!-- StakeholderType -->
<g id="node9" class="node"><title>StakeholderType</title>
<ellipse fill="none" stroke="black" cx="503" cy="-18" rx="69.3501" ry="18"/>
<text text-anchor="middle" x="503" y="-13.8" font-family="Times,serif" font-size="14.00">StakeholderType</text>
</g>
<!-- Stakeholder&#45;&gt;StakeholderType -->
<g id="edge11" class="edge"><title>Stakeholder&#45;&gt;StakeholderType</title>
<path fill="none" stroke="#fbc333" d="M477.777,-63.141C481.135,-57.2638 484.705,-51.0168 488.069,-45.1285"/>
<polygon fill="#fbc333" stroke="#fbc333" points="477.644,-63.3725 468.776,-69.8223 475.164,-67.7137 472.683,-72.055 472.683,-72.055 472.683,-72.055 475.164,-67.7137 476.59,-74.2876 477.644,-63.3725 477.644,-63.3725"/>
<polygon fill="#fbc333" stroke="#fbc333" points="488.167,-44.9577 497.036,-38.5079 490.648,-40.6165 493.128,-36.2753 493.128,-36.2753 493.128,-36.2753 490.648,-40.6165 489.221,-34.0427 488.167,-44.9577 488.167,-44.9577"/>
</g>
<!-- ActiveRecord::Base -->
<g id="node10" class="node"><title>ActiveRecord::Base</title>
<ellipse fill="none" stroke="black" cx="330" cy="-253" rx="80.9821" ry="18"/>
<text text-anchor="middle" x="330" y="-248.8" font-family="Times,serif" font-size="14.00">ActiveRecord::Base</text>
</g>
<!-- ActiveRecord::Base&#45;&gt;ClientType -->
<g id="edge1" class="edge"><title>ActiveRecord::Base&#45;&gt;ClientType</title>
<path fill="none" stroke="black" d="M333.662,-234.934C336.582,-220.407 340.432,-198.944 342,-180 346.359,-127.333 331.544,-65.7023 323.241,-36.3054"/>
</g>
<!-- ActiveRecord::Base&#45;&gt;Company -->
<g id="edge3" class="edge"><title>ActiveRecord::Base&#45;&gt;Company</title>
<path fill="none" stroke="black" d="M349.374,-235.26C368.254,-218.945 396.728,-194.342 415.092,-178.474"/>
</g>
<!-- ActiveRecord::Base&#45;&gt;Fault -->
<g id="edge4" class="edge"><title>ActiveRecord::Base&#45;&gt;Fault</title>
<path fill="none" stroke="black" d="M309.01,-235.468C287.437,-218.477 254.249,-192.337 234.182,-176.533"/>
</g>
<!-- ActiveRecord::Base&#45;&gt;Phase -->
<g id="edge6" class="edge"><title>ActiveRecord::Base&#45;&gt;Phase</title>
<path fill="none" stroke="black" d="M293.546,-236.915C251.295,-219.066 186.577,-190.452 180,-180 171.479,-166.458 174.093,-158.87 180,-144 186.351,-128.012 200.066,-114.053 211.527,-104.48"/>
</g>
<!-- ActiveRecord::Base&#45;&gt;Project -->
<g id="edge8" class="edge"><title>ActiveRecord::Base&#45;&gt;Project</title>
<path fill="none" stroke="black" d="M323.83,-234.84C318.127,-218.979 309.704,-195.553 304.042,-179.806"/>
</g>
<!-- ActiveRecord::Base&#45;&gt;ProjectManager -->
<g id="edge10" class="edge"><title>ActiveRecord::Base&#45;&gt;ProjectManager</title>
<path fill="none" stroke="black" d="M293.499,-236.793C276.972,-230.106 257.119,-222.348 239,-216 195.717,-200.835 145.535,-185.729 110.4,-175.547"/>
</g>
<!-- ActiveRecord::Base&#45;&gt;Stakeholder -->
<g id="edge12" class="edge"><title>ActiveRecord::Base&#45;&gt;Stakeholder</title>
<path fill="none" stroke="black" d="M390.195,-240.808C424.584,-230.997 464.94,-212.915 486,-180 500.364,-157.55 486.2,-126.516 474.615,-107.651"/>
</g>
<!-- ActiveRecord::Base&#45;&gt;StakeholderType -->
<g id="edge13" class="edge"><title>ActiveRecord::Base&#45;&gt;StakeholderType</title>
<path fill="none" stroke="black" d="M390.196,-240.771C427.545,-230.821 473.817,-212.603 503,-180 535.613,-143.565 533.169,-120.032 524,-72 521.625,-59.5561 516.375,-46.3061 511.718,-36.1671"/>
</g>
</g>
</svg>
