<?xml version="1.0" encoding="UTF-8" standalone="no"?>
<!DOCTYPE svg PUBLIC "-//W3C//DTD SVG 1.1//EN"
 "http://www.w3.org/Graphics/SVG/1.1/DTD/svg11.dtd">
<!-- Generated by graphviz version 2.36.0 (20140111.2315)
 -->
<!-- Title: models_diagram Pages: 1 -->
<svg width="770pt" height="902pt"
 viewBox="0.00 0.00 770.00 902.00" xmlns="http://www.w3.org/2000/svg" xmlns:xlink="http://www.w3.org/1999/xlink">
<g id="graph0" class="graph" transform="scale(1 1) rotate(0) translate(4 898)">
<title>models_diagram</title>
<polygon fill="white" stroke="none" points="-4,4 -4,-898 766,-898 766,4 -4,4"/>
<!-- _diagram_info -->
<g id="node1" class="node"><title>_diagram_info</title>
<text text-anchor="start" x="161.312" y="-879.1" font-family="Times,serif" font-size="13.00">Models diagram</text>
<text text-anchor="start" x="161.312" y="-866.1" font-family="Times,serif" font-size="13.00">Date: Feb 19 2014 &#45; 18:24</text>
<text text-anchor="start" x="161.312" y="-853.1" font-family="Times,serif" font-size="13.00">Migration version: 20140220012509</text>
<text text-anchor="start" x="161.312" y="-840.1" font-family="Times,serif" font-size="13.00">Generated by RailRoady 1.1.1</text>
<text text-anchor="start" x="161.312" y="-827.1" font-family="Times,serif" font-size="13.00">http://railroady.prestonlee.com</text>
</g>
<!-- ClientType -->
<g id="node2" class="node"><title>ClientType</title>
<path fill="none" stroke="black" d="M374.495,-1C374.495,-1 483.505,-1 483.505,-1 489.505,-1 495.505,-7 495.505,-13 495.505,-13 495.505,-75 495.505,-75 495.505,-81 489.505,-87 483.505,-87 483.505,-87 374.495,-87 374.495,-87 368.495,-87 362.495,-81 362.495,-75 362.495,-75 362.495,-13 362.495,-13 362.495,-7 368.495,-1 374.495,-1"/>
<text text-anchor="middle" x="429" y="-71.8" font-family="Times,serif" font-size="14.00">ClientType</text>
<polyline fill="none" stroke="black" points="362.495,-65 495.505,-65 "/>
<text text-anchor="start" x="370.495" y="-49.8" font-family="Times,serif" font-size="14.00">id :integer</text>
<text text-anchor="start" x="370.495" y="-35.8" font-family="Times,serif" font-size="14.00">client_type :string</text>
<text text-anchor="start" x="370.495" y="-21.8" font-family="Times,serif" font-size="14.00">created_at :datetime</text>
<text text-anchor="start" x="370.495" y="-7.8" font-family="Times,serif" font-size="14.00">updated_at :datetime</text>
</g>
<!-- Company -->
<g id="node3" class="node"><title>Company</title>
<path fill="none" stroke="black" d="M549.043,-557C549.043,-557 668.957,-557 668.957,-557 674.957,-557 680.957,-563 680.957,-569 680.957,-569 680.957,-771 680.957,-771 680.957,-777 674.957,-783 668.957,-783 668.957,-783 549.043,-783 549.043,-783 543.043,-783 537.043,-777 537.043,-771 537.043,-771 537.043,-569 537.043,-569 537.043,-563 543.043,-557 549.043,-557"/>
<text text-anchor="middle" x="609" y="-767.8" font-family="Times,serif" font-size="14.00">Company</text>
<polyline fill="none" stroke="black" points="537.043,-761 680.957,-761 "/>
<text text-anchor="start" x="545.043" y="-745.8" font-family="Times,serif" font-size="14.00">id :integer</text>
<text text-anchor="start" x="545.043" y="-731.8" font-family="Times,serif" font-size="14.00">company_name :string</text>
<text text-anchor="start" x="545.043" y="-717.8" font-family="Times,serif" font-size="14.00">contact :string</text>
<text text-anchor="start" x="545.043" y="-703.8" font-family="Times,serif" font-size="14.00">address :string</text>
<text text-anchor="start" x="545.043" y="-689.8" font-family="Times,serif" font-size="14.00">city :string</text>
<text text-anchor="start" x="545.043" y="-675.8" font-family="Times,serif" font-size="14.00">state :string</text>
<text text-anchor="start" x="545.043" y="-661.8" font-family="Times,serif" font-size="14.00">zip :integer</text>
<text text-anchor="start" x="545.043" y="-647.8" font-family="Times,serif" font-size="14.00">phone :string</text>
<text text-anchor="start" x="545.043" y="-633.8" font-family="Times,serif" font-size="14.00">fax :string</text>
<text text-anchor="start" x="545.043" y="-619.8" font-family="Times,serif" font-size="14.00">email :string</text>
<text text-anchor="start" x="545.043" y="-605.8" font-family="Times,serif" font-size="14.00">website :text</text>
<text text-anchor="start" x="545.043" y="-591.8" font-family="Times,serif" font-size="14.00">notes :text</text>
<text text-anchor="start" x="545.043" y="-577.8" font-family="Times,serif" font-size="14.00">created_at :datetime</text>
<text text-anchor="start" x="545.043" y="-563.8" font-family="Times,serif" font-size="14.00">updated_at :datetime</text>
</g>
<!-- Stakeholder -->
<g id="node8" class="node"><title>Stakeholder</title>
<path fill="none" stroke="black" d="M548.608,-125C548.608,-125 707.392,-125 707.392,-125 713.392,-125 719.392,-131 719.392,-137 719.392,-137 719.392,-507 719.392,-507 719.392,-513 713.392,-519 707.392,-519 707.392,-519 548.608,-519 548.608,-519 542.608,-519 536.608,-513 536.608,-507 536.608,-507 536.608,-137 536.608,-137 536.608,-131 542.608,-125 548.608,-125"/>
<text text-anchor="middle" x="628" y="-503.8" font-family="Times,serif" font-size="14.00">Stakeholder</text>
<polyline fill="none" stroke="black" points="536.608,-497 719.392,-497 "/>
<text text-anchor="start" x="544.608" y="-481.8" font-family="Times,serif" font-size="14.00">id :integer</text>
<text text-anchor="start" x="544.608" y="-467.8" font-family="Times,serif" font-size="14.00">stakeholder_type_id :integer</text>
<text text-anchor="start" x="544.608" y="-453.8" font-family="Times,serif" font-size="14.00">company_id :integer</text>
<text text-anchor="start" x="544.608" y="-439.8" font-family="Times,serif" font-size="14.00">name :string</text>
<text text-anchor="start" x="544.608" y="-425.8" font-family="Times,serif" font-size="14.00">client_type_id :string</text>
<text text-anchor="start" x="544.608" y="-411.8" font-family="Times,serif" font-size="14.00">address :string</text>
<text text-anchor="start" x="544.608" y="-397.8" font-family="Times,serif" font-size="14.00">city :string</text>
<text text-anchor="start" x="544.608" y="-383.8" font-family="Times,serif" font-size="14.00">state :string</text>
<text text-anchor="start" x="544.608" y="-369.8" font-family="Times,serif" font-size="14.00">zip :integer</text>
<text text-anchor="start" x="544.608" y="-355.8" font-family="Times,serif" font-size="14.00">work_phone :string</text>
<text text-anchor="start" x="544.608" y="-341.8" font-family="Times,serif" font-size="14.00">home_phone :string</text>
<text text-anchor="start" x="544.608" y="-327.8" font-family="Times,serif" font-size="14.00">cell_phone :string</text>
<text text-anchor="start" x="544.608" y="-313.8" font-family="Times,serif" font-size="14.00">fax_phone :string</text>
<text text-anchor="start" x="544.608" y="-299.8" font-family="Times,serif" font-size="14.00">email :string</text>
<text text-anchor="start" x="544.608" y="-285.8" font-family="Times,serif" font-size="14.00">address_alternate :string</text>
<text text-anchor="start" x="544.608" y="-271.8" font-family="Times,serif" font-size="14.00">city_alternate :string</text>
<text text-anchor="start" x="544.608" y="-257.8" font-family="Times,serif" font-size="14.00">state_alternate :string</text>
<text text-anchor="start" x="544.608" y="-243.8" font-family="Times,serif" font-size="14.00">zip_alternate :integer</text>
<text text-anchor="start" x="544.608" y="-229.8" font-family="Times,serif" font-size="14.00">work_phone_alternate :string</text>
<text text-anchor="start" x="544.608" y="-215.8" font-family="Times,serif" font-size="14.00">home_phone_alternate :string</text>
<text text-anchor="start" x="544.608" y="-201.8" font-family="Times,serif" font-size="14.00">cell_phone_alternate :string</text>
<text text-anchor="start" x="544.608" y="-187.8" font-family="Times,serif" font-size="14.00">fax_phone_alternate :string</text>
<text text-anchor="start" x="544.608" y="-173.8" font-family="Times,serif" font-size="14.00">email_alternate :string</text>
<text text-anchor="start" x="544.608" y="-159.8" font-family="Times,serif" font-size="14.00">notes :text</text>
<text text-anchor="start" x="544.608" y="-145.8" font-family="Times,serif" font-size="14.00">created_at :datetime</text>
<text text-anchor="start" x="544.608" y="-131.8" font-family="Times,serif" font-size="14.00">updated_at :datetime</text>
</g>
<!-- Company&#45;&gt;Stakeholder -->
<g id="edge2" class="edge"><title>Company&#45;&gt;Stakeholder</title>
<path fill="none" stroke="#9cba5b" d="M615.61,-548.637C615.956,-542.32 616.309,-535.9 616.665,-529.414"/>
<ellipse fill="none" stroke="#9cba5b" cx="615.388" cy="-552.67" rx="4" ry="4"/>
<polygon fill="#9cba5b" stroke="#9cba5b" points="616.679,-529.159 621.721,-519.421 616.953,-524.167 617.227,-519.174 617.227,-519.174 617.227,-519.174 616.953,-524.167 612.734,-518.927 616.679,-529.159 616.679,-529.159"/>
</g>
<!-- Fault -->
<g id="node4" class="node"><title>Fault</title>
<path fill="none" stroke="black" d="M201.495,-627C201.495,-627 310.505,-627 310.505,-627 316.505,-627 322.505,-633 322.505,-639 322.505,-639 322.505,-701 322.505,-701 322.505,-707 316.505,-713 310.505,-713 310.505,-713 201.495,-713 201.495,-713 195.495,-713 189.495,-707 189.495,-701 189.495,-701 189.495,-639 189.495,-639 189.495,-633 195.495,-627 201.495,-627"/>
<text text-anchor="middle" x="256" y="-697.8" font-family="Times,serif" font-size="14.00">Fault</text>
<polyline fill="none" stroke="black" points="189.495,-691 322.505,-691 "/>
<text text-anchor="start" x="197.495" y="-675.8" font-family="Times,serif" font-size="14.00">id :integer</text>
<text text-anchor="start" x="197.495" y="-661.8" font-family="Times,serif" font-size="14.00">name :string</text>
<text text-anchor="start" x="197.495" y="-647.8" font-family="Times,serif" font-size="14.00">created_at :datetime</text>
<text text-anchor="start" x="197.495" y="-633.8" font-family="Times,serif" font-size="14.00">updated_at :datetime</text>
</g>
<!-- Phase -->
<g id="node5" class="node"><title>Phase</title>
<path fill="none" stroke="black" d="M182.66,-125C182.66,-125 359.34,-125 359.34,-125 365.34,-125 371.34,-131 371.34,-137 371.34,-137 371.34,-507 371.34,-507 371.34,-513 365.34,-519 359.34,-519 359.34,-519 182.66,-519 182.66,-519 176.66,-519 170.66,-513 170.66,-507 170.66,-507 170.66,-137 170.66,-137 170.66,-131 176.66,-125 182.66,-125"/>
<text text-anchor="middle" x="271" y="-503.8" font-family="Times,serif" font-size="14.00">Phase</text>
<polyline fill="none" stroke="black" points="170.66,-497 371.34,-497 "/>
<text text-anchor="start" x="178.66" y="-481.8" font-family="Times,serif" font-size="14.00">id :integer</text>
<text text-anchor="start" x="178.66" y="-467.8" font-family="Times,serif" font-size="14.00">phase :string</text>
<text text-anchor="start" x="178.66" y="-453.8" font-family="Times,serif" font-size="14.00">project_id :integer</text>
<text text-anchor="start" x="178.66" y="-439.8" font-family="Times,serif" font-size="14.00">company_id :integer</text>
<text text-anchor="start" x="178.66" y="-425.8" font-family="Times,serif" font-size="14.00">project_manager_id :integer</text>
<text text-anchor="start" x="178.66" y="-411.8" font-family="Times,serif" font-size="14.00">investigation_type_id :string</text>
<text text-anchor="start" x="178.66" y="-397.8" font-family="Times,serif" font-size="14.00">site_id :integer</text>
<text text-anchor="start" x="178.66" y="-383.8" font-family="Times,serif" font-size="14.00">stakeholder_id :integer</text>
<text text-anchor="start" x="178.66" y="-369.8" font-family="Times,serif" font-size="14.00">description :text</text>
<text text-anchor="start" x="178.66" y="-355.8" font-family="Times,serif" font-size="14.00">proposal_date :date</text>
<text text-anchor="start" x="178.66" y="-341.8" font-family="Times,serif" font-size="14.00">proposal_number :string</text>
<text text-anchor="start" x="178.66" y="-327.8" font-family="Times,serif" font-size="14.00">report_date :date</text>
<text text-anchor="start" x="178.66" y="-313.8" font-family="Times,serif" font-size="14.00">notes :text</text>
<text text-anchor="start" x="178.66" y="-299.8" font-family="Times,serif" font-size="14.00">insurance_policy_number :string</text>
<text text-anchor="start" x="178.66" y="-285.8" font-family="Times,serif" font-size="14.00">insurance_notes :text</text>
<text text-anchor="start" x="178.66" y="-271.8" font-family="Times,serif" font-size="14.00">Rakefile :string</text>
<text text-anchor="start" x="178.66" y="-257.8" font-family="Times,serif" font-size="14.00">bill_name :string</text>
<text text-anchor="start" x="178.66" y="-243.8" font-family="Times,serif" font-size="14.00">bill_attention :string</text>
<text text-anchor="start" x="178.66" y="-229.8" font-family="Times,serif" font-size="14.00">bill_address :string</text>
<text text-anchor="start" x="178.66" y="-215.8" font-family="Times,serif" font-size="14.00">bill_city :string</text>
<text text-anchor="start" x="178.66" y="-201.8" font-family="Times,serif" font-size="14.00">bill_state :string</text>
<text text-anchor="start" x="178.66" y="-187.8" font-family="Times,serif" font-size="14.00">bill_zip :string</text>
<text text-anchor="start" x="178.66" y="-173.8" font-family="Times,serif" font-size="14.00">bad_pay_history :text</text>
<text text-anchor="start" x="178.66" y="-159.8" font-family="Times,serif" font-size="14.00">keywords :string</text>
<text text-anchor="start" x="178.66" y="-145.8" font-family="Times,serif" font-size="14.00">created_at :datetime</text>
<text text-anchor="start" x="178.66" y="-131.8" font-family="Times,serif" font-size="14.00">updated_at :datetime</text>
</g>
<!-- Phase&#45;&gt;ClientType -->
<g id="edge5" class="edge"><title>Phase&#45;&gt;ClientType</title>
<path fill="none" stroke="#9e5ddd" d="M375.517,-138.427C384.198,-123.261 392.419,-108.901 399.694,-96.1933"/>
<ellipse fill="none" stroke="#9e5ddd" cx="373.499" cy="-141.952" rx="4.00002" ry="4.00002"/>
<polygon fill="#9e5ddd" stroke="#9e5ddd" points="399.848,-95.9233 408.722,-89.4804 402.332,-91.584 404.816,-87.2448 404.816,-87.2448 404.816,-87.2448 402.332,-91.584 400.911,-85.0091 399.848,-95.9233 399.848,-95.9233"/>
</g>
<!-- Project -->
<g id="node6" class="node"><title>Project</title>
<path fill="none" stroke="black" d="M352.608,-599C352.608,-599 469.392,-599 469.392,-599 475.392,-599 481.392,-605 481.392,-611 481.392,-611 481.392,-729 481.392,-729 481.392,-735 475.392,-741 469.392,-741 469.392,-741 352.608,-741 352.608,-741 346.608,-741 340.608,-735 340.608,-729 340.608,-729 340.608,-611 340.608,-611 340.608,-605 346.608,-599 352.608,-599"/>
<text text-anchor="middle" x="411" y="-725.8" font-family="Times,serif" font-size="14.00">Project</text>
<polyline fill="none" stroke="black" points="340.608,-719 481.392,-719 "/>
<text text-anchor="start" x="348.608" y="-703.8" font-family="Times,serif" font-size="14.00">id :integer</text>
<text text-anchor="start" x="348.608" y="-689.8" font-family="Times,serif" font-size="14.00">name :string</text>
<text text-anchor="start" x="348.608" y="-675.8" font-family="Times,serif" font-size="14.00">name_alternate :string</text>
<text text-anchor="start" x="348.608" y="-661.8" font-family="Times,serif" font-size="14.00">number :string</text>
<text text-anchor="start" x="348.608" y="-647.8" font-family="Times,serif" font-size="14.00">prefix_id :integer</text>
<text text-anchor="start" x="348.608" y="-633.8" font-family="Times,serif" font-size="14.00">description :text</text>
<text text-anchor="start" x="348.608" y="-619.8" font-family="Times,serif" font-size="14.00">created_at :datetime</text>
<text text-anchor="start" x="348.608" y="-605.8" font-family="Times,serif" font-size="14.00">updated_at :datetime</text>
</g>
<!-- Project&#45;&gt;Phase -->
<g id="edge7" class="edge"><title>Project&#45;&gt;Phase</title>
<path fill="none" stroke="#861b12" d="M379.595,-591.385C371.864,-572.279 363.22,-550.915 354.276,-528.81"/>
<ellipse fill="none" stroke="#861b12" cx="381.169" cy="-595.274" rx="4.00001" ry="4.00001"/>
<polygon fill="#861b12" stroke="#861b12" points="354.177,-528.565 354.597,-517.607 352.301,-523.93 350.426,-519.295 350.426,-519.295 350.426,-519.295 352.301,-523.93 346.254,-520.983 354.177,-528.565 354.177,-528.565"/>
</g>
<!-- ProjectManager -->
<g id="node7" class="node"><title>ProjectManager</title>
<path fill="none" stroke="black" d="M11.4946,-627C11.4946,-627 120.505,-627 120.505,-627 126.505,-627 132.505,-633 132.505,-639 132.505,-639 132.505,-701 132.505,-701 132.505,-707 126.505,-713 120.505,-713 120.505,-713 11.4946,-713 11.4946,-713 5.49463,-713 -0.505371,-707 -0.505371,-701 -0.505371,-701 -0.505371,-639 -0.505371,-639 -0.505371,-633 5.49463,-627 11.4946,-627"/>
<text text-anchor="middle" x="66" y="-697.8" font-family="Times,serif" font-size="14.00">ProjectManager</text>
<polyline fill="none" stroke="black" points="-0.505371,-691 132.505,-691 "/>
<text text-anchor="start" x="7.49463" y="-675.8" font-family="Times,serif" font-size="14.00">id :integer</text>
<text text-anchor="start" x="7.49463" y="-661.8" font-family="Times,serif" font-size="14.00">name :string</text>
<text text-anchor="start" x="7.49463" y="-647.8" font-family="Times,serif" font-size="14.00">created_at :datetime</text>
<text text-anchor="start" x="7.49463" y="-633.8" font-family="Times,serif" font-size="14.00">updated_at :datetime</text>
</g>
<!-- ProjectManager&#45;&gt;Phase -->
<g id="edge9" class="edge"><title>ProjectManager&#45;&gt;Phase</title>
<path fill="none" stroke="#164b90" d="M95.0745,-619.928C113.809,-588.308 139.432,-545.06 165.326,-501.357"/>
<ellipse fill="none" stroke="#164b90" cx="92.971" cy="-623.478" rx="4.00002" ry="4.00002"/>
<polygon fill="#164b90" stroke="#164b90" points="165.409,-501.217 174.378,-494.908 167.958,-496.915 170.506,-492.614 170.506,-492.614 170.506,-492.614 167.958,-496.915 166.635,-490.32 165.409,-501.217 165.409,-501.217"/>
</g>
<!-- StakeholderType -->
<g id="node9" class="node"><title>StakeholderType</title>
<path fill="none" stroke="black" d="M623.543,-1C623.543,-1 750.457,-1 750.457,-1 756.457,-1 762.457,-7 762.457,-13 762.457,-13 762.457,-75 762.457,-75 762.457,-81 756.457,-87 750.457,-87 750.457,-87 623.543,-87 623.543,-87 617.543,-87 611.543,-81 611.543,-75 611.543,-75 611.543,-13 611.543,-13 611.543,-7 617.543,-1 623.543,-1"/>
<text text-anchor="middle" x="687" y="-71.8" font-family="Times,serif" font-size="14.00">StakeholderType</text>
<polyline fill="none" stroke="black" points="611.543,-65 762.457,-65 "/>
<text text-anchor="start" x="619.543" y="-49.8" font-family="Times,serif" font-size="14.00">id :integer</text>
<text text-anchor="start" x="619.543" y="-35.8" font-family="Times,serif" font-size="14.00">stakeholder_type :string</text>
<text text-anchor="start" x="619.543" y="-21.8" font-family="Times,serif" font-size="14.00">created_at :datetime</text>
<text text-anchor="start" x="619.543" y="-7.8" font-family="Times,serif" font-size="14.00">updated_at :datetime</text>
</g>
<!-- Stakeholder&#45;&gt;StakeholderType -->
<g id="edge11" class="edge"><title>Stakeholder&#45;&gt;StakeholderType</title>
<path fill="none" stroke="#61993e" d="M672.091,-114.744C673.379,-108.718 674.618,-102.923 675.792,-97.4284"/>
<polygon fill="#61993e" stroke="#61993e" points="672.025,-115.052 665.534,-123.89 670.98,-119.941 669.935,-124.831 669.935,-124.831 669.935,-124.831 670.98,-119.941 674.335,-125.771 672.025,-115.052 672.025,-115.052"/>
<polygon fill="#61993e" stroke="#61993e" points="675.878,-97.0262 682.369,-88.1878 676.924,-92.1366 677.969,-87.2471 677.969,-87.2471 677.969,-87.2471 676.924,-92.1366 673.568,-86.3064 675.878,-97.0262 675.878,-97.0262"/>
</g>
<!-- ActiveRecord::Base -->
<g id="node10" class="node"><title>ActiveRecord::Base</title>
<ellipse fill="none" stroke="black" cx="460" cy="-857" rx="80.9821" ry="18"/>
<text text-anchor="middle" x="460" y="-852.8" font-family="Times,serif" font-size="14.00">ActiveRecord::Base</text>
</g>
<!-- ActiveRecord::Base&#45;&gt;ClientType -->
<g id="edge1" class="edge"><title>ActiveRecord::Base&#45;&gt;ClientType</title>
<path fill="none" stroke="black" d="M469.414,-838.862C476.657,-824.646 486.07,-803.652 490,-784 509.873,-684.634 496.016,-657.155 490,-556 479.603,-381.192 449.369,-174.52 435.768,-87.245"/>
</g>
<!-- ActiveRecord::Base&#45;&gt;Company -->
<g id="edge3" class="edge"><title>ActiveRecord::Base&#45;&gt;Company</title>
<path fill="none" stroke="black" d="M475.355,-839.116C488.322,-824.701 507.243,-803.299 523,-784 527.6,-778.366 532.281,-772.531 536.964,-766.614"/>
</g>
<!-- ActiveRecord::Base&#45;&gt;Fault -->
<g id="edge4" class="edge"><title>ActiveRecord::Base&#45;&gt;Fault</title>
<path fill="none" stroke="black" d="M423.142,-840.887C395.845,-828.438 358.881,-808.82 332,-784 310.113,-763.791 291.361,-736.102 277.959,-713.19"/>
</g>
<!-- ActiveRecord::Base&#45;&gt;Phase -->
<g id="edge6" class="edge"><title>ActiveRecord::Base&#45;&gt;Phase</title>
<path fill="none" stroke="black" d="M425.534,-840.586C408.739,-833.536 388.09,-825.541 369,-820 286.878,-796.166 234.515,-849.879 180,-784 115.397,-705.93 161.244,-655.582 180,-556 182.291,-543.837 185.2,-531.495 188.56,-519.163"/>
</g>
<!-- ActiveRecord::Base&#45;&gt;Project -->
<g id="edge8" class="edge"><title>ActiveRecord::Base&#45;&gt;Project</title>
<path fill="none" stroke="black" d="M455.478,-838.927C449.602,-816.744 438.983,-776.651 429.595,-741.204"/>
</g>
<!-- ActiveRecord::Base&#45;&gt;ProjectManager -->
<g id="edge10" class="edge"><title>ActiveRecord::Base&#45;&gt;ProjectManager</title>
<path fill="none" stroke="black" d="M426.029,-840.535C409.173,-833.388 388.329,-825.323 369,-820 272.632,-793.46 231.962,-836.655 147,-784 119.918,-767.216 99.2287,-737.697 85.5402,-713.039"/>
</g>
<!-- ActiveRecord::Base&#45;&gt;Stakeholder -->
<g id="edge12" class="edge"><title>ActiveRecord::Base&#45;&gt;Stakeholder</title>
<path fill="none" stroke="black" d="M539.983,-853.697C591.55,-847.541 655.097,-830.199 689,-784 744.168,-708.825 737.138,-607.644 712.805,-519.226"/>
</g>
<!-- ActiveRecord::Base&#45;&gt;StakeholderType -->
<g id="edge13" class="edge"><title>ActiveRecord::Base&#45;&gt;StakeholderType</title>
<path fill="none" stroke="black" d="M527.252,-846.913C597.248,-835.925 699.975,-814.966 724,-784 748.223,-752.779 752.332,-223.706 728,-124 724.959,-111.54 719.58,-98.8555 713.699,-87.4015"/>
</g>
</g>
</svg>
