<?xml version="1.0" encoding="UTF-8" standalone="no"?>
<!DOCTYPE svg PUBLIC "-//W3C//DTD SVG 1.1//EN"
 "http://www.w3.org/Graphics/SVG/1.1/DTD/svg11.dtd">
<!-- Generated by graphviz version 2.36.0 (20140111.2315)
 -->
<!-- Title: models_diagram Pages: 1 -->
<svg width="832pt" height="154pt"
 viewBox="0.00 0.00 832.00 154.00" xmlns="http://www.w3.org/2000/svg" xmlns:xlink="http://www.w3.org/1999/xlink">
<g id="graph0" class="graph" transform="scale(1 1) rotate(0) translate(4 150)">
<title>models_diagram</title>
<polygon fill="white" stroke="none" points="-4,4 -4,-150 828,-150 828,4 -4,4"/>
<!-- _diagram_info -->
<g id="node1" class="node"><title>_diagram_info</title>
<text text-anchor="start" x="7.31226" y="-131.1" font-family="Times,serif" font-size="13.00">Models diagram</text>
<text text-anchor="start" x="7.31226" y="-118.1" font-family="Times,serif" font-size="13.00">Date: Feb 19 2014 &#45; 13:13</text>
<text text-anchor="start" x="7.31226" y="-105.1" font-family="Times,serif" font-size="13.00">Migration version: 20140219023530</text>
<text text-anchor="start" x="7.31226" y="-92.1" font-family="Times,serif" font-size="13.00">Generated by RailRoady 1.1.1</text>
<text text-anchor="start" x="7.31226" y="-79.1" font-family="Times,serif" font-size="13.00">http://railroady.prestonlee.com</text>
</g>
<!-- Client -->
<g id="node2" class="node"><title>Client</title>
<ellipse fill="none" stroke="black" cx="92" cy="-18" rx="31.5839" ry="18"/>
<text text-anchor="middle" x="92" y="-13.8" font-family="Times,serif" font-size="14.00">Client</text>
</g>
<!-- Project -->
<g id="node3" class="node"><title>Project</title>
<ellipse fill="none" stroke="black" cx="177" cy="-18" rx="35.2345" ry="18"/>
<text text-anchor="middle" x="177" y="-13.8" font-family="Times,serif" font-size="14.00">Project</text>
</g>
<!-- Site -->
<g id="node4" class="node"><title>Site</title>
<ellipse fill="none" stroke="black" cx="257" cy="-18" rx="27" ry="18"/>
<text text-anchor="middle" x="257" y="-13.8" font-family="Times,serif" font-size="14.00">Site</text>
</g>
<!-- Stakeholder -->
<g id="node5" class="node"><title>Stakeholder</title>
<ellipse fill="none" stroke="black" cx="354" cy="-18" rx="52.0206" ry="18"/>
<text text-anchor="middle" x="354" y="-13.8" font-family="Times,serif" font-size="14.00">Stakeholder</text>
</g>
<!-- StakeholderCompany -->
<g id="node6" class="node"><title>StakeholderCompany</title>
<ellipse fill="none" stroke="black" cx="511" cy="-18" rx="86.6033" ry="18"/>
<text text-anchor="middle" x="511" y="-13.8" font-family="Times,serif" font-size="14.00">StakeholderCompany</text>
</g>
<!-- StakeholderCompanyType -->
<g id="node7" class="node"><title>StakeholderCompanyType</title>
<ellipse fill="none" stroke="black" cx="720" cy="-18" rx="103.934" ry="18"/>
<text text-anchor="middle" x="720" y="-13.8" font-family="Times,serif" font-size="14.00">StakeholderCompanyType</text>
</g>
<!-- ActiveRecord::Base -->
<g id="node8" class="node"><title>ActiveRecord::Base</title>
<ellipse fill="none" stroke="black" cx="306" cy="-109" rx="80.9821" ry="18"/>
<text text-anchor="middle" x="306" y="-104.8" font-family="Times,serif" font-size="14.00">ActiveRecord::Base</text>
</g>
<!-- ActiveRecord::Base&#45;&gt;Client -->
<g id="edge1" class="edge"><title>ActiveRecord::Base&#45;&gt;Client</title>
<path fill="none" stroke="black" d="M269.212,-92.7004C225.593,-74.5598 154.104,-44.8283 116.649,-29.2512"/>
</g>
<!-- ActiveRecord::Base&#45;&gt;Project -->
<g id="edge2" class="edge"><title>ActiveRecord::Base&#45;&gt;Project</title>
<path fill="none" stroke="black" d="M282.339,-91.676C257.9,-74.8146 220.171,-48.7849 197.121,-32.8818"/>
</g>
<!-- ActiveRecord::Base&#45;&gt;Site -->
<g id="edge3" class="edge"><title>ActiveRecord::Base&#45;&gt;Site</title>
<path fill="none" stroke="black" d="M296.552,-90.8399C287.709,-74.777 274.593,-50.9544 265.923,-35.2076"/>
</g>
<!-- ActiveRecord::Base&#45;&gt;Stakeholder -->
<g id="edge4" class="edge"><title>ActiveRecord::Base&#45;&gt;Stakeholder</title>
<path fill="none" stroke="black" d="M315.255,-90.8399C323.809,-74.979 336.444,-51.5525 344.936,-35.8056"/>
</g>
<!-- ActiveRecord::Base&#45;&gt;StakeholderCompany -->
<g id="edge5" class="edge"><title>ActiveRecord::Base&#45;&gt;StakeholderCompany</title>
<path fill="none" stroke="black" d="M341.241,-92.7004C378.675,-76.4484 437.538,-50.8933 475.188,-34.5475"/>
</g>
<!-- ActiveRecord::Base&#45;&gt;StakeholderCompanyType -->
<g id="edge6" class="edge"><title>ActiveRecord::Base&#45;&gt;StakeholderCompanyType</title>
<path fill="none" stroke="black" d="M362.265,-95.9044C439.313,-79.341 577.213,-49.6957 657.429,-32.4512"/>
</g>
</g>
</svg>
