<?xml version="1.0" encoding="UTF-8" standalone="no"?>
<!DOCTYPE svg PUBLIC "-//W3C//DTD SVG 1.1//EN"
 "http://www.w3.org/Graphics/SVG/1.1/DTD/svg11.dtd">
<!-- Generated by graphviz version 2.36.0 (20140111.2315)
 -->
<!-- Title: models_diagram Pages: 1 -->
<svg width="1098pt" height="902pt"
 viewBox="0.00 0.00 1098.04 902.00" xmlns="http://www.w3.org/2000/svg" xmlns:xlink="http://www.w3.org/1999/xlink">
<g id="graph0" class="graph" transform="scale(1 1) rotate(0) translate(4 898)">
<title>models_diagram</title>
<polygon fill="white" stroke="none" points="-4,4 -4,-898 1094.04,-898 1094.04,4 -4,4"/>
<!-- _diagram_info -->
<g id="node1" class="node"><title>_diagram_info</title>
<text text-anchor="start" x="262.351" y="-879.1" font-family="Times,serif" font-size="13.00">Models diagram</text>
<text text-anchor="start" x="262.351" y="-866.1" font-family="Times,serif" font-size="13.00">Date: Feb 19 2014 &#45; 17:58</text>
<text text-anchor="start" x="262.351" y="-853.1" font-family="Times,serif" font-size="13.00">Migration version: 20140220012509</text>
<text text-anchor="start" x="262.351" y="-840.1" font-family="Times,serif" font-size="13.00">Generated by RailRoady 1.1.1</text>
<text text-anchor="start" x="262.351" y="-827.1" font-family="Times,serif" font-size="13.00">http://railroady.prestonlee.com</text>
</g>
<!-- ClientType -->
<g id="node2" class="node"><title>ClientType</title>
<path fill="none" stroke="black" d="M44.5332,-1C44.5332,-1 153.544,-1 153.544,-1 159.544,-1 165.544,-7 165.544,-13 165.544,-13 165.544,-75 165.544,-75 165.544,-81 159.544,-87 153.544,-87 153.544,-87 44.5332,-87 44.5332,-87 38.5332,-87 32.5332,-81 32.5332,-75 32.5332,-75 32.5332,-13 32.5332,-13 32.5332,-7 38.5332,-1 44.5332,-1"/>
<text text-anchor="middle" x="99.0385" y="-71.8" font-family="Times,serif" font-size="14.00">ClientType</text>
<polyline fill="none" stroke="black" points="32.5332,-65 165.544,-65 "/>
<text text-anchor="start" x="40.5332" y="-49.8" font-family="Times,serif" font-size="14.00">id :integer</text>
<text text-anchor="start" x="40.5332" y="-35.8" font-family="Times,serif" font-size="14.00">client_type :string</text>
<text text-anchor="start" x="40.5332" y="-21.8" font-family="Times,serif" font-size="14.00">created_at :datetime</text>
<text text-anchor="start" x="40.5332" y="-7.8" font-family="Times,serif" font-size="14.00">updated_at :datetime</text>
</g>
<!-- Company -->
<g id="node3" class="node"><title>Company</title>
<path fill="none" stroke="black" d="M423.082,-557C423.082,-557 542.996,-557 542.996,-557 548.996,-557 554.996,-563 554.996,-569 554.996,-569 554.996,-771 554.996,-771 554.996,-777 548.996,-783 542.996,-783 542.996,-783 423.082,-783 423.082,-783 417.082,-783 411.082,-777 411.082,-771 411.082,-771 411.082,-569 411.082,-569 411.082,-563 417.082,-557 423.082,-557"/>
<text text-anchor="middle" x="483.039" y="-767.8" font-family="Times,serif" font-size="14.00">Company</text>
<polyline fill="none" stroke="black" points="411.082,-761 554.996,-761 "/>
<text text-anchor="start" x="419.082" y="-745.8" font-family="Times,serif" font-size="14.00">id :integer</text>
<text text-anchor="start" x="419.082" y="-731.8" font-family="Times,serif" font-size="14.00">company_name :string</text>
<text text-anchor="start" x="419.082" y="-717.8" font-family="Times,serif" font-size="14.00">contact :string</text>
<text text-anchor="start" x="419.082" y="-703.8" font-family="Times,serif" font-size="14.00">address :string</text>
<text text-anchor="start" x="419.082" y="-689.8" font-family="Times,serif" font-size="14.00">city :string</text>
<text text-anchor="start" x="419.082" y="-675.8" font-family="Times,serif" font-size="14.00">state :string</text>
<text text-anchor="start" x="419.082" y="-661.8" font-family="Times,serif" font-size="14.00">zip :integer</text>
<text text-anchor="start" x="419.082" y="-647.8" font-family="Times,serif" font-size="14.00">phone :string</text>
<text text-anchor="start" x="419.082" y="-633.8" font-family="Times,serif" font-size="14.00">fax :string</text>
<text text-anchor="start" x="419.082" y="-619.8" font-family="Times,serif" font-size="14.00">email :string</text>
<text text-anchor="start" x="419.082" y="-605.8" font-family="Times,serif" font-size="14.00">website :text</text>
<text text-anchor="start" x="419.082" y="-591.8" font-family="Times,serif" font-size="14.00">notes :text</text>
<text text-anchor="start" x="419.082" y="-577.8" font-family="Times,serif" font-size="14.00">created_at :datetime</text>
<text text-anchor="start" x="419.082" y="-563.8" font-family="Times,serif" font-size="14.00">updated_at :datetime</text>
</g>
<!-- Stakeholder -->
<g id="node9" class="node"><title>Stakeholder</title>
<path fill="none" stroke="black" d="M730.647,-125C730.647,-125 889.43,-125 889.43,-125 895.43,-125 901.43,-131 901.43,-137 901.43,-137 901.43,-507 901.43,-507 901.43,-513 895.43,-519 889.43,-519 889.43,-519 730.647,-519 730.647,-519 724.647,-519 718.647,-513 718.647,-507 718.647,-507 718.647,-137 718.647,-137 718.647,-131 724.647,-125 730.647,-125"/>
<text text-anchor="middle" x="810.039" y="-503.8" font-family="Times,serif" font-size="14.00">Stakeholder</text>
<polyline fill="none" stroke="black" points="718.647,-497 901.43,-497 "/>
<text text-anchor="start" x="726.647" y="-481.8" font-family="Times,serif" font-size="14.00">id :integer</text>
<text text-anchor="start" x="726.647" y="-467.8" font-family="Times,serif" font-size="14.00">stakeholder_type_id :integer</text>
<text text-anchor="start" x="726.647" y="-453.8" font-family="Times,serif" font-size="14.00">company_id :integer</text>
<text text-anchor="start" x="726.647" y="-439.8" font-family="Times,serif" font-size="14.00">name :string</text>
<text text-anchor="start" x="726.647" y="-425.8" font-family="Times,serif" font-size="14.00">client_type_id :string</text>
<text text-anchor="start" x="726.647" y="-411.8" font-family="Times,serif" font-size="14.00">address :string</text>
<text text-anchor="start" x="726.647" y="-397.8" font-family="Times,serif" font-size="14.00">city :string</text>
<text text-anchor="start" x="726.647" y="-383.8" font-family="Times,serif" font-size="14.00">state :string</text>
<text text-anchor="start" x="726.647" y="-369.8" font-family="Times,serif" font-size="14.00">zip :integer</text>
<text text-anchor="start" x="726.647" y="-355.8" font-family="Times,serif" font-size="14.00">work_phone :string</text>
<text text-anchor="start" x="726.647" y="-341.8" font-family="Times,serif" font-size="14.00">home_phone :string</text>
<text text-anchor="start" x="726.647" y="-327.8" font-family="Times,serif" font-size="14.00">cell_phone :string</text>
<text text-anchor="start" x="726.647" y="-313.8" font-family="Times,serif" font-size="14.00">fax_phone :string</text>
<text text-anchor="start" x="726.647" y="-299.8" font-family="Times,serif" font-size="14.00">email :string</text>
<text text-anchor="start" x="726.647" y="-285.8" font-family="Times,serif" font-size="14.00">address_alternate :string</text>
<text text-anchor="start" x="726.647" y="-271.8" font-family="Times,serif" font-size="14.00">city_alternate :string</text>
<text text-anchor="start" x="726.647" y="-257.8" font-family="Times,serif" font-size="14.00">state_alternate :string</text>
<text text-anchor="start" x="726.647" y="-243.8" font-family="Times,serif" font-size="14.00">zip_alternate :integer</text>
<text text-anchor="start" x="726.647" y="-229.8" font-family="Times,serif" font-size="14.00">work_phone_alternate :string</text>
<text text-anchor="start" x="726.647" y="-215.8" font-family="Times,serif" font-size="14.00">home_phone_alternate :string</text>
<text text-anchor="start" x="726.647" y="-201.8" font-family="Times,serif" font-size="14.00">cell_phone_alternate :string</text>
<text text-anchor="start" x="726.647" y="-187.8" font-family="Times,serif" font-size="14.00">fax_phone_alternate :string</text>
<text text-anchor="start" x="726.647" y="-173.8" font-family="Times,serif" font-size="14.00">email_alternate :string</text>
<text text-anchor="start" x="726.647" y="-159.8" font-family="Times,serif" font-size="14.00">notes :text</text>
<text text-anchor="start" x="726.647" y="-145.8" font-family="Times,serif" font-size="14.00">created_at :datetime</text>
<text text-anchor="start" x="726.647" y="-131.8" font-family="Times,serif" font-size="14.00">updated_at :datetime</text>
</g>
<!-- Company&#45;&gt;Stakeholder -->
<g id="edge2" class="edge"><title>Company&#45;&gt;Stakeholder</title>
<path fill="none" stroke="#b75829" d="M560.276,-559.211C561.196,-558.131 562.117,-557.06 563.039,-556 608.362,-503.832 663.971,-450.583 710.941,-408.182"/>
<ellipse fill="none" stroke="#b75829" cx="557.586" cy="-562.427" rx="4.00002" ry="4.00002"/>
<polygon fill="#b75829" stroke="#b75829" points="710.966,-408.159 721.411,-404.818 714.684,-404.816 718.402,-401.472 718.402,-401.472 718.402,-401.472 714.684,-404.816 715.393,-398.126 710.966,-408.159 710.966,-408.159"/>
</g>
<!-- Fault -->
<g id="node4" class="node"><title>Fault</title>
<path fill="none" stroke="black" d="M233.533,-627C233.533,-627 342.544,-627 342.544,-627 348.544,-627 354.544,-633 354.544,-639 354.544,-639 354.544,-701 354.544,-701 354.544,-707 348.544,-713 342.544,-713 342.544,-713 233.533,-713 233.533,-713 227.533,-713 221.533,-707 221.533,-701 221.533,-701 221.533,-639 221.533,-639 221.533,-633 227.533,-627 233.533,-627"/>
<text text-anchor="middle" x="288.039" y="-697.8" font-family="Times,serif" font-size="14.00">Fault</text>
<polyline fill="none" stroke="black" points="221.533,-691 354.544,-691 "/>
<text text-anchor="start" x="229.533" y="-675.8" font-family="Times,serif" font-size="14.00">id :integer</text>
<text text-anchor="start" x="229.533" y="-661.8" font-family="Times,serif" font-size="14.00">name :string</text>
<text text-anchor="start" x="229.533" y="-647.8" font-family="Times,serif" font-size="14.00">created_at :datetime</text>
<text text-anchor="start" x="229.533" y="-633.8" font-family="Times,serif" font-size="14.00">updated_at :datetime</text>
</g>
<!-- Phase -->
<g id="node5" class="node"><title>Phase</title>
<path fill="none" stroke="black" d="M74.6987,-125C74.6987,-125 251.378,-125 251.378,-125 257.378,-125 263.378,-131 263.378,-137 263.378,-137 263.378,-507 263.378,-507 263.378,-513 257.378,-519 251.378,-519 251.378,-519 74.6987,-519 74.6987,-519 68.6987,-519 62.6987,-513 62.6987,-507 62.6987,-507 62.6987,-137 62.6987,-137 62.6987,-131 68.6987,-125 74.6987,-125"/>
<text text-anchor="middle" x="163.039" y="-503.8" font-family="Times,serif" font-size="14.00">Phase</text>
<polyline fill="none" stroke="black" points="62.6987,-497 263.378,-497 "/>
<text text-anchor="start" x="70.6987" y="-481.8" font-family="Times,serif" font-size="14.00">id :integer</text>
<text text-anchor="start" x="70.6987" y="-467.8" font-family="Times,serif" font-size="14.00">phase :string</text>
<text text-anchor="start" x="70.6987" y="-453.8" font-family="Times,serif" font-size="14.00">project_id :integer</text>
<text text-anchor="start" x="70.6987" y="-439.8" font-family="Times,serif" font-size="14.00">company_id :integer</text>
<text text-anchor="start" x="70.6987" y="-425.8" font-family="Times,serif" font-size="14.00">project_manager_id :integer</text>
<text text-anchor="start" x="70.6987" y="-411.8" font-family="Times,serif" font-size="14.00">investigation_type_id :string</text>
<text text-anchor="start" x="70.6987" y="-397.8" font-family="Times,serif" font-size="14.00">site_id :integer</text>
<text text-anchor="start" x="70.6987" y="-383.8" font-family="Times,serif" font-size="14.00">stakeholder_id :integer</text>
<text text-anchor="start" x="70.6987" y="-369.8" font-family="Times,serif" font-size="14.00">description :text</text>
<text text-anchor="start" x="70.6987" y="-355.8" font-family="Times,serif" font-size="14.00">proposal_date :date</text>
<text text-anchor="start" x="70.6987" y="-341.8" font-family="Times,serif" font-size="14.00">proposal_number :string</text>
<text text-anchor="start" x="70.6987" y="-327.8" font-family="Times,serif" font-size="14.00">report_date :date</text>
<text text-anchor="start" x="70.6987" y="-313.8" font-family="Times,serif" font-size="14.00">notes :text</text>
<text text-anchor="start" x="70.6987" y="-299.8" font-family="Times,serif" font-size="14.00">insurance_policy_number :string</text>
<text text-anchor="start" x="70.6987" y="-285.8" font-family="Times,serif" font-size="14.00">insurance_notes :text</text>
<text text-anchor="start" x="70.6987" y="-271.8" font-family="Times,serif" font-size="14.00">Rakefile :string</text>
<text text-anchor="start" x="70.6987" y="-257.8" font-family="Times,serif" font-size="14.00">bill_name :string</text>
<text text-anchor="start" x="70.6987" y="-243.8" font-family="Times,serif" font-size="14.00">bill_attention :string</text>
<text text-anchor="start" x="70.6987" y="-229.8" font-family="Times,serif" font-size="14.00">bill_address :string</text>
<text text-anchor="start" x="70.6987" y="-215.8" font-family="Times,serif" font-size="14.00">bill_city :string</text>
<text text-anchor="start" x="70.6987" y="-201.8" font-family="Times,serif" font-size="14.00">bill_state :string</text>
<text text-anchor="start" x="70.6987" y="-187.8" font-family="Times,serif" font-size="14.00">bill_zip :string</text>
<text text-anchor="start" x="70.6987" y="-173.8" font-family="Times,serif" font-size="14.00">bad_pay_history :text</text>
<text text-anchor="start" x="70.6987" y="-159.8" font-family="Times,serif" font-size="14.00">keywords :string</text>
<text text-anchor="start" x="70.6987" y="-145.8" font-family="Times,serif" font-size="14.00">created_at :datetime</text>
<text text-anchor="start" x="70.6987" y="-131.8" font-family="Times,serif" font-size="14.00">updated_at :datetime</text>
</g>
<!-- Phase&#45;&gt;ClientType -->
<g id="edge5" class="edge"><title>Phase&#45;&gt;ClientType</title>
<path fill="none" stroke="#c9a475" d="M115.715,-116.917C114.125,-110.058 112.6,-103.485 111.164,-97.2919"/>
<ellipse fill="none" stroke="#c9a475" cx="116.646" cy="-120.934" rx="4.00001" ry="4.00001"/>
<polygon fill="#c9a475" stroke="#c9a475" points="111.094,-96.9886 113.219,-86.2306 109.964,-92.1179 108.835,-87.2471 108.835,-87.2471 108.835,-87.2471 109.964,-92.1179 104.451,-88.2636 111.094,-96.9886 111.094,-96.9886"/>
</g>
<!-- Project -->
<g id="node6" class="node"><title>Project</title>
<path fill="none" stroke="black" d="M74.6469,-599C74.6469,-599 191.43,-599 191.43,-599 197.43,-599 203.43,-605 203.43,-611 203.43,-611 203.43,-729 203.43,-729 203.43,-735 197.43,-741 191.43,-741 191.43,-741 74.6469,-741 74.6469,-741 68.6469,-741 62.6469,-735 62.6469,-729 62.6469,-729 62.6469,-611 62.6469,-611 62.6469,-605 68.6469,-599 74.6469,-599"/>
<text text-anchor="middle" x="133.039" y="-725.8" font-family="Times,serif" font-size="14.00">Project</text>
<polyline fill="none" stroke="black" points="62.6469,-719 203.43,-719 "/>
<text text-anchor="start" x="70.6469" y="-703.8" font-family="Times,serif" font-size="14.00">id :integer</text>
<text text-anchor="start" x="70.6469" y="-689.8" font-family="Times,serif" font-size="14.00">name :string</text>
<text text-anchor="start" x="70.6469" y="-675.8" font-family="Times,serif" font-size="14.00">name_alternate :string</text>
<text text-anchor="start" x="70.6469" y="-661.8" font-family="Times,serif" font-size="14.00">number :string</text>
<text text-anchor="start" x="70.6469" y="-647.8" font-family="Times,serif" font-size="14.00">prefix_id :integer</text>
<text text-anchor="start" x="70.6469" y="-633.8" font-family="Times,serif" font-size="14.00">description :text</text>
<text text-anchor="start" x="70.6469" y="-619.8" font-family="Times,serif" font-size="14.00">created_at :datetime</text>
<text text-anchor="start" x="70.6469" y="-605.8" font-family="Times,serif" font-size="14.00">updated_at :datetime</text>
</g>
<!-- Project&#45;&gt;Phase -->
<g id="edge7" class="edge"><title>Project&#45;&gt;Phase</title>
<path fill="none" stroke="#674f5a" d="M139.818,-590.812C141.449,-571.998 143.268,-551.02 145.15,-529.314"/>
<ellipse fill="none" stroke="#674f5a" cx="139.455" cy="-594.997" rx="4" ry="4"/>
<polygon fill="#674f5a" stroke="#674f5a" points="145.155,-529.258 150.502,-519.684 145.587,-524.276 146.019,-519.295 146.019,-519.295 146.019,-519.295 145.587,-524.276 141.536,-518.906 145.155,-529.258 145.155,-529.258"/>
</g>
<!-- ProjectManager -->
<g id="node7" class="node"><title>ProjectManager</title>
<path fill="none" stroke="black" d="M584.533,-627C584.533,-627 693.544,-627 693.544,-627 699.544,-627 705.544,-633 705.544,-639 705.544,-639 705.544,-701 705.544,-701 705.544,-707 699.544,-713 693.544,-713 693.544,-713 584.533,-713 584.533,-713 578.533,-713 572.533,-707 572.533,-701 572.533,-701 572.533,-639 572.533,-639 572.533,-633 578.533,-627 584.533,-627"/>
<text text-anchor="middle" x="639.039" y="-697.8" font-family="Times,serif" font-size="14.00">ProjectManager</text>
<polyline fill="none" stroke="black" points="572.533,-691 705.544,-691 "/>
<text text-anchor="start" x="580.533" y="-675.8" font-family="Times,serif" font-size="14.00">id :integer</text>
<text text-anchor="start" x="580.533" y="-661.8" font-family="Times,serif" font-size="14.00">name :string</text>
<text text-anchor="start" x="580.533" y="-647.8" font-family="Times,serif" font-size="14.00">created_at :datetime</text>
<text text-anchor="start" x="580.533" y="-633.8" font-family="Times,serif" font-size="14.00">updated_at :datetime</text>
</g>
<!-- Site -->
<g id="node8" class="node"><title>Site</title>
<path fill="none" stroke="black" d="M735.416,-557C735.416,-557 850.661,-557 850.661,-557 856.661,-557 862.661,-563 862.661,-569 862.661,-569 862.661,-771 862.661,-771 862.661,-777 856.661,-783 850.661,-783 850.661,-783 735.416,-783 735.416,-783 729.416,-783 723.416,-777 723.416,-771 723.416,-771 723.416,-569 723.416,-569 723.416,-563 729.416,-557 735.416,-557"/>
<text text-anchor="middle" x="793.039" y="-767.8" font-family="Times,serif" font-size="14.00">Site</text>
<polyline fill="none" stroke="black" points="723.416,-761 862.661,-761 "/>
<text text-anchor="start" x="731.416" y="-745.8" font-family="Times,serif" font-size="14.00">id :integer</text>
<text text-anchor="start" x="731.416" y="-731.8" font-family="Times,serif" font-size="14.00">number :string</text>
<text text-anchor="start" x="731.416" y="-717.8" font-family="Times,serif" font-size="14.00">structure_id :integer</text>
<text text-anchor="start" x="731.416" y="-703.8" font-family="Times,serif" font-size="14.00">address :string</text>
<text text-anchor="start" x="731.416" y="-689.8" font-family="Times,serif" font-size="14.00">city :string</text>
<text text-anchor="start" x="731.416" y="-675.8" font-family="Times,serif" font-size="14.00">county :string</text>
<text text-anchor="start" x="731.416" y="-661.8" font-family="Times,serif" font-size="14.00">loc_page :text</text>
<text text-anchor="start" x="731.416" y="-647.8" font-family="Times,serif" font-size="14.00">loc_longitude :integer</text>
<text text-anchor="start" x="731.416" y="-633.8" font-family="Times,serif" font-size="14.00">loc_latitude :integer</text>
<text text-anchor="start" x="731.416" y="-619.8" font-family="Times,serif" font-size="14.00">apn :string</text>
<text text-anchor="start" x="731.416" y="-605.8" font-family="Times,serif" font-size="14.00">tombrobox :string</text>
<text text-anchor="start" x="731.416" y="-591.8" font-family="Times,serif" font-size="14.00">fault_id :integer</text>
<text text-anchor="start" x="731.416" y="-577.8" font-family="Times,serif" font-size="14.00">created_at :datetime</text>
<text text-anchor="start" x="731.416" y="-563.8" font-family="Times,serif" font-size="14.00">updated_at :datetime</text>
</g>
<!-- StakeholderType -->
<g id="node10" class="node"><title>StakeholderType</title>
<path fill="none" stroke="black" d="M805.582,-1C805.582,-1 932.496,-1 932.496,-1 938.496,-1 944.496,-7 944.496,-13 944.496,-13 944.496,-75 944.496,-75 944.496,-81 938.496,-87 932.496,-87 932.496,-87 805.582,-87 805.582,-87 799.582,-87 793.582,-81 793.582,-75 793.582,-75 793.582,-13 793.582,-13 793.582,-7 799.582,-1 805.582,-1"/>
<text text-anchor="middle" x="869.039" y="-71.8" font-family="Times,serif" font-size="14.00">StakeholderType</text>
<polyline fill="none" stroke="black" points="793.582,-65 944.496,-65 "/>
<text text-anchor="start" x="801.582" y="-49.8" font-family="Times,serif" font-size="14.00">id :integer</text>
<text text-anchor="start" x="801.582" y="-35.8" font-family="Times,serif" font-size="14.00">stakeholder_type :string</text>
<text text-anchor="start" x="801.582" y="-21.8" font-family="Times,serif" font-size="14.00">created_at :datetime</text>
<text text-anchor="start" x="801.582" y="-7.8" font-family="Times,serif" font-size="14.00">updated_at :datetime</text>
</g>
<!-- Stakeholder&#45;&gt;StakeholderType -->
<g id="edge11" class="edge"><title>Stakeholder&#45;&gt;StakeholderType</title>
<path fill="none" stroke="#f982d4" d="M854.13,-114.744C855.418,-108.718 856.656,-102.923 857.831,-97.4284"/>
<polygon fill="#f982d4" stroke="#f982d4" points="854.064,-115.052 847.573,-123.89 853.019,-119.941 851.973,-124.831 851.973,-124.831 851.973,-124.831 853.019,-119.941 856.374,-125.771 854.064,-115.052 854.064,-115.052"/>
<polygon fill="#f982d4" stroke="#f982d4" points="857.917,-97.0262 864.408,-88.1878 858.962,-92.1366 860.007,-87.2471 860.007,-87.2471 860.007,-87.2471 858.962,-92.1366 855.607,-86.3064 857.917,-97.0262 857.917,-97.0262"/>
</g>
<!-- Structure -->
<g id="node11" class="node"><title>Structure</title>
<path fill="none" stroke="black" d="M969.533,-627C969.533,-627 1078.54,-627 1078.54,-627 1084.54,-627 1090.54,-633 1090.54,-639 1090.54,-639 1090.54,-701 1090.54,-701 1090.54,-707 1084.54,-713 1078.54,-713 1078.54,-713 969.533,-713 969.533,-713 963.533,-713 957.533,-707 957.533,-701 957.533,-701 957.533,-639 957.533,-639 957.533,-633 963.533,-627 969.533,-627"/>
<text text-anchor="middle" x="1024.04" y="-697.8" font-family="Times,serif" font-size="14.00">Structure</text>
<polyline fill="none" stroke="black" points="957.533,-691 1090.54,-691 "/>
<text text-anchor="start" x="965.533" y="-675.8" font-family="Times,serif" font-size="14.00">id :integer</text>
<text text-anchor="start" x="965.533" y="-661.8" font-family="Times,serif" font-size="14.00">structure :string</text>
<text text-anchor="start" x="965.533" y="-647.8" font-family="Times,serif" font-size="14.00">created_at :datetime</text>
<text text-anchor="start" x="965.533" y="-633.8" font-family="Times,serif" font-size="14.00">updated_at :datetime</text>
</g>
<!-- ActiveRecord::Base -->
<g id="node12" class="node"><title>ActiveRecord::Base</title>
<ellipse fill="none" stroke="black" cx="561.039" cy="-857" rx="80.9821" ry="18"/>
<text text-anchor="middle" x="561.039" y="-852.8" font-family="Times,serif" font-size="14.00">ActiveRecord::Base</text>
</g>
<!-- ActiveRecord::Base&#45;&gt;ClientType -->
<g id="edge1" class="edge"><title>ActiveRecord::Base&#45;&gt;ClientType</title>
<path fill="none" stroke="black" d="M528.503,-840.46C511.472,-833.018 490.048,-824.717 470.039,-820 424.881,-809.354 85.3987,-818.191 54.0385,-784 -45.099,-675.913 16.4906,-265.779 54.0385,-124 57.3925,-111.336 63.3019,-98.579 69.7572,-87.1212"/>
</g>
<!-- ActiveRecord::Base&#45;&gt;Company -->
<g id="edge3" class="edge"><title>ActiveRecord::Base&#45;&gt;Company</title>
<path fill="none" stroke="black" d="M553.84,-838.927C548.108,-825.331 539.539,-805.007 530.323,-783.149"/>
</g>
<!-- ActiveRecord::Base&#45;&gt;Fault -->
<g id="edge4" class="edge"><title>ActiveRecord::Base&#45;&gt;Fault</title>
<path fill="none" stroke="black" d="M523.517,-840.822C507.144,-834.285 487.691,-826.636 470.039,-820 425.431,-803.232 407.102,-812.674 369.039,-784 344.169,-765.264 323.795,-736.718 309.702,-713.005"/>
</g>
<!-- ActiveRecord::Base&#45;&gt;Phase -->
<g id="edge6" class="edge"><title>ActiveRecord::Base&#45;&gt;Phase</title>
<path fill="none" stroke="black" d="M523.1,-841.006C478.639,-823.102 409.979,-794.284 402.039,-784 339.21,-702.628 406.769,-649.041 363.039,-556 338.945,-504.738 300.399,-455.892 263.548,-416.286"/>
</g>
<!-- ActiveRecord::Base&#45;&gt;Project -->
<g id="edge8" class="edge"><title>ActiveRecord::Base&#45;&gt;Project</title>
<path fill="none" stroke="black" d="M527.545,-840.531C510.627,-833.293 489.589,-825.152 470.039,-820 358.083,-790.496 310.763,-844.481 212.039,-784 194.893,-773.496 180.494,-757.719 168.884,-741.261"/>
</g>
<!-- ActiveRecord::Base&#45;&gt;ProjectManager -->
<g id="edge9" class="edge"><title>ActiveRecord::Base&#45;&gt;ProjectManager</title>
<path fill="none" stroke="black" d="M568.237,-838.927C580.192,-810.572 604.484,-752.956 621.254,-713.182"/>
</g>
<!-- ActiveRecord::Base&#45;&gt;Site -->
<g id="edge10" class="edge"><title>ActiveRecord::Base&#45;&gt;Site</title>
<path fill="none" stroke="black" d="M606.074,-841.864C638.573,-830.078 682.162,-810.863 714.039,-784 717.15,-781.378 720.197,-778.605 723.174,-775.715"/>
</g>
<!-- ActiveRecord::Base&#45;&gt;Stakeholder -->
<g id="edge12" class="edge"><title>ActiveRecord::Base&#45;&gt;Stakeholder</title>
<path fill="none" stroke="black" d="M634.781,-849.29C716.944,-840.109 842.085,-820.449 871.039,-784 903.584,-743.029 887.532,-625.354 863.751,-519.158"/>
</g>
<!-- ActiveRecord::Base&#45;&gt;StakeholderType -->
<g id="edge13" class="edge"><title>ActiveRecord::Base&#45;&gt;StakeholderType</title>
<path fill="none" stroke="black" d="M636.287,-850.114C723.992,-841.554 861.153,-822.322 894.039,-784 937.278,-733.612 926.896,-193.075 910.039,-124 906.998,-111.54 901.619,-98.8555 895.738,-87.4015"/>
</g>
<!-- ActiveRecord::Base&#45;&gt;Structure -->
<g id="edge14" class="edge"><title>ActiveRecord::Base&#45;&gt;Structure</title>
<path fill="none" stroke="black" d="M633.74,-848.79C729.805,-838.174 892.748,-816.063 943.039,-784 969.803,-766.936 990.443,-737.587 1004.19,-713.076"/>
</g>
</g>
</svg>
