<?xml version="1.0" encoding="UTF-8" standalone="no"?>
<!DOCTYPE svg PUBLIC "-//W3C//DTD SVG 1.1//EN"
 "http://www.w3.org/Graphics/SVG/1.1/DTD/svg11.dtd">
<!-- Generated by graphviz version 2.36.0 (20140111.2315)
 -->
<!-- Title: models_diagram Pages: 1 -->
<svg width="972pt" height="902pt"
 viewBox="0.00 0.00 971.84 902.00" xmlns="http://www.w3.org/2000/svg" xmlns:xlink="http://www.w3.org/1999/xlink">
<g id="graph0" class="graph" transform="scale(1 1) rotate(0) translate(4 898)">
<title>models_diagram</title>
<polygon fill="white" stroke="none" points="-4,4 -4,-898 967.843,-898 967.843,4 -4,4"/>
<!-- _diagram_info -->
<g id="node1" class="node"><title>_diagram_info</title>
<text text-anchor="start" x="205.312" y="-879.1" font-family="Times,serif" font-size="13.00">Models diagram</text>
<text text-anchor="start" x="205.312" y="-866.1" font-family="Times,serif" font-size="13.00">Date: Feb 19 2014 &#45; 18:48</text>
<text text-anchor="start" x="205.312" y="-853.1" font-family="Times,serif" font-size="13.00">Migration version: 20140220022647</text>
<text text-anchor="start" x="205.312" y="-840.1" font-family="Times,serif" font-size="13.00">Generated by RailRoady 1.1.1</text>
<text text-anchor="start" x="205.312" y="-827.1" font-family="Times,serif" font-size="13.00">http://railroady.prestonlee.com</text>
</g>
<!-- ClientType -->
<g id="node2" class="node"><title>ClientType</title>
<path fill="none" stroke="black" d="M211.495,-627C211.495,-627 320.505,-627 320.505,-627 326.505,-627 332.505,-633 332.505,-639 332.505,-639 332.505,-701 332.505,-701 332.505,-707 326.505,-713 320.505,-713 320.505,-713 211.495,-713 211.495,-713 205.495,-713 199.495,-707 199.495,-701 199.495,-701 199.495,-639 199.495,-639 199.495,-633 205.495,-627 211.495,-627"/>
<text text-anchor="middle" x="266" y="-697.8" font-family="Times,serif" font-size="14.00">ClientType</text>
<polyline fill="none" stroke="black" points="199.495,-691 332.505,-691 "/>
<text text-anchor="start" x="207.495" y="-675.8" font-family="Times,serif" font-size="14.00">id :integer</text>
<text text-anchor="start" x="207.495" y="-661.8" font-family="Times,serif" font-size="14.00">client_type :string</text>
<text text-anchor="start" x="207.495" y="-647.8" font-family="Times,serif" font-size="14.00">created_at :datetime</text>
<text text-anchor="start" x="207.495" y="-633.8" font-family="Times,serif" font-size="14.00">updated_at :datetime</text>
</g>
<!-- Stakeholder -->
<g id="node9" class="node"><title>Stakeholder</title>
<path fill="none" stroke="black" d="M127.608,-125C127.608,-125 286.392,-125 286.392,-125 292.392,-125 298.392,-131 298.392,-137 298.392,-137 298.392,-507 298.392,-507 298.392,-513 292.392,-519 286.392,-519 286.392,-519 127.608,-519 127.608,-519 121.608,-519 115.608,-513 115.608,-507 115.608,-507 115.608,-137 115.608,-137 115.608,-131 121.608,-125 127.608,-125"/>
<text text-anchor="middle" x="207" y="-503.8" font-family="Times,serif" font-size="14.00">Stakeholder</text>
<polyline fill="none" stroke="black" points="115.608,-497 298.392,-497 "/>
<text text-anchor="start" x="123.608" y="-481.8" font-family="Times,serif" font-size="14.00">id :integer</text>
<text text-anchor="start" x="123.608" y="-467.8" font-family="Times,serif" font-size="14.00">stakeholder_type_id :integer</text>
<text text-anchor="start" x="123.608" y="-453.8" font-family="Times,serif" font-size="14.00">company_id :integer</text>
<text text-anchor="start" x="123.608" y="-439.8" font-family="Times,serif" font-size="14.00">name :string</text>
<text text-anchor="start" x="123.608" y="-425.8" font-family="Times,serif" font-size="14.00">client_type_id :string</text>
<text text-anchor="start" x="123.608" y="-411.8" font-family="Times,serif" font-size="14.00">address :string</text>
<text text-anchor="start" x="123.608" y="-397.8" font-family="Times,serif" font-size="14.00">city :string</text>
<text text-anchor="start" x="123.608" y="-383.8" font-family="Times,serif" font-size="14.00">state :string</text>
<text text-anchor="start" x="123.608" y="-369.8" font-family="Times,serif" font-size="14.00">zip :integer</text>
<text text-anchor="start" x="123.608" y="-355.8" font-family="Times,serif" font-size="14.00">work_phone :string</text>
<text text-anchor="start" x="123.608" y="-341.8" font-family="Times,serif" font-size="14.00">home_phone :string</text>
<text text-anchor="start" x="123.608" y="-327.8" font-family="Times,serif" font-size="14.00">cell_phone :string</text>
<text text-anchor="start" x="123.608" y="-313.8" font-family="Times,serif" font-size="14.00">fax_phone :string</text>
<text text-anchor="start" x="123.608" y="-299.8" font-family="Times,serif" font-size="14.00">email :string</text>
<text text-anchor="start" x="123.608" y="-285.8" font-family="Times,serif" font-size="14.00">address_alternate :string</text>
<text text-anchor="start" x="123.608" y="-271.8" font-family="Times,serif" font-size="14.00">city_alternate :string</text>
<text text-anchor="start" x="123.608" y="-257.8" font-family="Times,serif" font-size="14.00">state_alternate :string</text>
<text text-anchor="start" x="123.608" y="-243.8" font-family="Times,serif" font-size="14.00">zip_alternate :integer</text>
<text text-anchor="start" x="123.608" y="-229.8" font-family="Times,serif" font-size="14.00">work_phone_alternate :string</text>
<text text-anchor="start" x="123.608" y="-215.8" font-family="Times,serif" font-size="14.00">home_phone_alternate :string</text>
<text text-anchor="start" x="123.608" y="-201.8" font-family="Times,serif" font-size="14.00">cell_phone_alternate :string</text>
<text text-anchor="start" x="123.608" y="-187.8" font-family="Times,serif" font-size="14.00">fax_phone_alternate :string</text>
<text text-anchor="start" x="123.608" y="-173.8" font-family="Times,serif" font-size="14.00">email_alternate :string</text>
<text text-anchor="start" x="123.608" y="-159.8" font-family="Times,serif" font-size="14.00">notes :text</text>
<text text-anchor="start" x="123.608" y="-145.8" font-family="Times,serif" font-size="14.00">created_at :datetime</text>
<text text-anchor="start" x="123.608" y="-131.8" font-family="Times,serif" font-size="14.00">updated_at :datetime</text>
</g>
<!-- ClientType&#45;&gt;Stakeholder -->
<g id="edge1" class="edge"><title>ClientType&#45;&gt;Stakeholder</title>
<path fill="none" stroke="#c2be10" d="M257.433,-618.76C253.215,-594.023 247.819,-562.379 242.133,-529.034"/>
<ellipse fill="none" stroke="#c2be10" cx="258.152" cy="-622.976" rx="4.00001" ry="4.00001"/>
<polygon fill="#c2be10" stroke="#c2be10" points="242.123,-528.972 244.878,-518.358 241.282,-524.044 240.442,-519.115 240.442,-519.115 240.442,-519.115 241.282,-524.044 236.006,-519.871 242.123,-528.972 242.123,-528.972"/>
</g>
<!-- Company -->
<g id="node3" class="node"><title>Company</title>
<path fill="none" stroke="black" d="M11.043,-557C11.043,-557 130.957,-557 130.957,-557 136.957,-557 142.957,-563 142.957,-569 142.957,-569 142.957,-771 142.957,-771 142.957,-777 136.957,-783 130.957,-783 130.957,-783 11.043,-783 11.043,-783 5.04297,-783 -0.957031,-777 -0.957031,-771 -0.957031,-771 -0.957031,-569 -0.957031,-569 -0.957031,-563 5.04297,-557 11.043,-557"/>
<text text-anchor="middle" x="71" y="-767.8" font-family="Times,serif" font-size="14.00">Company</text>
<polyline fill="none" stroke="black" points="-0.957031,-761 142.957,-761 "/>
<text text-anchor="start" x="7.04297" y="-745.8" font-family="Times,serif" font-size="14.00">id :integer</text>
<text text-anchor="start" x="7.04297" y="-731.8" font-family="Times,serif" font-size="14.00">company_name :string</text>
<text text-anchor="start" x="7.04297" y="-717.8" font-family="Times,serif" font-size="14.00">contact :string</text>
<text text-anchor="start" x="7.04297" y="-703.8" font-family="Times,serif" font-size="14.00">address :string</text>
<text text-anchor="start" x="7.04297" y="-689.8" font-family="Times,serif" font-size="14.00">city :string</text>
<text text-anchor="start" x="7.04297" y="-675.8" font-family="Times,serif" font-size="14.00">state :string</text>
<text text-anchor="start" x="7.04297" y="-661.8" font-family="Times,serif" font-size="14.00">zip :integer</text>
<text text-anchor="start" x="7.04297" y="-647.8" font-family="Times,serif" font-size="14.00">phone :string</text>
<text text-anchor="start" x="7.04297" y="-633.8" font-family="Times,serif" font-size="14.00">fax :string</text>
<text text-anchor="start" x="7.04297" y="-619.8" font-family="Times,serif" font-size="14.00">email :string</text>
<text text-anchor="start" x="7.04297" y="-605.8" font-family="Times,serif" font-size="14.00">website :text</text>
<text text-anchor="start" x="7.04297" y="-591.8" font-family="Times,serif" font-size="14.00">notes :text</text>
<text text-anchor="start" x="7.04297" y="-577.8" font-family="Times,serif" font-size="14.00">created_at :datetime</text>
<text text-anchor="start" x="7.04297" y="-563.8" font-family="Times,serif" font-size="14.00">updated_at :datetime</text>
</g>
<!-- Company&#45;&gt;Stakeholder -->
<g id="edge3" class="edge"><title>Company&#45;&gt;Stakeholder</title>
<path fill="none" stroke="#61a5f2" d="M118.083,-549.215C120.734,-542.471 123.431,-535.608 126.158,-528.673"/>
<ellipse fill="none" stroke="#61a5f2" cx="116.619" cy="-552.941" rx="4.00001" ry="4.00001"/>
<polygon fill="#61a5f2" stroke="#61a5f2" points="126.233,-528.481 134.079,-520.82 128.062,-523.828 129.891,-519.174 129.891,-519.174 129.891,-519.174 128.062,-523.828 125.703,-517.528 126.233,-528.481 126.233,-528.481"/>
</g>
<!-- Fault -->
<g id="node4" class="node"><title>Fault</title>
<path fill="none" stroke="black" d="M787.495,-627C787.495,-627 896.505,-627 896.505,-627 902.505,-627 908.505,-633 908.505,-639 908.505,-639 908.505,-701 908.505,-701 908.505,-707 902.505,-713 896.505,-713 896.505,-713 787.495,-713 787.495,-713 781.495,-713 775.495,-707 775.495,-701 775.495,-701 775.495,-639 775.495,-639 775.495,-633 781.495,-627 787.495,-627"/>
<text text-anchor="middle" x="842" y="-697.8" font-family="Times,serif" font-size="14.00">Fault</text>
<polyline fill="none" stroke="black" points="775.495,-691 908.505,-691 "/>
<text text-anchor="start" x="783.495" y="-675.8" font-family="Times,serif" font-size="14.00">id :integer</text>
<text text-anchor="start" x="783.495" y="-661.8" font-family="Times,serif" font-size="14.00">name :string</text>
<text text-anchor="start" x="783.495" y="-647.8" font-family="Times,serif" font-size="14.00">created_at :datetime</text>
<text text-anchor="start" x="783.495" y="-633.8" font-family="Times,serif" font-size="14.00">updated_at :datetime</text>
</g>
<!-- Site -->
<g id="node8" class="node"><title>Site</title>
<path fill="none" stroke="black" d="M786.884,-209C786.884,-209 923.116,-209 923.116,-209 929.116,-209 935.116,-215 935.116,-221 935.116,-221 935.116,-423 935.116,-423 935.116,-429 929.116,-435 923.116,-435 923.116,-435 786.884,-435 786.884,-435 780.884,-435 774.884,-429 774.884,-423 774.884,-423 774.884,-221 774.884,-221 774.884,-215 780.884,-209 786.884,-209"/>
<text text-anchor="middle" x="855" y="-419.8" font-family="Times,serif" font-size="14.00">Site</text>
<polyline fill="none" stroke="black" points="774.884,-413 935.116,-413 "/>
<text text-anchor="start" x="782.884" y="-397.8" font-family="Times,serif" font-size="14.00">id :integer</text>
<text text-anchor="start" x="782.884" y="-383.8" font-family="Times,serif" font-size="14.00">number :string</text>
<text text-anchor="start" x="782.884" y="-369.8" font-family="Times,serif" font-size="14.00">structure_type_id :integer</text>
<text text-anchor="start" x="782.884" y="-355.8" font-family="Times,serif" font-size="14.00">address :string</text>
<text text-anchor="start" x="782.884" y="-341.8" font-family="Times,serif" font-size="14.00">city :string</text>
<text text-anchor="start" x="782.884" y="-327.8" font-family="Times,serif" font-size="14.00">county :string</text>
<text text-anchor="start" x="782.884" y="-313.8" font-family="Times,serif" font-size="14.00">loc_page :text</text>
<text text-anchor="start" x="782.884" y="-299.8" font-family="Times,serif" font-size="14.00">loc_longitude :integer</text>
<text text-anchor="start" x="782.884" y="-285.8" font-family="Times,serif" font-size="14.00">loc_latitude :integer</text>
<text text-anchor="start" x="782.884" y="-271.8" font-family="Times,serif" font-size="14.00">apn :string</text>
<text text-anchor="start" x="782.884" y="-257.8" font-family="Times,serif" font-size="14.00">tombrobox :string</text>
<text text-anchor="start" x="782.884" y="-243.8" font-family="Times,serif" font-size="14.00">fault_id :integer</text>
<text text-anchor="start" x="782.884" y="-229.8" font-family="Times,serif" font-size="14.00">created_at :datetime</text>
<text text-anchor="start" x="782.884" y="-215.8" font-family="Times,serif" font-size="14.00">updated_at :datetime</text>
</g>
<!-- Fault&#45;&gt;Site -->
<g id="edge5" class="edge"><title>Fault&#45;&gt;Site</title>
<path fill="none" stroke="#cbcd1f" d="M843.883,-618.873C845.585,-573.585 848.159,-505.077 850.402,-445.386"/>
<ellipse fill="none" stroke="#cbcd1f" cx="843.731" cy="-622.922" rx="4" ry="4"/>
<polygon fill="#cbcd1f" stroke="#cbcd1f" points="850.412,-445.114 855.284,-435.29 850.6,-440.117 850.787,-435.121 850.787,-435.121 850.787,-435.121 850.6,-440.117 846.291,-434.952 850.412,-445.114 850.412,-445.114"/>
</g>
<!-- Phase -->
<g id="node5" class="node"><title>Phase</title>
<path fill="none" stroke="black" d="M462.66,-125C462.66,-125 639.34,-125 639.34,-125 645.34,-125 651.34,-131 651.34,-137 651.34,-137 651.34,-507 651.34,-507 651.34,-513 645.34,-519 639.34,-519 639.34,-519 462.66,-519 462.66,-519 456.66,-519 450.66,-513 450.66,-507 450.66,-507 450.66,-137 450.66,-137 450.66,-131 456.66,-125 462.66,-125"/>
<text text-anchor="middle" x="551" y="-503.8" font-family="Times,serif" font-size="14.00">Phase</text>
<polyline fill="none" stroke="black" points="450.66,-497 651.34,-497 "/>
<text text-anchor="start" x="458.66" y="-481.8" font-family="Times,serif" font-size="14.00">id :integer</text>
<text text-anchor="start" x="458.66" y="-467.8" font-family="Times,serif" font-size="14.00">phase :string</text>
<text text-anchor="start" x="458.66" y="-453.8" font-family="Times,serif" font-size="14.00">project_id :integer</text>
<text text-anchor="start" x="458.66" y="-439.8" font-family="Times,serif" font-size="14.00">company_id :integer</text>
<text text-anchor="start" x="458.66" y="-425.8" font-family="Times,serif" font-size="14.00">project_manager_id :integer</text>
<text text-anchor="start" x="458.66" y="-411.8" font-family="Times,serif" font-size="14.00">investigation_type_id :string</text>
<text text-anchor="start" x="458.66" y="-397.8" font-family="Times,serif" font-size="14.00">site_id :integer</text>
<text text-anchor="start" x="458.66" y="-383.8" font-family="Times,serif" font-size="14.00">stakeholder_id :integer</text>
<text text-anchor="start" x="458.66" y="-369.8" font-family="Times,serif" font-size="14.00">description :text</text>
<text text-anchor="start" x="458.66" y="-355.8" font-family="Times,serif" font-size="14.00">proposal_date :date</text>
<text text-anchor="start" x="458.66" y="-341.8" font-family="Times,serif" font-size="14.00">proposal_number :string</text>
<text text-anchor="start" x="458.66" y="-327.8" font-family="Times,serif" font-size="14.00">report_date :date</text>
<text text-anchor="start" x="458.66" y="-313.8" font-family="Times,serif" font-size="14.00">notes :text</text>
<text text-anchor="start" x="458.66" y="-299.8" font-family="Times,serif" font-size="14.00">insurance_policy_number :string</text>
<text text-anchor="start" x="458.66" y="-285.8" font-family="Times,serif" font-size="14.00">insurance_notes :text</text>
<text text-anchor="start" x="458.66" y="-271.8" font-family="Times,serif" font-size="14.00">Rakefile :string</text>
<text text-anchor="start" x="458.66" y="-257.8" font-family="Times,serif" font-size="14.00">bill_name :string</text>
<text text-anchor="start" x="458.66" y="-243.8" font-family="Times,serif" font-size="14.00">bill_attention :string</text>
<text text-anchor="start" x="458.66" y="-229.8" font-family="Times,serif" font-size="14.00">bill_address :string</text>
<text text-anchor="start" x="458.66" y="-215.8" font-family="Times,serif" font-size="14.00">bill_city :string</text>
<text text-anchor="start" x="458.66" y="-201.8" font-family="Times,serif" font-size="14.00">bill_state :string</text>
<text text-anchor="start" x="458.66" y="-187.8" font-family="Times,serif" font-size="14.00">bill_zip :string</text>
<text text-anchor="start" x="458.66" y="-173.8" font-family="Times,serif" font-size="14.00">bad_pay_history :text</text>
<text text-anchor="start" x="458.66" y="-159.8" font-family="Times,serif" font-size="14.00">keywords :string</text>
<text text-anchor="start" x="458.66" y="-145.8" font-family="Times,serif" font-size="14.00">created_at :datetime</text>
<text text-anchor="start" x="458.66" y="-131.8" font-family="Times,serif" font-size="14.00">updated_at :datetime</text>
</g>
<!-- Project -->
<g id="node6" class="node"><title>Project</title>
<path fill="none" stroke="black" d="M590.608,-599C590.608,-599 707.392,-599 707.392,-599 713.392,-599 719.392,-605 719.392,-611 719.392,-611 719.392,-729 719.392,-729 719.392,-735 713.392,-741 707.392,-741 707.392,-741 590.608,-741 590.608,-741 584.608,-741 578.608,-735 578.608,-729 578.608,-729 578.608,-611 578.608,-611 578.608,-605 584.608,-599 590.608,-599"/>
<text text-anchor="middle" x="649" y="-725.8" font-family="Times,serif" font-size="14.00">Project</text>
<polyline fill="none" stroke="black" points="578.608,-719 719.392,-719 "/>
<text text-anchor="start" x="586.608" y="-703.8" font-family="Times,serif" font-size="14.00">id :integer</text>
<text text-anchor="start" x="586.608" y="-689.8" font-family="Times,serif" font-size="14.00">name :string</text>
<text text-anchor="start" x="586.608" y="-675.8" font-family="Times,serif" font-size="14.00">name_alternate :string</text>
<text text-anchor="start" x="586.608" y="-661.8" font-family="Times,serif" font-size="14.00">number :string</text>
<text text-anchor="start" x="586.608" y="-647.8" font-family="Times,serif" font-size="14.00">prefix_id :integer</text>
<text text-anchor="start" x="586.608" y="-633.8" font-family="Times,serif" font-size="14.00">description :text</text>
<text text-anchor="start" x="586.608" y="-619.8" font-family="Times,serif" font-size="14.00">created_at :datetime</text>
<text text-anchor="start" x="586.608" y="-605.8" font-family="Times,serif" font-size="14.00">updated_at :datetime</text>
</g>
<!-- Project&#45;&gt;Phase -->
<g id="edge8" class="edge"><title>Project&#45;&gt;Phase</title>
<path fill="none" stroke="#19829c" d="M626.936,-591.099C621.565,-572.139 615.569,-550.968 609.365,-529.063"/>
<ellipse fill="none" stroke="#19829c" cx="628.078" cy="-595.133" rx="4.00001" ry="4.00001"/>
<polygon fill="#19829c" stroke="#19829c" points="609.323,-528.916 610.928,-518.069 607.961,-524.106 606.598,-519.295 606.598,-519.295 606.598,-519.295 607.961,-524.106 602.268,-520.521 609.323,-528.916 609.323,-528.916"/>
</g>
<!-- ProjectManager -->
<g id="node7" class="node"><title>ProjectManager</title>
<path fill="none" stroke="black" d="M401.495,-627C401.495,-627 510.505,-627 510.505,-627 516.505,-627 522.505,-633 522.505,-639 522.505,-639 522.505,-701 522.505,-701 522.505,-707 516.505,-713 510.505,-713 510.505,-713 401.495,-713 401.495,-713 395.495,-713 389.495,-707 389.495,-701 389.495,-701 389.495,-639 389.495,-639 389.495,-633 395.495,-627 401.495,-627"/>
<text text-anchor="middle" x="456" y="-697.8" font-family="Times,serif" font-size="14.00">ProjectManager</text>
<polyline fill="none" stroke="black" points="389.495,-691 522.505,-691 "/>
<text text-anchor="start" x="397.495" y="-675.8" font-family="Times,serif" font-size="14.00">id :integer</text>
<text text-anchor="start" x="397.495" y="-661.8" font-family="Times,serif" font-size="14.00">name :string</text>
<text text-anchor="start" x="397.495" y="-647.8" font-family="Times,serif" font-size="14.00">created_at :datetime</text>
<text text-anchor="start" x="397.495" y="-633.8" font-family="Times,serif" font-size="14.00">updated_at :datetime</text>
</g>
<!-- ProjectManager&#45;&gt;Phase -->
<g id="edge10" class="edge"><title>ProjectManager&#45;&gt;Phase</title>
<path fill="none" stroke="#e3e1c1" d="M469.698,-619.111C476.501,-594.333 485.224,-562.564 494.418,-529.077"/>
<ellipse fill="none" stroke="#e3e1c1" cx="468.613" cy="-623.062" rx="4.00001" ry="4.00001"/>
<polygon fill="#e3e1c1" stroke="#e3e1c1" points="494.506,-528.758 501.493,-520.306 495.83,-523.936 497.153,-519.115 497.153,-519.115 497.153,-519.115 495.83,-523.936 492.814,-517.923 494.506,-528.758 494.506,-528.758"/>
</g>
<!-- StructureType -->
<g id="node11" class="node"><title>StructureType</title>
<path fill="none" stroke="black" d="M745.319,-1C745.319,-1 856.681,-1 856.681,-1 862.681,-1 868.681,-7 868.681,-13 868.681,-13 868.681,-75 868.681,-75 868.681,-81 862.681,-87 856.681,-87 856.681,-87 745.319,-87 745.319,-87 739.319,-87 733.319,-81 733.319,-75 733.319,-75 733.319,-13 733.319,-13 733.319,-7 739.319,-1 745.319,-1"/>
<text text-anchor="middle" x="801" y="-71.8" font-family="Times,serif" font-size="14.00">StructureType</text>
<polyline fill="none" stroke="black" points="733.319,-65 868.681,-65 "/>
<text text-anchor="start" x="741.319" y="-49.8" font-family="Times,serif" font-size="14.00">id :integer</text>
<text text-anchor="start" x="741.319" y="-35.8" font-family="Times,serif" font-size="14.00">structure_type :string</text>
<text text-anchor="start" x="741.319" y="-21.8" font-family="Times,serif" font-size="14.00">created_at :datetime</text>
<text text-anchor="start" x="741.319" y="-7.8" font-family="Times,serif" font-size="14.00">updated_at :datetime</text>
</g>
<!-- Site&#45;&gt;StructureType -->
<g id="edge12" class="edge"><title>Site&#45;&gt;StructureType</title>
<path fill="none" stroke="#237139" d="M831.111,-198.9C824.117,-163.155 816.841,-125.967 811.194,-97.103"/>
<polygon fill="#237139" stroke="#237139" points="831.116,-198.926 828.62,-209.604 832.076,-203.833 833.036,-208.74 833.036,-208.74 833.036,-208.74 832.076,-203.833 837.452,-207.876 831.116,-198.926 831.116,-198.926"/>
<polygon fill="#237139" stroke="#237139" points="811.188,-97.0704 813.684,-86.3924 810.228,-92.1635 809.268,-87.2565 809.268,-87.2565 809.268,-87.2565 810.228,-92.1635 804.851,-88.1206 811.188,-97.0704 811.188,-97.0704"/>
</g>
<!-- StakeholderType -->
<g id="node10" class="node"><title>StakeholderType</title>
<path fill="none" stroke="black" d="M220.543,-1C220.543,-1 347.457,-1 347.457,-1 353.457,-1 359.457,-7 359.457,-13 359.457,-13 359.457,-75 359.457,-75 359.457,-81 353.457,-87 347.457,-87 347.457,-87 220.543,-87 220.543,-87 214.543,-87 208.543,-81 208.543,-75 208.543,-75 208.543,-13 208.543,-13 208.543,-7 214.543,-1 220.543,-1"/>
<text text-anchor="middle" x="284" y="-71.8" font-family="Times,serif" font-size="14.00">StakeholderType</text>
<polyline fill="none" stroke="black" points="208.543,-65 359.457,-65 "/>
<text text-anchor="start" x="216.543" y="-49.8" font-family="Times,serif" font-size="14.00">id :integer</text>
<text text-anchor="start" x="216.543" y="-35.8" font-family="Times,serif" font-size="14.00">stakeholder_type :string</text>
<text text-anchor="start" x="216.543" y="-21.8" font-family="Times,serif" font-size="14.00">created_at :datetime</text>
<text text-anchor="start" x="216.543" y="-7.8" font-family="Times,serif" font-size="14.00">updated_at :datetime</text>
</g>
<!-- Stakeholder&#45;&gt;StakeholderType -->
<g id="edge14" class="edge"><title>Stakeholder&#45;&gt;StakeholderType</title>
<path fill="none" stroke="#ca5eb1" d="M264.456,-115.053C266.201,-108.8 267.876,-102.794 269.462,-97.1117"/>
<polygon fill="#ca5eb1" stroke="#ca5eb1" points="264.416,-115.198 257.394,-123.621 263.072,-120.015 261.728,-124.831 261.728,-124.831 261.728,-124.831 263.072,-120.015 266.063,-126.04 264.416,-115.198 264.416,-115.198"/>
<polygon fill="#ca5eb1" stroke="#ca5eb1" points="269.526,-96.8793 276.548,-88.4564 270.87,-92.0632 272.214,-87.2471 272.214,-87.2471 272.214,-87.2471 270.87,-92.0632 267.879,-86.0378 269.526,-96.8793 269.526,-96.8793"/>
</g>
<!-- ActiveRecord::Base -->
<g id="node12" class="node"><title>ActiveRecord::Base</title>
<ellipse fill="none" stroke="black" cx="504" cy="-857" rx="80.9821" ry="18"/>
<text text-anchor="middle" x="504" y="-852.8" font-family="Times,serif" font-size="14.00">ActiveRecord::Base</text>
</g>
<!-- ActiveRecord::Base&#45;&gt;ClientType -->
<g id="edge2" class="edge"><title>ActiveRecord::Base&#45;&gt;ClientType</title>
<path fill="none" stroke="black" d="M465.461,-840.994C425.43,-824.944 366.031,-799.689 347,-784 323.253,-764.424 303.069,-736.318 288.788,-713.034"/>
</g>
<!-- ActiveRecord::Base&#45;&gt;Company -->
<g id="edge4" class="edge"><title>ActiveRecord::Base&#45;&gt;Company</title>
<path fill="none" stroke="black" d="M470.504,-840.54C453.585,-833.305 432.548,-825.163 413,-820 301.912,-790.661 256.135,-842.083 157,-784 152.214,-781.196 147.605,-778.012 143.179,-774.536"/>
</g>
<!-- ActiveRecord::Base&#45;&gt;Fault -->
<g id="edge6" class="edge"><title>ActiveRecord::Base&#45;&gt;Fault</title>
<path fill="none" stroke="black" d="M576.581,-848.783C631.346,-840.4 706.159,-822.412 761,-784 786.701,-765.998 807.188,-737.14 821.127,-713.093"/>
</g>
<!-- ActiveRecord::Base&#45;&gt;Phase -->
<g id="edge7" class="edge"><title>ActiveRecord::Base&#45;&gt;Phase</title>
<path fill="none" stroke="black" d="M512.126,-838.995C518.533,-824.684 527.027,-803.491 531,-784 548.479,-698.243 554.682,-601.723 556.049,-519.244"/>
</g>
<!-- ActiveRecord::Base&#45;&gt;Project -->
<g id="edge9" class="edge"><title>ActiveRecord::Base&#45;&gt;Project</title>
<path fill="none" stroke="black" d="M518.855,-839.089C531.403,-824.657 549.719,-803.246 565,-784 575.868,-770.312 587.218,-755.455 597.933,-741.15"/>
</g>
<!-- ActiveRecord::Base&#45;&gt;ProjectManager -->
<g id="edge11" class="edge"><title>ActiveRecord::Base&#45;&gt;ProjectManager</title>
<path fill="none" stroke="black" d="M499.57,-838.927C492.213,-810.572 477.264,-752.956 466.944,-713.182"/>
</g>
<!-- ActiveRecord::Base&#45;&gt;Site -->
<g id="edge13" class="edge"><title>ActiveRecord::Base&#45;&gt;Site</title>
<path fill="none" stroke="black" d="M584.048,-853.83C691.929,-849.023 875.314,-833.582 917,-784 997.941,-687.728 957.444,-537.961 913.314,-435.426"/>
</g>
<!-- ActiveRecord::Base&#45;&gt;Stakeholder -->
<g id="edge15" class="edge"><title>ActiveRecord::Base&#45;&gt;Stakeholder</title>
<path fill="none" stroke="black" d="M470.03,-840.529C453.175,-833.38 432.33,-825.316 413,-820 364.6,-806.689 222.544,-822.219 190,-784 156.25,-744.365 161.161,-626.104 174.172,-519.293"/>
</g>
<!-- ActiveRecord::Base&#45;&gt;StakeholderType -->
<g id="edge16" class="edge"><title>ActiveRecord::Base&#45;&gt;StakeholderType</title>
<path fill="none" stroke="black" d="M459.376,-841.822C431.825,-830.64 398.345,-812.158 380,-784 339.724,-722.182 321.422,-196.357 307,-124 304.599,-111.952 301.215,-99.0834 297.78,-87.3051"/>
</g>
<!-- ActiveRecord::Base&#45;&gt;StructureType -->
<g id="edge17" class="edge"><title>ActiveRecord::Base&#45;&gt;StructureType</title>
<path fill="none" stroke="black" d="M582.551,-852.405C632.455,-845.636 693.873,-828.094 728,-784 772.958,-725.911 748.734,-195.397 766,-124 768.997,-111.606 773.863,-98.7336 779.025,-87.0661"/>
</g>
</g>
</svg>
