<?xml version="1.0" encoding="UTF-8" standalone="no"?>
<!DOCTYPE svg PUBLIC "-//W3C//DTD SVG 1.1//EN"
 "http://www.w3.org/Graphics/SVG/1.1/DTD/svg11.dtd">
<!-- Generated by graphviz version 2.36.0 (20140111.2315)
 -->
<!-- Title: models_diagram Pages: 1 -->
<svg width="1084pt" height="902pt"
 viewBox="0.00 0.00 1084.02 902.00" xmlns="http://www.w3.org/2000/svg" xmlns:xlink="http://www.w3.org/1999/xlink">
<g id="graph0" class="graph" transform="scale(1 1) rotate(0) translate(4 898)">
<title>models_diagram</title>
<polygon fill="white" stroke="none" points="-4,4 -4,-898 1080.02,-898 1080.02,4 -4,4"/>
<!-- _diagram_info -->
<g id="node1" class="node"><title>_diagram_info</title>
<text text-anchor="start" x="242.329" y="-879.1" font-family="Times,serif" font-size="13.00">Models diagram</text>
<text text-anchor="start" x="242.329" y="-866.1" font-family="Times,serif" font-size="13.00">Date: Feb 19 2014 &#45; 18:06</text>
<text text-anchor="start" x="242.329" y="-853.1" font-family="Times,serif" font-size="13.00">Migration version: 20140220012509</text>
<text text-anchor="start" x="242.329" y="-840.1" font-family="Times,serif" font-size="13.00">Generated by RailRoady 1.1.1</text>
<text text-anchor="start" x="242.329" y="-827.1" font-family="Times,serif" font-size="13.00">http://railroady.prestonlee.com</text>
</g>
<!-- ClientType -->
<g id="node2" class="node"><title>ClientType</title>
<path fill="none" stroke="black" d="M69.5117,-1C69.5117,-1 178.522,-1 178.522,-1 184.522,-1 190.522,-7 190.522,-13 190.522,-13 190.522,-75 190.522,-75 190.522,-81 184.522,-87 178.522,-87 178.522,-87 69.5117,-87 69.5117,-87 63.5117,-87 57.5117,-81 57.5117,-75 57.5117,-75 57.5117,-13 57.5117,-13 57.5117,-7 63.5117,-1 69.5117,-1"/>
<text text-anchor="middle" x="124.017" y="-71.8" font-family="Times,serif" font-size="14.00">ClientType</text>
<polyline fill="none" stroke="black" points="57.5117,-65 190.522,-65 "/>
<text text-anchor="start" x="65.5117" y="-49.8" font-family="Times,serif" font-size="14.00">id :integer</text>
<text text-anchor="start" x="65.5117" y="-35.8" font-family="Times,serif" font-size="14.00">client_type :string</text>
<text text-anchor="start" x="65.5117" y="-21.8" font-family="Times,serif" font-size="14.00">created_at :datetime</text>
<text text-anchor="start" x="65.5117" y="-7.8" font-family="Times,serif" font-size="14.00">updated_at :datetime</text>
</g>
<!-- Company -->
<g id="node3" class="node"><title>Company</title>
<path fill="none" stroke="black" d="M559.06,-557C559.06,-557 678.974,-557 678.974,-557 684.974,-557 690.974,-563 690.974,-569 690.974,-569 690.974,-771 690.974,-771 690.974,-777 684.974,-783 678.974,-783 678.974,-783 559.06,-783 559.06,-783 553.06,-783 547.06,-777 547.06,-771 547.06,-771 547.06,-569 547.06,-569 547.06,-563 553.06,-557 559.06,-557"/>
<text text-anchor="middle" x="619.017" y="-767.8" font-family="Times,serif" font-size="14.00">Company</text>
<polyline fill="none" stroke="black" points="547.06,-761 690.974,-761 "/>
<text text-anchor="start" x="555.06" y="-745.8" font-family="Times,serif" font-size="14.00">id :integer</text>
<text text-anchor="start" x="555.06" y="-731.8" font-family="Times,serif" font-size="14.00">company_name :string</text>
<text text-anchor="start" x="555.06" y="-717.8" font-family="Times,serif" font-size="14.00">contact :string</text>
<text text-anchor="start" x="555.06" y="-703.8" font-family="Times,serif" font-size="14.00">address :string</text>
<text text-anchor="start" x="555.06" y="-689.8" font-family="Times,serif" font-size="14.00">city :string</text>
<text text-anchor="start" x="555.06" y="-675.8" font-family="Times,serif" font-size="14.00">state :string</text>
<text text-anchor="start" x="555.06" y="-661.8" font-family="Times,serif" font-size="14.00">zip :integer</text>
<text text-anchor="start" x="555.06" y="-647.8" font-family="Times,serif" font-size="14.00">phone :string</text>
<text text-anchor="start" x="555.06" y="-633.8" font-family="Times,serif" font-size="14.00">fax :string</text>
<text text-anchor="start" x="555.06" y="-619.8" font-family="Times,serif" font-size="14.00">email :string</text>
<text text-anchor="start" x="555.06" y="-605.8" font-family="Times,serif" font-size="14.00">website :text</text>
<text text-anchor="start" x="555.06" y="-591.8" font-family="Times,serif" font-size="14.00">notes :text</text>
<text text-anchor="start" x="555.06" y="-577.8" font-family="Times,serif" font-size="14.00">created_at :datetime</text>
<text text-anchor="start" x="555.06" y="-563.8" font-family="Times,serif" font-size="14.00">updated_at :datetime</text>
</g>
<!-- Stakeholder -->
<g id="node9" class="node"><title>Stakeholder</title>
<path fill="none" stroke="black" d="M716.625,-125C716.625,-125 875.409,-125 875.409,-125 881.409,-125 887.409,-131 887.409,-137 887.409,-137 887.409,-507 887.409,-507 887.409,-513 881.409,-519 875.409,-519 875.409,-519 716.625,-519 716.625,-519 710.625,-519 704.625,-513 704.625,-507 704.625,-507 704.625,-137 704.625,-137 704.625,-131 710.625,-125 716.625,-125"/>
<text text-anchor="middle" x="796.017" y="-503.8" font-family="Times,serif" font-size="14.00">Stakeholder</text>
<polyline fill="none" stroke="black" points="704.625,-497 887.409,-497 "/>
<text text-anchor="start" x="712.625" y="-481.8" font-family="Times,serif" font-size="14.00">id :integer</text>
<text text-anchor="start" x="712.625" y="-467.8" font-family="Times,serif" font-size="14.00">stakeholder_type_id :integer</text>
<text text-anchor="start" x="712.625" y="-453.8" font-family="Times,serif" font-size="14.00">company_id :integer</text>
<text text-anchor="start" x="712.625" y="-439.8" font-family="Times,serif" font-size="14.00">name :string</text>
<text text-anchor="start" x="712.625" y="-425.8" font-family="Times,serif" font-size="14.00">client_type_id :string</text>
<text text-anchor="start" x="712.625" y="-411.8" font-family="Times,serif" font-size="14.00">address :string</text>
<text text-anchor="start" x="712.625" y="-397.8" font-family="Times,serif" font-size="14.00">city :string</text>
<text text-anchor="start" x="712.625" y="-383.8" font-family="Times,serif" font-size="14.00">state :string</text>
<text text-anchor="start" x="712.625" y="-369.8" font-family="Times,serif" font-size="14.00">zip :integer</text>
<text text-anchor="start" x="712.625" y="-355.8" font-family="Times,serif" font-size="14.00">work_phone :string</text>
<text text-anchor="start" x="712.625" y="-341.8" font-family="Times,serif" font-size="14.00">home_phone :string</text>
<text text-anchor="start" x="712.625" y="-327.8" font-family="Times,serif" font-size="14.00">cell_phone :string</text>
<text text-anchor="start" x="712.625" y="-313.8" font-family="Times,serif" font-size="14.00">fax_phone :string</text>
<text text-anchor="start" x="712.625" y="-299.8" font-family="Times,serif" font-size="14.00">email :string</text>
<text text-anchor="start" x="712.625" y="-285.8" font-family="Times,serif" font-size="14.00">address_alternate :string</text>
<text text-anchor="start" x="712.625" y="-271.8" font-family="Times,serif" font-size="14.00">city_alternate :string</text>
<text text-anchor="start" x="712.625" y="-257.8" font-family="Times,serif" font-size="14.00">state_alternate :string</text>
<text text-anchor="start" x="712.625" y="-243.8" font-family="Times,serif" font-size="14.00">zip_alternate :integer</text>
<text text-anchor="start" x="712.625" y="-229.8" font-family="Times,serif" font-size="14.00">work_phone_alternate :string</text>
<text text-anchor="start" x="712.625" y="-215.8" font-family="Times,serif" font-size="14.00">home_phone_alternate :string</text>
<text text-anchor="start" x="712.625" y="-201.8" font-family="Times,serif" font-size="14.00">cell_phone_alternate :string</text>
<text text-anchor="start" x="712.625" y="-187.8" font-family="Times,serif" font-size="14.00">fax_phone_alternate :string</text>
<text text-anchor="start" x="712.625" y="-173.8" font-family="Times,serif" font-size="14.00">email_alternate :string</text>
<text text-anchor="start" x="712.625" y="-159.8" font-family="Times,serif" font-size="14.00">notes :text</text>
<text text-anchor="start" x="712.625" y="-145.8" font-family="Times,serif" font-size="14.00">created_at :datetime</text>
<text text-anchor="start" x="712.625" y="-131.8" font-family="Times,serif" font-size="14.00">updated_at :datetime</text>
</g>
<!-- Company&#45;&gt;Stakeholder -->
<g id="edge2" class="edge"><title>Company&#45;&gt;Stakeholder</title>
<path fill="none" stroke="#c2398f" d="M680.323,-549.158C686.722,-536.65 693.331,-523.73 699.998,-510.698"/>
<ellipse fill="none" stroke="#c2398f" cx="678.306" cy="-553.103" rx="4.00002" ry="4.00002"/>
<polygon fill="#c2398f" stroke="#c2398f" points="700.066,-510.565 708.627,-503.712 702.343,-506.114 704.62,-501.662 704.62,-501.662 704.62,-501.662 702.343,-506.114 700.614,-499.613 700.066,-510.565 700.066,-510.565"/>
</g>
<!-- Fault -->
<g id="node4" class="node"><title>Fault</title>
<path fill="none" stroke="black" d="M98.5117,-627C98.5117,-627 207.522,-627 207.522,-627 213.522,-627 219.522,-633 219.522,-639 219.522,-639 219.522,-701 219.522,-701 219.522,-707 213.522,-713 207.522,-713 207.522,-713 98.5117,-713 98.5117,-713 92.5117,-713 86.5117,-707 86.5117,-701 86.5117,-701 86.5117,-639 86.5117,-639 86.5117,-633 92.5117,-627 98.5117,-627"/>
<text text-anchor="middle" x="153.017" y="-697.8" font-family="Times,serif" font-size="14.00">Fault</text>
<polyline fill="none" stroke="black" points="86.5117,-691 219.522,-691 "/>
<text text-anchor="start" x="94.5117" y="-675.8" font-family="Times,serif" font-size="14.00">id :integer</text>
<text text-anchor="start" x="94.5117" y="-661.8" font-family="Times,serif" font-size="14.00">name :string</text>
<text text-anchor="start" x="94.5117" y="-647.8" font-family="Times,serif" font-size="14.00">created_at :datetime</text>
<text text-anchor="start" x="94.5117" y="-633.8" font-family="Times,serif" font-size="14.00">updated_at :datetime</text>
</g>
<!-- Phase -->
<g id="node5" class="node"><title>Phase</title>
<path fill="none" stroke="black" d="M139.677,-125C139.677,-125 316.357,-125 316.357,-125 322.357,-125 328.357,-131 328.357,-137 328.357,-137 328.357,-507 328.357,-507 328.357,-513 322.357,-519 316.357,-519 316.357,-519 139.677,-519 139.677,-519 133.677,-519 127.677,-513 127.677,-507 127.677,-507 127.677,-137 127.677,-137 127.677,-131 133.677,-125 139.677,-125"/>
<text text-anchor="middle" x="228.017" y="-503.8" font-family="Times,serif" font-size="14.00">Phase</text>
<polyline fill="none" stroke="black" points="127.677,-497 328.357,-497 "/>
<text text-anchor="start" x="135.677" y="-481.8" font-family="Times,serif" font-size="14.00">id :integer</text>
<text text-anchor="start" x="135.677" y="-467.8" font-family="Times,serif" font-size="14.00">phase :string</text>
<text text-anchor="start" x="135.677" y="-453.8" font-family="Times,serif" font-size="14.00">project_id :integer</text>
<text text-anchor="start" x="135.677" y="-439.8" font-family="Times,serif" font-size="14.00">company_id :integer</text>
<text text-anchor="start" x="135.677" y="-425.8" font-family="Times,serif" font-size="14.00">project_manager_id :integer</text>
<text text-anchor="start" x="135.677" y="-411.8" font-family="Times,serif" font-size="14.00">investigation_type_id :string</text>
<text text-anchor="start" x="135.677" y="-397.8" font-family="Times,serif" font-size="14.00">site_id :integer</text>
<text text-anchor="start" x="135.677" y="-383.8" font-family="Times,serif" font-size="14.00">stakeholder_id :integer</text>
<text text-anchor="start" x="135.677" y="-369.8" font-family="Times,serif" font-size="14.00">description :text</text>
<text text-anchor="start" x="135.677" y="-355.8" font-family="Times,serif" font-size="14.00">proposal_date :date</text>
<text text-anchor="start" x="135.677" y="-341.8" font-family="Times,serif" font-size="14.00">proposal_number :string</text>
<text text-anchor="start" x="135.677" y="-327.8" font-family="Times,serif" font-size="14.00">report_date :date</text>
<text text-anchor="start" x="135.677" y="-313.8" font-family="Times,serif" font-size="14.00">notes :text</text>
<text text-anchor="start" x="135.677" y="-299.8" font-family="Times,serif" font-size="14.00">insurance_policy_number :string</text>
<text text-anchor="start" x="135.677" y="-285.8" font-family="Times,serif" font-size="14.00">insurance_notes :text</text>
<text text-anchor="start" x="135.677" y="-271.8" font-family="Times,serif" font-size="14.00">Rakefile :string</text>
<text text-anchor="start" x="135.677" y="-257.8" font-family="Times,serif" font-size="14.00">bill_name :string</text>
<text text-anchor="start" x="135.677" y="-243.8" font-family="Times,serif" font-size="14.00">bill_attention :string</text>
<text text-anchor="start" x="135.677" y="-229.8" font-family="Times,serif" font-size="14.00">bill_address :string</text>
<text text-anchor="start" x="135.677" y="-215.8" font-family="Times,serif" font-size="14.00">bill_city :string</text>
<text text-anchor="start" x="135.677" y="-201.8" font-family="Times,serif" font-size="14.00">bill_state :string</text>
<text text-anchor="start" x="135.677" y="-187.8" font-family="Times,serif" font-size="14.00">bill_zip :string</text>
<text text-anchor="start" x="135.677" y="-173.8" font-family="Times,serif" font-size="14.00">bad_pay_history :text</text>
<text text-anchor="start" x="135.677" y="-159.8" font-family="Times,serif" font-size="14.00">keywords :string</text>
<text text-anchor="start" x="135.677" y="-145.8" font-family="Times,serif" font-size="14.00">created_at :datetime</text>
<text text-anchor="start" x="135.677" y="-131.8" font-family="Times,serif" font-size="14.00">updated_at :datetime</text>
</g>
<!-- Phase&#45;&gt;ClientType -->
<g id="edge5" class="edge"><title>Phase&#45;&gt;ClientType</title>
<path fill="none" stroke="#a9f044" d="M151.234,-117.229C148.557,-110.126 145.995,-103.326 143.587,-96.936"/>
<ellipse fill="none" stroke="#a9f044" cx="152.688" cy="-121.088" rx="4.00001" ry="4.00001"/>
<polygon fill="#a9f044" stroke="#a9f044" points="143.462,-96.6048 144.147,-85.6603 141.699,-91.926 139.936,-87.2471 139.936,-87.2471 139.936,-87.2471 141.699,-91.926 135.725,-88.8339 143.462,-96.6048 143.462,-96.6048"/>
</g>
<!-- Project -->
<g id="node6" class="node"><title>Project</title>
<path fill="none" stroke="black" d="M249.625,-599C249.625,-599 366.409,-599 366.409,-599 372.409,-599 378.409,-605 378.409,-611 378.409,-611 378.409,-729 378.409,-729 378.409,-735 372.409,-741 366.409,-741 366.409,-741 249.625,-741 249.625,-741 243.625,-741 237.625,-735 237.625,-729 237.625,-729 237.625,-611 237.625,-611 237.625,-605 243.625,-599 249.625,-599"/>
<text text-anchor="middle" x="308.017" y="-725.8" font-family="Times,serif" font-size="14.00">Project</text>
<polyline fill="none" stroke="black" points="237.625,-719 378.409,-719 "/>
<text text-anchor="start" x="245.625" y="-703.8" font-family="Times,serif" font-size="14.00">id :integer</text>
<text text-anchor="start" x="245.625" y="-689.8" font-family="Times,serif" font-size="14.00">name :string</text>
<text text-anchor="start" x="245.625" y="-675.8" font-family="Times,serif" font-size="14.00">name_alternate :string</text>
<text text-anchor="start" x="245.625" y="-661.8" font-family="Times,serif" font-size="14.00">number :string</text>
<text text-anchor="start" x="245.625" y="-647.8" font-family="Times,serif" font-size="14.00">prefix_id :integer</text>
<text text-anchor="start" x="245.625" y="-633.8" font-family="Times,serif" font-size="14.00">description :text</text>
<text text-anchor="start" x="245.625" y="-619.8" font-family="Times,serif" font-size="14.00">created_at :datetime</text>
<text text-anchor="start" x="245.625" y="-605.8" font-family="Times,serif" font-size="14.00">updated_at :datetime</text>
</g>
<!-- Project&#45;&gt;Phase -->
<g id="edge7" class="edge"><title>Project&#45;&gt;Phase</title>
<path fill="none" stroke="#1bda0b" d="M290.005,-591.099C285.621,-572.139 280.726,-550.968 275.662,-529.063"/>
<ellipse fill="none" stroke="#1bda0b" cx="290.927" cy="-595.085" rx="4.00001" ry="4.00001"/>
<polygon fill="#1bda0b" stroke="#1bda0b" points="275.656,-529.038 277.787,-518.281 274.53,-524.166 273.403,-519.295 273.403,-519.295 273.403,-519.295 274.53,-524.166 269.019,-520.309 275.656,-529.038 275.656,-529.038"/>
</g>
<!-- ProjectManager -->
<g id="node7" class="node"><title>ProjectManager</title>
<path fill="none" stroke="black" d="M408.512,-627C408.512,-627 517.522,-627 517.522,-627 523.522,-627 529.522,-633 529.522,-639 529.522,-639 529.522,-701 529.522,-701 529.522,-707 523.522,-713 517.522,-713 517.522,-713 408.512,-713 408.512,-713 402.512,-713 396.512,-707 396.512,-701 396.512,-701 396.512,-639 396.512,-639 396.512,-633 402.512,-627 408.512,-627"/>
<text text-anchor="middle" x="463.017" y="-697.8" font-family="Times,serif" font-size="14.00">ProjectManager</text>
<polyline fill="none" stroke="black" points="396.512,-691 529.522,-691 "/>
<text text-anchor="start" x="404.512" y="-675.8" font-family="Times,serif" font-size="14.00">id :integer</text>
<text text-anchor="start" x="404.512" y="-661.8" font-family="Times,serif" font-size="14.00">name :string</text>
<text text-anchor="start" x="404.512" y="-647.8" font-family="Times,serif" font-size="14.00">created_at :datetime</text>
<text text-anchor="start" x="404.512" y="-633.8" font-family="Times,serif" font-size="14.00">updated_at :datetime</text>
</g>
<!-- ProjectManager&#45;&gt;Phase -->
<g id="edge9" class="edge"><title>ProjectManager&#45;&gt;Phase</title>
<path fill="none" stroke="#086cb4" d="M430.13,-619.947C416.78,-600.076 401.192,-576.923 387.017,-556 369.977,-530.848 351.859,-504.204 334.185,-478.267"/>
<ellipse fill="none" stroke="#086cb4" cx="432.523" cy="-623.51" rx="4.00002" ry="4.00002"/>
<polygon fill="#086cb4" stroke="#086cb4" points="334.097,-478.137 332.183,-467.339 331.281,-474.005 328.465,-469.874 328.465,-469.874 328.465,-469.874 331.281,-474.005 324.746,-472.408 334.097,-478.137 334.097,-478.137"/>
</g>
<!-- Site -->
<g id="node8" class="node"><title>Site</title>
<path fill="none" stroke="black" d="M721.394,-557C721.394,-557 836.64,-557 836.64,-557 842.64,-557 848.64,-563 848.64,-569 848.64,-569 848.64,-771 848.64,-771 848.64,-777 842.64,-783 836.64,-783 836.64,-783 721.394,-783 721.394,-783 715.394,-783 709.394,-777 709.394,-771 709.394,-771 709.394,-569 709.394,-569 709.394,-563 715.394,-557 721.394,-557"/>
<text text-anchor="middle" x="779.017" y="-767.8" font-family="Times,serif" font-size="14.00">Site</text>
<polyline fill="none" stroke="black" points="709.394,-761 848.64,-761 "/>
<text text-anchor="start" x="717.394" y="-745.8" font-family="Times,serif" font-size="14.00">id :integer</text>
<text text-anchor="start" x="717.394" y="-731.8" font-family="Times,serif" font-size="14.00">number :string</text>
<text text-anchor="start" x="717.394" y="-717.8" font-family="Times,serif" font-size="14.00">structure_id :integer</text>
<text text-anchor="start" x="717.394" y="-703.8" font-family="Times,serif" font-size="14.00">address :string</text>
<text text-anchor="start" x="717.394" y="-689.8" font-family="Times,serif" font-size="14.00">city :string</text>
<text text-anchor="start" x="717.394" y="-675.8" font-family="Times,serif" font-size="14.00">county :string</text>
<text text-anchor="start" x="717.394" y="-661.8" font-family="Times,serif" font-size="14.00">loc_page :text</text>
<text text-anchor="start" x="717.394" y="-647.8" font-family="Times,serif" font-size="14.00">loc_longitude :integer</text>
<text text-anchor="start" x="717.394" y="-633.8" font-family="Times,serif" font-size="14.00">loc_latitude :integer</text>
<text text-anchor="start" x="717.394" y="-619.8" font-family="Times,serif" font-size="14.00">apn :string</text>
<text text-anchor="start" x="717.394" y="-605.8" font-family="Times,serif" font-size="14.00">tombrobox :string</text>
<text text-anchor="start" x="717.394" y="-591.8" font-family="Times,serif" font-size="14.00">fault_id :integer</text>
<text text-anchor="start" x="717.394" y="-577.8" font-family="Times,serif" font-size="14.00">created_at :datetime</text>
<text text-anchor="start" x="717.394" y="-563.8" font-family="Times,serif" font-size="14.00">updated_at :datetime</text>
</g>
<!-- StakeholderType -->
<g id="node10" class="node"><title>StakeholderType</title>
<path fill="none" stroke="black" d="M791.56,-1C791.56,-1 918.474,-1 918.474,-1 924.474,-1 930.474,-7 930.474,-13 930.474,-13 930.474,-75 930.474,-75 930.474,-81 924.474,-87 918.474,-87 918.474,-87 791.56,-87 791.56,-87 785.56,-87 779.56,-81 779.56,-75 779.56,-75 779.56,-13 779.56,-13 779.56,-7 785.56,-1 791.56,-1"/>
<text text-anchor="middle" x="855.017" y="-71.8" font-family="Times,serif" font-size="14.00">StakeholderType</text>
<polyline fill="none" stroke="black" points="779.56,-65 930.474,-65 "/>
<text text-anchor="start" x="787.56" y="-49.8" font-family="Times,serif" font-size="14.00">id :integer</text>
<text text-anchor="start" x="787.56" y="-35.8" font-family="Times,serif" font-size="14.00">stakeholder_type :string</text>
<text text-anchor="start" x="787.56" y="-21.8" font-family="Times,serif" font-size="14.00">created_at :datetime</text>
<text text-anchor="start" x="787.56" y="-7.8" font-family="Times,serif" font-size="14.00">updated_at :datetime</text>
</g>
<!-- Stakeholder&#45;&gt;StakeholderType -->
<g id="edge12" class="edge"><title>Stakeholder&#45;&gt;StakeholderType</title>
<path fill="none" stroke="#f4a41d" d="M840.108,-114.744C841.396,-108.718 842.635,-102.923 843.81,-97.4284"/>
<polygon fill="#f4a41d" stroke="#f4a41d" points="840.042,-115.052 833.551,-123.89 838.997,-119.941 837.952,-124.831 837.952,-124.831 837.952,-124.831 838.997,-119.941 842.352,-125.771 840.042,-115.052 840.042,-115.052"/>
<polygon fill="#f4a41d" stroke="#f4a41d" points="843.895,-97.0262 850.387,-88.1878 844.941,-92.1366 845.986,-87.2471 845.986,-87.2471 845.986,-87.2471 844.941,-92.1366 841.585,-86.3064 843.895,-97.0262 843.895,-97.0262"/>
</g>
<!-- Structure -->
<g id="node11" class="node"><title>Structure</title>
<path fill="none" stroke="black" d="M955.512,-627C955.512,-627 1064.52,-627 1064.52,-627 1070.52,-627 1076.52,-633 1076.52,-639 1076.52,-639 1076.52,-701 1076.52,-701 1076.52,-707 1070.52,-713 1064.52,-713 1064.52,-713 955.512,-713 955.512,-713 949.512,-713 943.512,-707 943.512,-701 943.512,-701 943.512,-639 943.512,-639 943.512,-633 949.512,-627 955.512,-627"/>
<text text-anchor="middle" x="1010.02" y="-697.8" font-family="Times,serif" font-size="14.00">Structure</text>
<polyline fill="none" stroke="black" points="943.512,-691 1076.52,-691 "/>
<text text-anchor="start" x="951.512" y="-675.8" font-family="Times,serif" font-size="14.00">id :integer</text>
<text text-anchor="start" x="951.512" y="-661.8" font-family="Times,serif" font-size="14.00">structure :string</text>
<text text-anchor="start" x="951.512" y="-647.8" font-family="Times,serif" font-size="14.00">created_at :datetime</text>
<text text-anchor="start" x="951.512" y="-633.8" font-family="Times,serif" font-size="14.00">updated_at :datetime</text>
</g>
<!-- ActiveRecord::Base -->
<g id="node12" class="node"><title>ActiveRecord::Base</title>
<ellipse fill="none" stroke="black" cx="541.017" cy="-857" rx="80.9821" ry="18"/>
<text text-anchor="middle" x="541.017" y="-852.8" font-family="Times,serif" font-size="14.00">ActiveRecord::Base</text>
</g>
<!-- ActiveRecord::Base&#45;&gt;ClientType -->
<g id="edge1" class="edge"><title>ActiveRecord::Base&#45;&gt;ClientType</title>
<path fill="none" stroke="black" d="M508.482,-840.46C491.45,-833.018 470.026,-824.717 450.017,-820 404.86,-809.354 65.3772,-818.191 34.017,-784 -60.007,-681.488 67.7117,-228.907 110.755,-87.4211"/>
</g>
<!-- ActiveRecord::Base&#45;&gt;Company -->
<g id="edge3" class="edge"><title>ActiveRecord::Base&#45;&gt;Company</title>
<path fill="none" stroke="black" d="M548.215,-838.927C553.948,-825.331 562.517,-805.007 571.733,-783.149"/>
</g>
<!-- ActiveRecord::Base&#45;&gt;Fault -->
<g id="edge4" class="edge"><title>ActiveRecord::Base&#45;&gt;Fault</title>
<path fill="none" stroke="black" d="M507.044,-840.541C490.188,-833.395 469.344,-825.33 450.017,-820 354.082,-793.543 312.795,-837.711 229.017,-784 202.844,-767.22 183.507,-737.863 170.888,-713.277"/>
</g>
<!-- ActiveRecord::Base&#45;&gt;Phase -->
<g id="edge6" class="edge"><title>ActiveRecord::Base&#45;&gt;Phase</title>
<path fill="none" stroke="black" d="M508.039,-840.359C491.072,-832.985 469.838,-824.776 450.017,-820 369.06,-800.492 133.001,-845.647 77.017,-784 -7.69902,-690.714 58.1962,-548.993 127.586,-447.322"/>
</g>
<!-- ActiveRecord::Base&#45;&gt;Project -->
<g id="edge8" class="edge"><title>ActiveRecord::Base&#45;&gt;Project</title>
<path fill="none" stroke="black" d="M503.182,-840.967C463.888,-824.895 405.599,-799.62 387.017,-784 372.633,-771.909 359.642,-756.608 348.543,-741.203"/>
</g>
<!-- ActiveRecord::Base&#45;&gt;ProjectManager -->
<g id="edge10" class="edge"><title>ActiveRecord::Base&#45;&gt;ProjectManager</title>
<path fill="none" stroke="black" d="M533.819,-838.927C521.863,-810.572 497.571,-752.956 480.802,-713.182"/>
</g>
<!-- ActiveRecord::Base&#45;&gt;Site -->
<g id="edge11" class="edge"><title>ActiveRecord::Base&#45;&gt;Site</title>
<path fill="none" stroke="black" d="M587.487,-842.115C621.03,-830.454 666.036,-811.285 699.017,-784 702.536,-781.089 705.973,-777.987 709.321,-774.74"/>
</g>
<!-- ActiveRecord::Base&#45;&gt;Stakeholder -->
<g id="edge13" class="edge"><title>ActiveRecord::Base&#45;&gt;Stakeholder</title>
<path fill="none" stroke="black" d="M615.054,-849.623C698.769,-840.698 827.322,-821.222 857.017,-784 889.649,-743.097 873.595,-625.422 849.792,-519.208"/>
</g>
<!-- ActiveRecord::Base&#45;&gt;StakeholderType -->
<g id="edge14" class="edge"><title>ActiveRecord::Base&#45;&gt;StakeholderType</title>
<path fill="none" stroke="black" d="M616.677,-850.476C706.177,-842.228 847.314,-823.256 881.017,-784 922.735,-735.409 913.59,-196.008 896.017,-124 892.976,-111.54 887.598,-98.8555 881.716,-87.4015"/>
</g>
<!-- ActiveRecord::Base&#45;&gt;Structure -->
<g id="edge15" class="edge"><title>ActiveRecord::Base&#45;&gt;Structure</title>
<path fill="none" stroke="black" d="M614.028,-848.998C711.485,-838.554 877.774,-816.57 929.017,-784 955.805,-766.974 976.445,-737.623 990.185,-713.102"/>
</g>
</g>
</svg>
